<?xml version="1.0" encoding="UTF-8" standalone="no"?>
<svg width="300px" height="302px" viewBox="0 0 300 302" version="1.1" xmlns="http://www.w3.org/2000/svg" xmlns:xlink="http://www.w3.org/1999/xlink" xmlns:sketch="http://www.bohemiancoding.com/sketch/ns">
    <!-- Generator: Sketch 3.4.2 (15857) - http://www.bohemiancoding.com/sketch -->
    <title>b </title>
    <desc>Created with Sketch.</desc>
    <defs></defs>
    <g id="Page-1" stroke="none" stroke-width="1" fill="none" fill-rule="evenodd" sketch:type="MSPage">
        <g id="b-" sketch:type="MSLayerGroup" fill-opacity="0.504670516" fill="#FFC107">
            <g id="b" sketch:type="MSShapeGroup">
                <g id="Page-1">
                    <g id="Group">
                        <path d="M299.876,301.34 L0,301.34 L0,0 L299.876,0 L299.876,301.34 L299.876,301.34 Z M291.58,8.54 L8.54,8.54 L8.54,292.8 L291.58,292.8 L291.58,8.54 L291.58,8.54 Z M261.568,266.448 L38.308,266.448 L38.308,35.136 L261.568,35.136 L261.568,266.448 L261.568,266.448 Z M126.148,111.264 L41.236,38.064 L41.236,263.52 L126.148,190.32 C127.368,189.588 128.588,188.368 130.296,186.904 C131.76,185.684 132.98,184.708 133.712,183.976 L136.64,181.78 C137.86,180.804 138.592,180.072 139.324,179.584 C140.056,179.34 140.788,178.852 141.764,178.12 C143.472,176.9 144.448,176.412 145.668,175.924 C146.888,175.436 148.352,175.436 149.572,175.436 C151.524,175.436 152.988,175.68 154.94,176.656 C156.892,177.632 157.624,177.876 160.308,179.828 C162.992,182.024 163.968,183 167.872,186.172 C169.824,187.88 171.532,189.1 172.752,190.32 L258.64,263.52 L258.64,38.064 L172.752,111.264 C163.236,119.56 157.624,124.196 155.428,125.416 C153.476,126.148 151.524,126.636 149.572,126.636 C146.888,126.636 144.204,125.66 141.764,123.952 C139.08,122.244 134.688,118.584 128.1,112.972 C127.368,112.24 126.636,111.508 126.148,111.264 L126.148,111.264 L126.148,111.264 Z" id="b"></path>
                    </g>
                </g>
            </g>
        </g>
    </g>
</svg>