<?xml version="1.0" encoding="UTF-8" standalone="no"?>
<svg width="261px" height="262px" viewBox="0 0 261 262" version="1.1" xmlns="http://www.w3.org/2000/svg" xmlns:xlink="http://www.w3.org/1999/xlink" xmlns:sketch="http://www.bohemiancoding.com/sketch/ns">
    <!-- Generator: Sketch 3.4.2 (15857) - http://www.bohemiancoding.com/sketch -->
    <title>e</title>
    <desc>Created with Sketch.</desc>
    <defs></defs>
    <g id="Page-1" stroke="none" stroke-width="1" fill="none" fill-rule="evenodd" sketch:type="MSPage">
        <g id="e-" sketch:type="MSLayerGroup" fill="#FFCE3A">
            <g id="e" sketch:type="MSShapeGroup">
                <g id="Page-1">
                    <g id="Group">
                        <path d="M260.76,0 L260.76,261.608 L-2.27373675e-13,261.608 L-2.27373675e-13,0 L260.76,0 L260.76,0 Z M7.42,7.208 L7.42,254.188 L253.34,254.188 L253.34,7.208 L7.42,7.208 L7.42,7.208 Z M227.476,30.316 L227.476,231.292 L33.284,231.292 L33.284,30.316 L227.476,30.316 L227.476,30.316 Z M96.672,150.944 L35.828,228.748 L224.932,228.748 L165.36,150.944 L156.88,140.132 C155.608,138.436 153.276,135.256 152.852,133.348 C152.64,132.5 152.428,131.652 152.428,130.592 C152.428,128.26 152.852,126.776 154.548,124.232 C156.032,121.9 157.092,120.628 160.696,116.388 L165.36,110.452 L224.932,32.86 L35.828,32.86 L96.672,110.452 C98.156,112.36 99.64,114.268 101.548,116.388 C104.94,120.628 106,121.9 107.696,124.232 C109.18,126.776 109.604,128.26 109.604,130.592 C109.604,132.076 109.392,133.348 108.756,134.832 C107.908,136.528 107.484,137.376 105.788,139.708 C103.88,142.252 103.032,143.1 100.276,146.492 C98.792,148.188 97.732,149.672 96.672,150.944 L96.672,150.944 L96.672,150.944 Z" id="e"></path>
                    </g>
                </g>
            </g>
        </g>
    </g>
</svg>