<?xml version="1.0" encoding="UTF-8" standalone="no"?>
<svg width="153px" height="255px" viewBox="0 0 153 255" version="1.1" xmlns="http://www.w3.org/2000/svg" xmlns:xlink="http://www.w3.org/1999/xlink" xmlns:sketch="http://www.bohemiancoding.com/sketch/ns">
    <!-- Generator: Sketch 3.4.2 (15857) - http://www.bohemiancoding.com/sketch -->
    <title>f </title>
    <desc>Created with Sketch.</desc>
    <defs></defs>
    <g id="Page-1" stroke="none" stroke-width="1" fill="none" fill-rule="evenodd" sketch:type="MSPage">
        <g id="f-" sketch:type="MSLayerGroup" fill-opacity="0.504670516" fill="#FFC107">
            <g id="f" sketch:type="MSShapeGroup">
                <g id="Page-1">
                    <g id="Group">
                        <path d="M76.32,49.396 L106,19.292 L106,-1.13686838e-13 L123.808,-1.13686838e-13 L123.808,19.292 L152.428,49.396 L152.428,76.32 L123.808,107.06 L123.808,147.764 L152.428,176.596 L152.428,203.732 L123.808,234.26 L123.808,254.4 L106,254.4 L106,234.26 L76.32,203.732 L46.64,234.26 L46.64,254.4 L28.832,254.4 L28.832,234.26 L0,203.308 L0,176.596 L28.832,147.764 L28.832,107.06 L0,76.32 L0,49.396 L28.832,19.292 L28.832,-1.13686838e-13 L46.64,-1.13686838e-13 L46.64,19.292 L76.32,49.396 L76.32,49.396 Z M37.524,34.556 L9.54,62.54 L37.524,91.796 L65.296,62.54 L37.524,34.556 L37.524,34.556 Z M115.54,34.556 L87.344,62.54 L115.54,91.796 L143.1,62.54 L115.54,34.556 L115.54,34.556 Z M106,107.06 L76.32,77.168 L46.64,107.06 L46.64,147.764 L76.32,176.596 L106,147.764 L106,107.06 L106,107.06 Z M37.524,161.756 L9.54,189.74 L37.524,218.784 L65.296,189.74 L37.524,161.756 L37.524,161.756 Z M115.54,161.756 L87.344,189.74 L115.54,218.784 L143.1,189.74 L115.54,161.756 L115.54,161.756 Z" id="f"></path>
                    </g>
                </g>
            </g>
        </g>
    </g>
</svg>