<?xml version="1.0" encoding="UTF-8" standalone="no"?>
<svg width="157px" height="255px" viewBox="0 0 157 255" version="1.1" xmlns="http://www.w3.org/2000/svg" xmlns:xlink="http://www.w3.org/1999/xlink" xmlns:sketch="http://www.bohemiancoding.com/sketch/ns">
    <!-- Generator: Sketch 3.4.2 (15857) - http://www.bohemiancoding.com/sketch -->
    <title>g </title>
    <desc>Created with Sketch.</desc>
    <defs></defs>
    <g id="Page-1" stroke="none" stroke-width="1" fill="none" fill-rule="evenodd" sketch:type="MSPage">
        <g id="g-" sketch:type="MSLayerGroup" fill-opacity="0.504670516" fill="#FFC107">
            <g id="g" sketch:type="MSShapeGroup">
                <g id="Page-1">
                    <g id="Group">
                        <path d="M4.028,63.6 C4.028,44.096 2.544,20.14 1.06,8.48 L0,0 L2.332,2.332 C4.24,4.452 10.176,13.568 13.78,22.684 C17.384,31.8 21.2,47.7 21.2,63.812 C21.2,79.924 17.808,95.612 13.78,104.94 C9.54,114.48 5.3,121.9 2.12,125.08 L0,127.412 C2.756,106.848 4.028,85.436 4.028,63.6 L4.028,63.6 L4.028,63.6 Z M74.624,63.6 C74.624,83.104 76.532,107.06 77.592,118.72 L78.652,127.2 C78.016,126.564 77.38,125.716 76.32,124.656 C74.412,122.536 68.476,113.632 64.872,104.728 C61.268,95.824 57.452,79.924 57.452,63.812 C57.452,47.7 60.844,32.012 65.084,22.472 C69.112,13.144 73.564,5.512 76.32,2.332 L78.652,0 C75.896,20.564 74.624,41.764 74.624,63.6 L74.624,63.6 L74.624,63.6 Z M80.772,6.36 L78.652,0 L156.88,0 C156.244,1.908 155.608,4.24 154.548,7.208 C152.428,13.144 144.16,29.68 136.528,37.312 C132.076,41.976 125.928,44.308 117.872,44.308 C109.604,44.308 103.456,41.976 99.004,37.312 C91.16,29.68 83.528,15.052 80.772,6.36 L80.772,6.36 L80.772,6.36 Z M154.76,120.84 L156.88,127.412 L78.652,127.412 C79.288,125.504 79.924,123.172 80.984,120.204 C82.892,114.268 91.16,97.732 99.004,90.1 C103.668,85.436 110.028,83.104 117.872,83.104 C133.348,83.104 140.556,92.644 147.34,105.152 C150.732,111.3 153.276,116.6 154.76,120.84 L154.76,120.84 L154.76,120.84 Z M2.12,133.984 L0,127.412 L78.652,127.412 C78.016,129.32 77.38,131.652 76.32,134.62 C74.2,140.768 65.932,157.516 58.3,165.148 C53.424,169.6 47.064,171.932 39.22,171.932 C23.108,171.932 16.324,162.604 9.54,149.884 C6.148,143.736 3.604,138.436 2.12,133.984 L2.12,133.984 L2.12,133.984 Z M82.468,190.8 C82.468,171.296 80.772,147.34 79.712,136.104 L78.652,127.412 L80.984,129.744 C82.68,131.864 88.616,140.768 92.22,149.884 C95.824,159 99.428,174.9 99.428,191.012 C99.428,207.124 96.248,222.812 92.22,232.14 C87.98,241.468 83.528,248.888 80.772,252.068 L78.652,254.4 C81.196,233.836 82.468,212.636 82.468,190.8 L82.468,190.8 L82.468,190.8 Z M152.852,190.8 C152.852,210.304 154.336,234.26 155.82,245.92 L156.88,254.4 C156.244,253.764 155.608,252.916 154.76,251.856 C152.852,249.736 146.704,240.832 143.1,231.928 C139.496,223.024 135.892,207.124 135.892,191.012 C135.892,174.9 139.072,159.212 143.312,149.672 C147.34,140.344 152.004,132.924 154.76,129.744 L156.88,127.412 C154.124,147.764 152.852,168.964 152.852,190.8 L152.852,190.8 L152.852,190.8 Z M76.32,248.04 L78.652,254.4 L0,254.4 L2.544,247.192 C4.664,241.256 12.72,224.72 20.352,217.088 C24.804,212.424 30.952,210.092 39.22,210.092 C55.332,210.092 62.328,219.632 69.112,232.14 C72.504,238.288 74.836,243.588 76.32,248.04 L76.32,248.04 L76.32,248.04 Z" id="g"></path>
                    </g>
                </g>
            </g>
        </g>
    </g>
</svg>