<?xml version="1.0" encoding="UTF-8" standalone="no"?>
<svg width="257px" height="253px" viewBox="0 0 257 253" version="1.1" xmlns="http://www.w3.org/2000/svg" xmlns:xlink="http://www.w3.org/1999/xlink" xmlns:sketch="http://www.bohemiancoding.com/sketch/ns">
    <!-- Generator: Sketch 3.4.2 (15857) - http://www.bohemiancoding.com/sketch -->
    <title>i</title>
    <desc>Created with Sketch.</desc>
    <defs></defs>
    <g id="Page-1" stroke="none" stroke-width="1" fill="none" fill-rule="evenodd" sketch:type="MSPage">
        <g id="i-" sketch:type="MSLayerGroup" fill="#FFCE3A">
            <g id="i" sketch:type="MSShapeGroup">
                <g id="Page-1">
                    <g id="Group">
                        <path d="M210.092,128.048 L256.096,128.048 L256.096,124.656 L126.776,124.656 L126.14,125.504 L124.656,125.504 L124.656,124.656 L120.416,124.656 L85.436,106.636 L85.436,-1.42108547e-14 L73.564,26.5 L46.852,26.5 L46.852,101.124 L73.564,101.124 L83.952,124.656 L3.392,124.656 L3.392,0.848 L0,0.848 L0,124.656 L1.696,124.656 L0.848,126.352 L0,124.656 L0,252.704 L1.696,249.312 L2.12,249.312 L26.924,207.76 L3.392,207.76 L3.392,171.084 L26.924,181.26 L26.924,207.76 L101.548,207.76 L101.548,181.26 L124.656,171.084 L124.656,249.312 L2.12,249.312 L0,252.704 L256.096,252.704 L256.096,249.312 L245.072,249.312 L210.092,231.292 L210.092,128.048 L210.092,128.048 Z M151.58,83.104 L128.048,83.104 L128.048,46.428 L151.58,56.604 L151.58,83.104 L226.204,83.104 L226.204,56.604 L252.704,44.944 L147.34,44.944 L124.656,-7.10542736e-15 L124.656,124.656 L126.776,124.656 L151.58,83.104 L151.58,83.104 Z M22.684,169.6 L1.696,128.048 L124.656,128.048 L124.656,169.6 L22.684,169.6 L22.684,169.6 Z M128.048,249.312 L128.048,128.048 L208.608,128.048 L198.22,151.156 L171.508,151.156 L171.508,225.78 L198.22,225.78 L208.608,249.312 L128.048,249.312 L128.048,249.312 Z" id="i"></path>
                    </g>
                </g>
            </g>
        </g>
    </g>
</svg>