<?xml version="1.0" encoding="UTF-8" standalone="no"?>
<svg width="161px" height="255px" viewBox="0 0 161 255" version="1.1" xmlns="http://www.w3.org/2000/svg" xmlns:xlink="http://www.w3.org/1999/xlink" xmlns:sketch="http://www.bohemiancoding.com/sketch/ns">
    <!-- Generator: Sketch 3.4.2 (15857) - http://www.bohemiancoding.com/sketch -->
    <title>j</title>
    <desc>Created with Sketch.</desc>
    <defs></defs>
    <g id="Page-1" stroke="none" stroke-width="1" fill="none" fill-rule="evenodd" sketch:type="MSPage">
        <g id="j-" sketch:type="MSLayerGroup" fill="#FFCE3A">
            <g id="j" sketch:type="MSShapeGroup">
                <g id="Page-1">
                    <g id="Group">
                        <path d="M160.06,5.3 L160.06,-1.13686838e-13 L155.396,-1.13686838e-13 L133.136,2.756 L109.392,-1.13686838e-13 L101.972,-1.13686838e-13 L79.712,2.756 L55.968,-1.13686838e-13 L48.548,-1.13686838e-13 L26.5,2.756 L2.756,-1.13686838e-13 L0,-1.13686838e-13 L0,252.068 L2.756,252.068 L23.744,254.824 L50.668,252.068 L55.968,252.068 L77.168,254.824 L103.456,252.068 L109.392,252.068 L129.956,254.824 L156.88,252.068 L160.06,252.068 L160.06,246.768 L155.396,246.768 L137.376,249.524 L156.88,5.3 L160.06,5.3 L160.06,5.3 Z M23.744,249.524 L2.756,5.3 L26.5,8.056 L23.744,249.524 L23.744,249.524 Z M53.424,246.768 L48.548,246.768 L30.74,249.524 L50.668,5.3 L53.424,5.3 L53.424,246.768 L53.424,246.768 Z M77.168,249.524 L55.968,5.3 L79.712,8.056 L77.168,249.524 L77.168,249.524 Z M106.636,246.768 L101.972,246.768 L83.952,249.524 L103.456,5.3 L106.636,5.3 L106.636,246.768 L106.636,246.768 Z M129.956,249.524 L109.392,5.3 L133.136,8.056 L129.956,249.524 L129.956,249.524 Z" id="j"></path>
                    </g>
                </g>
            </g>
        </g>
    </g>
</svg>