<?xml version="1.0" encoding="UTF-8" standalone="no"?>
<svg width="390px" height="255px" viewBox="0 0 390 255" version="1.1" xmlns="http://www.w3.org/2000/svg" xmlns:xlink="http://www.w3.org/1999/xlink" xmlns:sketch="http://www.bohemiancoding.com/sketch/ns">
    <!-- Generator: Sketch 3.4.2 (15857) - http://www.bohemiancoding.com/sketch -->
    <title>n </title>
    <desc>Created with Sketch.</desc>
    <defs></defs>
    <g id="Page-1" stroke="none" stroke-width="1" fill="none" fill-rule="evenodd" sketch:type="MSPage">
        <g id="n-" sketch:type="MSLayerGroup" fill-opacity="0.504670516" fill="#FFC107">
            <g id="n" sketch:type="MSShapeGroup">
                <g id="Page-1">
                    <g id="Group">
                        <path d="M329.66,126.352 L389.232,2.27373675e-13 L59.996,2.27373675e-13 L0,126.352 L59.996,254.4 L389.868,254.4 L329.66,126.352 L329.66,126.352 Z M63.6,6.148 L110.028,6.148 L110.028,111.936 L10.812,119.568 L63.6,6.148 L63.6,6.148 Z M118.296,6.148 L164.088,6.148 L217.724,119.568 L118.296,111.936 L118.296,6.148 L118.296,6.148 Z M171.72,6.784 L377.996,6.784 L376.3,8.48 L274.54,15.052 L271.148,15.052 L271.148,120.416 L225.992,120.416 L182.956,30.74 L171.72,6.784 L171.72,6.784 Z M69.96,17.808 L66.78,21.836 L34.344,104.304 L34.344,108.332 L36.888,104.092 L68.688,21.836 L69.96,17.808 L69.96,17.808 Z M79.5,17.808 L77.592,21.836 L52.152,102.608 L52.152,106.636 L54.696,101.972 L78.864,21.836 L79.5,17.808 L79.5,17.808 Z M87.98,21.836 L71.232,100.7 L71.232,104.304 L72.928,100.276 L89.04,21.836 L89.676,17.808 L87.98,21.836 L87.98,21.836 Z M89.464,99.004 L89.676,102.608 L91.584,98.368 L98.368,21.836 L99.004,17.808 L97.308,21.836 L89.464,99.004 L89.464,99.004 Z M129.532,17.808 L127.836,21.836 L134.832,97.732 L137.8,102.608 L139.072,98.368 L131.228,21.836 L129.532,17.808 L129.532,17.808 Z M138.012,17.808 L137.376,21.836 L152.64,100.064 L155.82,104.304 L156.88,100.276 L140.556,21.836 L138.012,17.808 L138.012,17.808 Z M147.976,17.808 L147.34,21.836 L171.72,100.912 L175.536,106.636 L176.172,101.76 L150.732,21.836 L147.976,17.808 L147.976,17.808 Z M160.908,21.836 L157.728,17.808 L157.516,21.836 L189.528,103.244 L194.616,108.332 L194.616,103.456 L160.908,21.836 L160.908,21.836 Z M230.656,110.24 L231.504,106.848 L199.068,24.38 L195.04,20.352 L194.828,23.956 L228.112,106.848 L230.656,110.24 L230.656,110.24 Z M355.1,23.956 L322.24,106.848 L319.484,110.24 L320.544,106.848 L352.344,24.38 L355.1,20.352 L355.1,23.956 L355.1,23.956 Z M240.62,110.24 L241.68,106.848 L217.512,26.288 L214.12,22.048 L212.848,25.652 L238.288,106.848 L240.62,110.24 L240.62,110.24 Z M334.536,26.288 L337.292,22.048 L337.292,25.652 L311.852,106.848 L309.52,110.24 L310.156,106.848 L334.536,26.288 L334.536,26.288 Z M251.008,110.24 L251.644,106.848 L235.744,28.196 L233.2,23.956 L232.14,27.772 L249.1,106.848 L251.008,110.24 L251.008,110.24 Z M318,27.772 L301.464,106.848 L299.344,110.24 L299.98,106.848 L315.88,28.196 L318,23.956 L318,27.772 L318,27.772 Z M259.912,110.24 L260.972,106.848 L254.188,30.316 L251.644,25.652 L249.948,29.468 L258.216,106.848 L259.912,110.24 L259.912,110.24 Z M291.712,106.848 L290.44,110.24 L290.44,106.848 L297.436,30.316 L299.344,25.652 L299.98,29.468 L291.712,106.848 L291.712,106.848 Z M110.028,142.676 L110.028,248.252 L63.6,248.252 L9.964,132.5 L216.876,132.5 L113.42,142.676 L110.028,142.676 L110.028,142.676 Z M271.148,239.136 L171.932,246.556 L225.78,132.5 L271.148,132.5 L271.148,239.136 L271.148,239.136 Z M278.992,132.5 L325.632,132.5 L379.056,246.556 L278.992,239.136 L278.992,132.5 L278.992,132.5 Z M195.04,231.292 L195.04,234.896 L197.584,230.444 L230.232,148.612 L231.504,144.796 L228.748,148.612 L195.04,231.292 L195.04,231.292 Z M213.696,232.988 L216.028,228.748 L240.408,148.612 L241.468,144.796 L238.924,148.612 L213.696,228.96 L213.696,232.988 L213.696,232.988 Z M232.776,231.292 L234.684,226.628 L250.584,148.612 L251.008,144.796 L249.312,148.612 L232.776,227.264 L232.776,231.292 L232.776,231.292 Z M251.008,228.96 L253.128,224.932 L259.912,148.612 L259.912,144.796 L258.64,148.612 L250.796,225.356 L251.008,228.96 L251.008,228.96 Z M290.44,144.796 L288.956,148.612 L296.376,224.72 L298.92,228.96 L300.192,224.932 L292.348,148.612 L290.44,144.796 L290.44,144.796 Z M299.344,144.796 L298.284,148.612 L314.396,226.416 L317.788,231.292 L318.424,226.628 L301.676,148.612 L299.344,144.796 L299.344,144.796 Z M309.52,144.796 L308.46,148.612 L333.052,227.9 L337.292,232.988 L337.504,228.112 L312.7,148.612 L309.52,144.796 L309.52,144.796 Z M322.876,148.612 L319.484,144.796 L319.272,148.612 L350.224,229.808 L355.312,234.896 L355.312,230.02 L322.876,148.612 L322.876,148.612 Z M34.344,147.764 L33.708,151.792 L66.568,234.26 L69.324,238.076 L69.96,234.26 L37.948,152.428 L34.344,147.764 L34.344,147.764 Z M157.728,238.076 L159,234.26 L191.224,152.428 L193.98,147.764 L193.98,151.792 L160.696,234.26 L157.728,238.076 L157.728,238.076 Z M52.364,150.096 L51.516,153.7 L76.744,234.26 L79.288,238.076 L80.136,234.26 L55.968,154.124 L52.364,150.096 L52.364,150.096 Z M147.976,238.076 L148.824,234.26 L172.992,154.124 L175.536,150.096 L175.536,153.7 L150.52,234.26 L147.976,238.076 L147.976,238.076 Z M71.656,151.792 L71.02,155.396 L87.768,234.26 L89.676,238.076 L90.524,234.26 L74.412,156.032 L71.656,151.792 L71.656,151.792 Z M138.012,238.076 L138.648,234.26 L154.124,156.032 L156.668,151.792 L156.668,155.396 L139.92,234.26 L138.012,238.076 L138.012,238.076 Z M90.524,153.7 L89.04,157.516 L97.096,234.26 L99.004,238.076 L99.852,234.26 L92.856,157.728 L90.524,153.7 L90.524,153.7 Z M129.532,238.076 L129.532,234.26 L136.316,157.728 L138.012,153.7 L138.648,157.516 L131.016,234.26 L129.532,238.076 L129.532,238.076 Z" id="n"></path>
                    </g>
                </g>
            </g>
        </g>
    </g>
</svg>