<?xml version="1.0" encoding="UTF-8" standalone="no"?>
<svg width="269px" height="255px" viewBox="0 0 269 255" version="1.1" xmlns="http://www.w3.org/2000/svg" xmlns:xlink="http://www.w3.org/1999/xlink" xmlns:sketch="http://www.bohemiancoding.com/sketch/ns">
    <!-- Generator: Sketch 3.4.2 (15857) - http://www.bohemiancoding.com/sketch -->
    <title>p</title>
    <desc>Created with Sketch.</desc>
    <defs></defs>
    <g id="Page-1" stroke="none" stroke-width="1" fill="none" fill-rule="evenodd" sketch:type="MSPage">
        <g id="p-" sketch:type="MSLayerGroup" fill="#FFCE3A">
            <g id="p" sketch:type="MSShapeGroup">
                <g id="Page-1">
                    <g id="Group">
                        <path d="M0,-2.27373675e-13 L0,254.4 L268.604,254.4 L268.604,-2.27373675e-13 L0,-2.27373675e-13 L0,-2.27373675e-13 Z M264.788,250.796 L3.604,250.796 L3.604,3.604 L264.788,3.604 L264.788,250.796 L264.788,250.796 Z M41.552,93.28 L44.096,95.188 L51.728,97.732 L51.728,93.28 L55.332,93.28 L57.664,95.188 L65.296,97.732 L65.296,93.28 L69.112,93.28 L71.444,95.188 L79.076,97.732 L79.076,93.28 L83.104,93.28 L85.436,95.188 L93.068,97.732 L93.068,93.28 L96.884,93.28 L99.216,95.188 L106.848,97.732 L106.848,93.28 L110.664,93.28 L112.996,95.188 L120.628,97.732 L120.628,93.28 L124.444,93.28 L126.988,95.188 L134.62,97.732 L134.62,93.28 L138.224,93.28 L140.768,95.188 L148.4,97.732 L148.4,93.28 L152.004,93.28 L154.336,95.188 L161.968,97.732 L161.968,93.28 L165.784,93.28 L168.116,95.188 L175.748,97.732 L175.748,93.28 L179.776,93.28 L182.108,95.188 L186.56,96.672 L186.56,99.852 L183.168,101.76 L186.56,104.516 L186.56,111.088 L182.956,109.18 L176.596,112.784 L182.108,117.024 L186.56,118.508 L186.56,121.476 L183.168,123.596 L186.56,126.352 L186.56,132.924 L182.956,130.804 L176.596,134.62 L182.108,138.86 L186.56,140.344 L186.56,143.312 L183.168,145.22 L186.56,148.188 L186.56,154.548 L182.956,152.64 L176.596,156.244 L182.108,160.484 L186.56,161.968 L186.56,165.148 L183.168,167.056 L186.56,169.812 L186.56,176.384 L182.956,174.476 L176.596,178.08 L182.108,182.32 L186.56,183.804 L186.56,187.196 L183.168,189.104 L186.56,191.86 L186.56,198.22 L182.956,196.1 L176.596,199.916 L182.108,204.368 L186.56,205.852 L186.56,208.82 L183.168,210.94 L186.56,213.696 L186.56,219.844 L182.956,217.936 L176.596,221.54 L182.108,226.204 L186.56,227.688 L186.56,230.656 L183.168,232.564 L186.56,235.32 L186.56,240.62 L251.008,240.62 L251.008,16.324 L16.112,16.324 L16.112,20.352 L29.468,93.28 L41.552,93.28 L41.552,93.28 Z M31.376,101.76 L36.676,106 L44.308,108.544 L44.308,101.76 L37.312,98.156 L31.376,101.76 L31.376,101.76 Z M44.944,101.76 L50.668,106 L58.3,108.544 L58.3,101.76 L51.092,98.156 L44.944,101.76 L44.944,101.76 Z M58.724,101.76 L64.448,106 L72.08,108.544 L72.08,101.76 L65.084,98.156 L58.724,101.76 L58.724,101.76 Z M72.716,101.76 L78.016,106 L85.648,108.544 L85.648,101.76 L78.864,98.156 L72.716,101.76 L72.716,101.76 Z M86.496,101.76 L91.796,106 L99.428,108.544 L99.428,101.76 L92.644,98.156 L86.496,101.76 L86.496,101.76 Z M100.276,101.76 L105.788,106 L113.42,108.544 L113.42,101.76 L106.636,98.156 L100.276,101.76 L100.276,101.76 Z M114.268,101.76 L119.568,106 L127.2,108.544 L127.2,101.76 L120.416,98.156 L114.268,101.76 L114.268,101.76 Z M128.048,101.76 L133.348,106 L140.98,108.544 L140.98,101.76 L133.984,98.156 L128.048,101.76 L128.048,101.76 Z M141.616,101.76 L147.34,106 L154.972,108.544 L154.972,101.76 L147.764,98.156 L141.616,101.76 L141.616,101.76 Z M155.396,101.76 L161.12,106 L168.752,108.544 L168.752,101.76 L161.756,98.156 L155.396,101.76 L155.396,101.76 Z M182.32,101.76 L175.536,98.156 L169.388,101.76 L174.688,106 L182.32,108.544 L182.32,101.76 L182.32,101.76 Z M38.372,112.784 L44.096,117.024 L51.728,119.568 L51.728,112.784 L44.732,109.18 L38.372,112.784 L38.372,112.784 Z M52.364,112.784 L57.664,117.024 L65.296,119.568 L65.296,112.784 L58.512,109.18 L52.364,112.784 L52.364,112.784 Z M66.144,112.784 L71.444,117.024 L79.076,119.568 L79.076,112.784 L72.292,109.18 L66.144,112.784 L66.144,112.784 Z M79.924,112.784 L85.436,117.024 L93.068,119.568 L93.068,112.784 L86.284,109.18 L79.924,112.784 L79.924,112.784 Z M93.916,112.784 L99.216,117.024 L106.848,119.568 L106.848,112.784 L100.064,109.18 L93.916,112.784 L93.916,112.784 Z M107.696,112.784 L112.996,117.024 L120.628,119.568 L120.628,112.784 L113.632,109.18 L107.696,112.784 L107.696,112.784 Z M121.264,112.784 L126.988,117.024 L134.62,119.568 L134.62,112.784 L127.412,109.18 L121.264,112.784 L121.264,112.784 Z M135.044,112.784 L140.768,117.024 L148.4,119.568 L148.4,112.784 L141.404,109.18 L135.044,112.784 L135.044,112.784 Z M149.036,112.784 L154.336,117.024 L161.968,119.568 L161.968,112.784 L155.184,109.18 L149.036,112.784 L149.036,112.784 Z M162.816,112.784 L168.116,117.024 L175.748,119.568 L175.748,112.784 L168.964,109.18 L162.816,112.784 L162.816,112.784 Z M36.676,128.048 L44.308,130.592 L44.308,123.596 L37.312,119.78 L31.376,123.596 L36.676,128.048 L36.676,128.048 Z M44.944,123.596 L50.668,128.048 L58.3,130.592 L58.3,123.596 L51.092,119.78 L44.944,123.596 L44.944,123.596 Z M58.724,123.596 L64.448,128.048 L72.08,130.592 L72.08,123.596 L65.084,119.78 L58.724,123.596 L58.724,123.596 Z M72.716,123.596 L78.016,128.048 L85.648,130.592 L85.648,123.596 L78.864,119.78 L72.716,123.596 L72.716,123.596 Z M86.496,123.596 L91.796,128.048 L99.428,130.592 L99.428,123.596 L92.644,119.78 L86.496,123.596 L86.496,123.596 Z M100.276,123.596 L105.788,128.048 L113.42,130.592 L113.42,123.596 L106.636,119.78 L100.276,123.596 L100.276,123.596 Z M114.268,123.596 L119.568,128.048 L127.2,130.592 L127.2,123.596 L120.416,119.78 L114.268,123.596 L114.268,123.596 Z M128.048,123.596 L133.348,128.048 L140.98,130.592 L140.98,123.596 L133.984,119.78 L128.048,123.596 L128.048,123.596 Z M141.616,123.596 L147.34,128.048 L154.972,130.592 L154.972,123.596 L147.764,119.78 L141.616,123.596 L141.616,123.596 Z M168.752,123.596 L161.756,119.78 L155.396,123.596 L161.12,128.048 L168.752,130.592 L168.752,123.596 L168.752,123.596 Z M182.32,123.596 L175.536,119.78 L169.388,123.596 L174.688,128.048 L182.32,130.592 L182.32,123.596 L182.32,123.596 Z M38.372,134.62 L44.096,138.86 L51.728,141.404 L51.728,134.62 L44.732,130.804 L38.372,134.62 L38.372,134.62 Z M52.364,134.62 L57.664,138.86 L65.296,141.404 L65.296,134.62 L58.512,130.804 L52.364,134.62 L52.364,134.62 Z M66.144,134.62 L71.444,138.86 L79.076,141.404 L79.076,134.62 L72.292,130.804 L66.144,134.62 L66.144,134.62 Z M79.924,134.62 L85.436,138.86 L93.068,141.404 L93.068,134.62 L86.284,130.804 L79.924,134.62 L79.924,134.62 Z M93.916,134.62 L99.216,138.86 L106.848,141.404 L106.848,134.62 L100.064,130.804 L93.916,134.62 L93.916,134.62 Z M107.696,134.62 L112.996,138.86 L120.628,141.404 L120.628,134.62 L113.632,130.804 L107.696,134.62 L107.696,134.62 Z M121.264,134.62 L126.988,138.86 L134.62,141.404 L134.62,134.62 L127.412,130.804 L121.264,134.62 L121.264,134.62 Z M135.044,134.62 L140.768,138.86 L148.4,141.404 L148.4,134.62 L141.404,130.804 L135.044,134.62 L135.044,134.62 Z M149.036,134.62 L154.336,138.86 L161.968,141.404 L161.968,134.62 L155.184,130.804 L149.036,134.62 L149.036,134.62 Z M162.816,134.62 L168.116,138.86 L175.748,141.404 L175.748,134.62 L168.964,130.804 L162.816,134.62 L162.816,134.62 Z M36.676,149.884 L44.308,152.428 L44.308,145.22 L37.312,141.616 L31.376,145.22 L36.676,149.884 L36.676,149.884 Z M51.092,141.616 L44.944,145.22 L50.668,149.884 L58.3,152.428 L58.3,145.22 L51.092,141.616 L51.092,141.616 Z M58.724,145.22 L64.448,149.884 L72.08,152.428 L72.08,145.22 L65.084,141.616 L58.724,145.22 L58.724,145.22 Z M72.716,145.22 L78.016,149.884 L85.648,152.428 L85.648,145.22 L78.864,141.616 L72.716,145.22 L72.716,145.22 Z M86.496,145.22 L91.796,149.884 L99.428,152.428 L99.428,145.22 L92.644,141.616 L86.496,145.22 L86.496,145.22 Z M100.276,145.22 L105.788,149.884 L113.42,152.428 L113.42,145.22 L106.636,141.616 L100.276,145.22 L100.276,145.22 Z M114.268,145.22 L119.568,149.884 L127.2,152.428 L127.2,145.22 L120.416,141.616 L114.268,145.22 L114.268,145.22 Z M128.048,145.22 L133.348,149.884 L140.98,152.428 L140.98,145.22 L133.984,141.616 L128.048,145.22 L128.048,145.22 Z M154.972,145.22 L147.764,141.616 L141.616,145.22 L147.34,149.884 L154.972,152.428 L154.972,145.22 L154.972,145.22 Z M168.752,145.22 L161.756,141.616 L155.396,145.22 L161.12,149.884 L168.752,152.428 L168.752,145.22 L168.752,145.22 Z M182.32,145.22 L175.536,141.616 L169.388,145.22 L174.688,149.884 L182.32,152.428 L182.32,145.22 L182.32,145.22 Z M44.096,160.484 L51.728,163.028 L51.728,156.244 L44.732,152.64 L38.372,156.244 L44.096,160.484 L44.096,160.484 Z M65.296,163.028 L65.296,156.244 L58.512,152.64 L52.364,156.244 L57.664,160.484 L65.296,163.028 L65.296,163.028 Z M66.144,156.244 L71.444,160.484 L79.076,163.028 L79.076,156.244 L72.292,152.64 L66.144,156.244 L66.144,156.244 Z M79.924,156.244 L85.436,160.484 L93.068,163.028 L93.068,156.244 L86.284,152.64 L79.924,156.244 L79.924,156.244 Z M93.916,156.244 L99.216,160.484 L106.848,163.028 L106.848,156.244 L100.064,152.64 L93.916,156.244 L93.916,156.244 Z M107.696,156.244 L112.996,160.484 L120.628,163.028 L120.628,156.244 L113.632,152.64 L107.696,156.244 L107.696,156.244 Z M121.264,156.244 L126.988,160.484 L134.62,163.028 L134.62,156.244 L127.412,152.64 L121.264,156.244 L121.264,156.244 Z M135.044,156.244 L140.768,160.484 L148.4,163.028 L148.4,156.244 L141.404,152.64 L135.044,156.244 L135.044,156.244 Z M149.036,156.244 L154.336,160.484 L161.968,163.028 L161.968,156.244 L155.184,152.64 L149.036,156.244 L149.036,156.244 Z M162.816,156.244 L168.116,160.484 L175.748,163.028 L175.748,156.244 L168.964,152.64 L162.816,156.244 L162.816,156.244 Z M36.676,171.508 L44.308,174.052 L44.308,167.056 L37.312,163.664 L31.376,167.056 L36.676,171.508 L36.676,171.508 Z M44.944,167.056 L50.668,171.508 L58.3,174.052 L58.3,167.056 L51.092,163.664 L44.944,167.056 L44.944,167.056 Z M65.084,163.664 L58.724,167.056 L64.448,171.508 L72.08,174.052 L72.08,167.056 L65.084,163.664 L65.084,163.664 Z M85.648,167.056 L78.864,163.664 L72.716,167.056 L78.016,171.508 L85.648,174.052 L85.648,167.056 L85.648,167.056 Z M99.428,167.056 L92.644,163.664 L86.496,167.056 L91.796,171.508 L99.428,174.052 L99.428,167.056 L99.428,167.056 Z M113.42,167.056 L106.636,163.664 L100.276,167.056 L105.788,171.508 L113.42,174.052 L113.42,167.056 L113.42,167.056 Z M127.2,167.056 L120.416,163.664 L114.268,167.056 L119.568,171.508 L127.2,174.052 L127.2,167.056 L127.2,167.056 Z M140.98,167.056 L133.984,163.664 L128.048,167.056 L133.348,171.508 L140.98,174.052 L140.98,167.056 L140.98,167.056 Z M154.972,167.056 L147.764,163.664 L141.616,167.056 L147.34,171.508 L154.972,174.052 L154.972,167.056 L154.972,167.056 Z M168.752,167.056 L161.756,163.664 L155.396,167.056 L161.12,171.508 L168.752,174.052 L168.752,167.056 L168.752,167.056 Z M182.32,167.056 L175.536,163.664 L169.388,167.056 L174.688,171.508 L182.32,174.052 L182.32,167.056 L182.32,167.056 Z M44.096,182.32 L51.728,184.864 L51.728,178.08 L44.732,174.476 L38.372,178.08 L44.096,182.32 L44.096,182.32 Z M65.296,184.864 L65.296,178.08 L58.512,174.476 L52.364,178.08 L57.664,182.32 L65.296,184.864 L65.296,184.864 Z M79.076,184.864 L79.076,178.08 L72.292,174.476 L66.144,178.08 L71.444,182.32 L79.076,184.864 L79.076,184.864 Z M93.068,184.864 L93.068,178.08 L86.284,174.476 L79.924,178.08 L85.436,182.32 L93.068,184.864 L93.068,184.864 Z M106.848,184.864 L106.848,178.08 L100.064,174.476 L93.916,178.08 L99.216,182.32 L106.848,184.864 L106.848,184.864 Z M120.628,184.864 L120.628,178.08 L113.632,174.476 L107.696,178.08 L112.996,182.32 L120.628,184.864 L120.628,184.864 Z M134.62,184.864 L134.62,178.08 L127.412,174.476 L121.264,178.08 L126.988,182.32 L134.62,184.864 L134.62,184.864 Z M148.4,184.864 L148.4,178.08 L141.404,174.476 L135.044,178.08 L140.768,182.32 L148.4,184.864 L148.4,184.864 Z M149.036,178.08 L154.336,182.32 L161.968,184.864 L161.968,178.08 L155.184,174.476 L149.036,178.08 L149.036,178.08 Z M162.816,178.08 L168.116,182.32 L175.748,184.864 L175.748,178.08 L168.964,174.476 L162.816,178.08 L162.816,178.08 Z M36.676,193.344 L44.308,195.888 L44.308,189.104 L37.312,185.5 L31.376,189.104 L36.676,193.344 L36.676,193.344 Z M44.944,189.104 L50.668,193.344 L58.3,195.888 L58.3,189.104 L51.092,185.5 L44.944,189.104 L44.944,189.104 Z M72.08,189.104 L65.084,185.5 L58.724,189.104 L64.448,193.344 L72.08,195.888 L72.08,189.104 L72.08,189.104 Z M85.648,189.104 L78.864,185.5 L72.716,189.104 L78.016,193.344 L85.648,195.888 L85.648,189.104 L85.648,189.104 Z M99.428,189.104 L92.644,185.5 L86.496,189.104 L91.796,193.344 L99.428,195.888 L99.428,189.104 L99.428,189.104 Z M113.42,189.104 L106.636,185.5 L100.276,189.104 L105.788,193.344 L113.42,195.888 L113.42,189.104 L113.42,189.104 Z M127.2,189.104 L120.416,185.5 L114.268,189.104 L119.568,193.344 L127.2,195.888 L127.2,189.104 L127.2,189.104 Z M140.98,189.104 L133.984,185.5 L128.048,189.104 L133.348,193.344 L140.98,195.888 L140.98,189.104 L140.98,189.104 Z M154.972,189.104 L147.764,185.5 L141.616,189.104 L147.34,193.344 L154.972,195.888 L154.972,189.104 L154.972,189.104 Z M168.752,189.104 L161.756,185.5 L155.396,189.104 L161.12,193.344 L168.752,195.888 L168.752,189.104 L168.752,189.104 Z M182.32,189.104 L175.536,185.5 L169.388,189.104 L174.688,193.344 L182.32,195.888 L182.32,189.104 L182.32,189.104 Z M44.096,204.368 L51.728,206.912 L51.728,199.916 L44.732,196.1 L38.372,199.916 L44.096,204.368 L44.096,204.368 Z M65.296,206.912 L65.296,199.916 L58.512,196.1 L52.364,199.916 L57.664,204.368 L65.296,206.912 L65.296,206.912 Z M79.076,206.912 L79.076,199.916 L72.292,196.1 L66.144,199.916 L71.444,204.368 L79.076,206.912 L79.076,206.912 Z M93.068,206.912 L93.068,199.916 L86.284,196.1 L79.924,199.916 L85.436,204.368 L93.068,206.912 L93.068,206.912 Z M106.848,206.912 L106.848,199.916 L100.064,196.1 L93.916,199.916 L99.216,204.368 L106.848,206.912 L106.848,206.912 Z M120.628,206.912 L120.628,199.916 L113.632,196.1 L107.696,199.916 L112.996,204.368 L120.628,206.912 L120.628,206.912 Z M134.62,206.912 L134.62,199.916 L127.412,196.1 L121.264,199.916 L126.988,204.368 L134.62,206.912 L134.62,206.912 Z M148.4,206.912 L148.4,199.916 L141.404,196.1 L135.044,199.916 L140.768,204.368 L148.4,206.912 L148.4,206.912 Z M161.968,206.912 L161.968,199.916 L155.184,196.1 L149.036,199.916 L154.336,204.368 L161.968,206.912 L161.968,206.912 Z M162.816,199.916 L168.116,204.368 L175.748,206.912 L175.748,199.916 L168.964,196.1 L162.816,199.916 L162.816,199.916 Z M36.676,215.18 L44.308,217.724 L44.308,210.94 L37.312,207.124 L31.376,210.94 L36.676,215.18 L36.676,215.18 Z M58.3,210.94 L51.092,207.124 L44.944,210.94 L50.668,215.18 L58.3,217.724 L58.3,210.94 L58.3,210.94 Z M72.08,210.94 L65.084,207.124 L58.724,210.94 L64.448,215.18 L72.08,217.724 L72.08,210.94 L72.08,210.94 Z M85.648,210.94 L78.864,207.124 L72.716,210.94 L78.016,215.18 L85.648,217.724 L85.648,210.94 L85.648,210.94 Z M99.428,210.94 L92.644,207.124 L86.496,210.94 L91.796,215.18 L99.428,217.724 L99.428,210.94 L99.428,210.94 Z M113.42,210.94 L106.636,207.124 L100.276,210.94 L105.788,215.18 L113.42,217.724 L113.42,210.94 L113.42,210.94 Z M127.2,210.94 L120.416,207.124 L114.268,210.94 L119.568,215.18 L127.2,217.724 L127.2,210.94 L127.2,210.94 Z M140.98,210.94 L133.984,207.124 L128.048,210.94 L133.348,215.18 L140.98,217.724 L140.98,210.94 L140.98,210.94 Z M154.972,210.94 L147.764,207.124 L141.616,210.94 L147.34,215.18 L154.972,217.724 L154.972,210.94 L154.972,210.94 Z M168.752,210.94 L161.756,207.124 L155.396,210.94 L161.12,215.18 L168.752,217.724 L168.752,210.94 L168.752,210.94 Z M182.32,210.94 L175.536,207.124 L169.388,210.94 L174.688,215.18 L182.32,217.724 L182.32,210.94 L182.32,210.94 Z M38.372,221.54 L44.096,226.204 L51.728,228.748 L51.728,221.54 L44.732,217.936 L38.372,221.54 L38.372,221.54 Z M65.296,228.748 L65.296,221.54 L58.512,217.936 L52.364,221.54 L57.664,226.204 L65.296,228.748 L65.296,228.748 Z M79.076,228.748 L79.076,221.54 L72.292,217.936 L66.144,221.54 L71.444,226.204 L79.076,228.748 L79.076,228.748 Z M93.068,228.748 L93.068,221.54 L86.284,217.936 L79.924,221.54 L85.436,226.204 L93.068,228.748 L93.068,228.748 Z M106.848,228.748 L106.848,221.54 L100.064,217.936 L93.916,221.54 L99.216,226.204 L106.848,228.748 L106.848,228.748 Z M120.628,228.748 L120.628,221.54 L113.632,217.936 L107.696,221.54 L112.996,226.204 L120.628,228.748 L120.628,228.748 Z M134.62,228.748 L134.62,221.54 L127.412,217.936 L121.264,221.54 L126.988,226.204 L134.62,228.748 L134.62,228.748 Z M148.4,228.748 L148.4,221.54 L141.404,217.936 L135.044,221.54 L140.768,226.204 L148.4,228.748 L148.4,228.748 Z M161.968,228.748 L161.968,221.54 L155.184,217.936 L149.036,221.54 L154.336,226.204 L161.968,228.748 L161.968,228.748 Z M175.748,228.748 L175.748,221.54 L168.964,217.936 L162.816,221.54 L168.116,226.204 L175.748,228.748 L175.748,228.748 Z M31.376,232.564 L36.676,236.804 L44.308,239.348 L44.308,232.564 L37.312,228.96 L31.376,232.564 L31.376,232.564 Z M44.944,232.564 L50.668,236.804 L58.3,239.348 L58.3,232.564 L51.092,228.96 L44.944,232.564 L44.944,232.564 Z M58.724,232.564 L64.448,236.804 L72.08,239.348 L72.08,232.564 L65.084,228.96 L58.724,232.564 L58.724,232.564 Z M72.716,232.564 L78.016,236.804 L85.648,239.348 L85.648,232.564 L78.864,228.96 L72.716,232.564 L72.716,232.564 Z M86.496,232.564 L91.796,236.804 L99.428,239.348 L99.428,232.564 L92.644,228.96 L86.496,232.564 L86.496,232.564 Z M100.276,232.564 L105.788,236.804 L113.42,239.348 L113.42,232.564 L106.636,228.96 L100.276,232.564 L100.276,232.564 Z M114.268,232.564 L119.568,236.804 L127.2,239.348 L127.2,232.564 L120.416,228.96 L114.268,232.564 L114.268,232.564 Z M128.048,232.564 L133.348,236.804 L140.98,239.348 L140.98,232.564 L133.984,228.96 L128.048,232.564 L128.048,232.564 Z M141.616,232.564 L147.34,236.804 L154.972,239.348 L154.972,232.564 L147.764,228.96 L141.616,232.564 L141.616,232.564 Z M155.396,232.564 L161.12,236.804 L168.752,239.348 L168.752,232.564 L161.756,228.96 L155.396,232.564 L155.396,232.564 Z M169.388,232.564 L174.688,236.804 L182.32,239.348 L182.32,232.564 L175.536,228.96 L169.388,232.564 L169.388,232.564 Z" id="p"></path>
                    </g>
                </g>
            </g>
        </g>
    </g>
</svg>