<?xml version="1.0" encoding="UTF-8" standalone="no"?>
<svg width="150px" height="255px" viewBox="0 0 150 255" version="1.1" xmlns="http://www.w3.org/2000/svg" xmlns:xlink="http://www.w3.org/1999/xlink" xmlns:sketch="http://www.bohemiancoding.com/sketch/ns">
    <!-- Generator: Sketch 3.4.2 (15857) - http://www.bohemiancoding.com/sketch -->
    <title>r</title>
    <desc>Created with Sketch.</desc>
    <defs></defs>
    <g id="Page-1" stroke="none" stroke-width="1" fill="none" fill-rule="evenodd" sketch:type="MSPage">
        <g id="r-" sketch:type="MSLayerGroup" fill="#FFCE3A">
            <g id="r" sketch:type="MSShapeGroup">
                <g id="Page-1">
                    <g id="Group">
                        <path d="M4.028,2.27373675e-13 L0,2.27373675e-13 L0,59.36 L1.06,59.36 L1.06,195.04 L0,195.04 L0,254.4 L4.028,254.4 L4.028,195.04 L26.288,175.748 L26.288,78.652 L4.028,59.36 L4.028,2.27373675e-13 L4.028,2.27373675e-13 Z M149.036,59.36 L149.036,2.27373675e-13 L145.008,2.27373675e-13 L145.008,59.36 L122.324,78.652 L122.324,175.748 L145.008,195.04 L145.008,254.4 L149.036,254.4 L149.036,195.04 L147.764,195.04 L147.764,59.36 L149.036,59.36 L149.036,59.36 Z M29.044,175.748 L119.78,175.748 L119.78,78.652 L29.044,78.652 L29.044,175.748 L29.044,175.748 Z" id="r"></path>
                    </g>
                </g>
            </g>
        </g>
    </g>
</svg>