<?xml version="1.0" encoding="UTF-8" standalone="no"?>
<svg width="418px" height="249px" viewBox="0 0 418 249" version="1.1" xmlns="http://www.w3.org/2000/svg" xmlns:xlink="http://www.w3.org/1999/xlink" xmlns:sketch="http://www.bohemiancoding.com/sketch/ns">
    <!-- Generator: Sketch 3.4.2 (15857) - http://www.bohemiancoding.com/sketch -->
    <title>s</title>
    <desc>Created with Sketch.</desc>
    <defs></defs>
    <g id="Page-1" stroke="none" stroke-width="1" fill="none" fill-rule="evenodd" sketch:type="MSPage">
        <g id="s-" sketch:type="MSLayerGroup" fill="#FFCE3A">
            <g id="s" sketch:type="MSShapeGroup">
                <g id="Page-1">
                    <g id="Group">
                        <path d="M74.14,0.22 L73.7,-1.42108547e-14 L73.7,0.22 L73.04,0.22 L73.7,0.66 L73.7,115.94 L78.1,113.3 L78.1,3.52 L83.38,6.82 L83.38,110.88 L88,108.24 L88,9.68 L92.62,12.54 L92.62,105.82 L96.8,103.18 L96.8,15.18 L101.86,18.48 L101.86,101.2 L105.82,97.9 L105.82,20.9 L110.88,24.2 L110.88,96.14 L115.06,93.28 L115.06,26.84 L119.68,29.7 L119.68,91.3 L123.86,88.22 L123.86,32.34 L127.82,34.76 L127.82,86.02 L131.12,84.48 L131.12,36.74 L204.38,0.22 L74.14,0.22 L74.14,0.22 Z M417.34,0.22 L287.1,0.22 L286.66,-1.42108547e-14 L286.66,0.22 L286.22,0.22 L286.66,0.44 L286.66,115.94 L291.28,113.3 L291.28,3.52 L296.56,6.82 L296.56,110.88 L300.96,108.24 L300.96,9.46 L306.02,12.76 L306.02,105.82 L309.98,103.18 L309.98,15.18 L315.04,18.48 L315.04,101.2 L319.22,97.9 L319.22,21.12 L323.84,23.98 L323.84,96.14 L328.24,93.28 L328.24,26.84 L332.64,29.48 L332.64,91.3 L336.82,88.22 L336.82,32.12 L340.78,34.76 L340.78,86.02 L344.3,84.48 L344.3,36.74 L417.34,0.22 L417.34,0.22 Z M-4.54747351e-13,132.88 L-4.54747351e-13,248.16 L5.06,246.4 L5.06,135.52 L9.46,137.5 L9.46,244.64 L14.08,242.66 L14.08,139.7 L12.54,138.82 L18.7,141.68 L18.7,241.12 L23.54,238.7 L23.54,143.88 L27.94,146.08 L27.94,237.38 L32.56,234.96 L32.56,148.06 L37.18,150.26 L37.18,233.42 L42.02,231.44 L42.02,152.46 L46.42,154.44 L46.42,229.9 L51.04,227.92 L51.04,156.64 L55.66,158.84 L55.66,226.16 L60.5,224.18 L60.5,161.04 L65.12,163.24 L65.12,222.64 L69.74,220.22 L69.74,165.22 L73.7,167.2 L73.7,218.9 L77.66,216.7 L77.66,168.96 L131.12,133.1 L0.66,133.1 L-4.54747351e-13,132.88 L-4.54747351e-13,132.88 Z M212.74,132.88 L212.74,248.16 L217.58,246.4 L217.58,135.3 L221.98,137.28 L221.98,244.64 L226.82,242.66 L226.82,139.7 L224.18,138.38 L231.44,141.68 L231.44,241.12 L236.06,238.7 L236.06,143.88 L240.46,145.86 L240.46,237.38 L245.3,234.96 L245.3,148.06 L249.92,150.26 L249.92,233.42 L254.54,231.44 L254.54,152.46 L258.94,154.44 L258.94,229.9 L263.78,227.92 L263.78,156.64 L268.4,158.84 L268.4,226.16 L273.02,224.18 L273.02,161.04 L278.08,163.24 L278.08,222.64 L282.48,220.22 L282.48,165.22 L286.22,166.98 L286.22,218.9 L290.4,216.7 L290.4,168.96 L344.08,133.1 L213.18,133.1 L212.74,132.88 L212.74,132.88 Z" id="s"></path>
                    </g>
                </g>
            </g>
        </g>
    </g>
</svg>