<?xml version="1.0" encoding="UTF-8" standalone="no"?>
<svg width="218px" height="266px" viewBox="0 0 218 266" version="1.1" xmlns="http://www.w3.org/2000/svg" xmlns:xlink="http://www.w3.org/1999/xlink" xmlns:sketch="http://www.bohemiancoding.com/sketch/ns">
    <!-- Generator: Sketch 3.4.2 (15857) - http://www.bohemiancoding.com/sketch -->
    <title>t</title>
    <desc>Created with Sketch.</desc>
    <defs></defs>
    <g id="Page-1" stroke="none" stroke-width="1" fill="none" fill-rule="evenodd" sketch:type="MSPage">
        <g id="t-" sketch:type="MSLayerGroup" fill="#FFCE3A">
            <g id="t" sketch:type="MSShapeGroup">
                <g id="Page-1">
                    <g id="Group">
                        <path d="M0,265.54 L0,0 L217.36,0 L217.36,265.54 L0,265.54 L0,265.54 Z M108.24,64.02 L108.24,1.54 L81.62,3.3 L55.22,38.72 L27.5,3.3 L1.54,1.54 L1.54,64.68 C28.16,54.34 45.98,48.18 55.22,46.2 C63.14,47.96 84.04,55 97.9,60.06 L108.24,64.02 L108.24,64.02 Z M215.6,64.9 L215.6,1.54 L188.32,2.64 L162.58,36.74 L136.4,2.64 L109.12,1.54 L109.12,64.68 C135.52,74.36 153.34,80.3 162.58,82.28 C170.72,80.52 192.06,73.48 205.48,68.42 L215.6,64.9 L215.6,64.9 Z M11.88,62.92 L1.54,67.32 L1.54,132.44 L27.5,130.68 L55.22,94.16 L81.84,130.68 L108.24,132.44 L108.24,67.76 C81.62,56.1 64.02,49.28 55.22,47.52 C47.08,49.06 25.74,56.98 11.88,62.92 L11.88,62.92 L11.88,62.92 Z M120.12,74.58 L109.12,68.42 L109.12,132.44 L136.4,131.78 L162.58,96.36 L188.32,131.78 L215.6,132.44 L215.6,67.76 C187.22,84.48 169.62,92.84 162.58,92.84 C156.42,92.84 135.08,82.72 120.12,74.58 L120.12,74.58 L120.12,74.58 Z M108.24,197.78 L108.24,133.32 L81.84,135.08 L55.22,170.72 L27.5,135.08 L1.54,133.32 L1.54,197.12 C28.16,186.34 45.98,179.96 55.22,178.2 C63.14,179.74 84.04,187.88 97.9,193.38 L108.24,197.78 L108.24,197.78 Z M215.6,197.78 L215.6,133.32 L188.32,133.76 L162.58,168.96 L136.4,133.76 L109.12,133.32 L109.12,198 C135.52,208.34 153.34,214.28 162.58,215.6 C170.72,214.5 192.06,207.02 205.48,201.74 L215.6,197.78 L215.6,197.78 Z M11.88,195.14 L1.54,199.54 L1.54,264 L27.5,262.02 L55.22,226.82 L81.62,262.02 L108.24,264 L108.24,201.3 C81.62,188.76 64.02,181.5 55.22,179.52 C47.08,181.28 25.74,189.64 11.88,195.14 L11.88,195.14 L11.88,195.14 Z M120.12,207.9 L109.12,201.96 L109.12,264 L136.4,262.9 L162.58,228.8 L188.32,262.9 L215.6,264 L215.6,200.42 C187.44,217.58 169.84,226.16 162.58,226.16 C156.2,226.16 134.42,216.04 120.12,207.9 L120.12,207.9 L120.12,207.9 Z" id="t"></path>
                    </g>
                </g>
            </g>
        </g>
    </g>
</svg>