<?xml version="1.0" encoding="UTF-8" standalone="no"?>
<svg width="283px" height="255px" viewBox="0 0 283 255" version="1.1" xmlns="http://www.w3.org/2000/svg" xmlns:xlink="http://www.w3.org/1999/xlink" xmlns:sketch="http://www.bohemiancoding.com/sketch/ns">
    <!-- Generator: Sketch 3.4.2 (15857) - http://www.bohemiancoding.com/sketch -->
    <title>u </title>
    <desc>Created with Sketch.</desc>
    <defs></defs>
    <g id="Page-1" stroke="none" stroke-width="1" fill="none" fill-rule="evenodd" sketch:type="MSPage">
        <g id="u-" sketch:type="MSLayerGroup" fill-opacity="0.504670516" fill="#FFC107">
            <g id="u" sketch:type="MSShapeGroup">
                <g id="Page-1">
                    <g id="Group">
                        <path d="M282.596,1.06 L280.052,1.42108547e-14 L280.052,25.652 L254.4,25.652 L254.4,1.06 L251.856,1.42108547e-14 L251.856,25.652 L226.204,25.652 L226.204,1.06 L223.66,1.42108547e-14 L223.66,25.652 L197.584,25.652 L197.584,1.06 L195.676,1.42108547e-14 L195.676,25.652 L169.6,25.652 L169.6,1.06 L167.056,1.42108547e-14 L167.056,25.652 L141.404,25.652 L141.404,1.06 L138.86,1.42108547e-14 L138.86,25.652 L112.996,25.652 L112.996,1.06 L110.452,1.42108547e-14 L110.452,25.652 L84.8,25.652 L84.8,1.06 L82.256,1.42108547e-14 L82.256,25.652 L56.816,25.652 L56.816,1.06 L54.272,1.42108547e-14 L54.272,25.652 L28.196,25.652 L28.196,1.06 L25.652,1.42108547e-14 L25.652,25.652 L0,25.652 L0,28.196 L28.196,28.196 L28.196,29.468 L25.652,28.196 L25.652,54.272 L0,54.272 L0,56.816 L28.196,56.816 L28.196,57.664 L25.652,56.816 L25.652,82.256 L0,82.256 L0,84.8 L28.196,84.8 L28.196,86.284 L25.652,84.8 L25.652,110.452 L0,110.452 L0,112.996 L28.196,112.996 L28.196,114.48 L25.652,112.996 L25.652,138.86 L0,138.86 L0,226.204 L282.596,226.204 L282.596,199.28 L280.052,197.584 L280.052,223.66 L254.4,223.66 L254.4,199.28 L251.856,197.584 L251.856,223.66 L226.204,223.66 L226.204,199.28 L223.66,197.584 L223.66,223.66 L197.584,223.66 L197.584,199.28 L195.676,197.584 L195.676,223.66 L169.6,223.66 L169.6,199.28 L167.056,197.584 L167.056,223.66 L141.404,223.66 L141.404,199.28 L138.86,197.584 L138.86,223.66 L112.996,223.66 L112.996,199.28 L110.452,197.584 L110.452,223.66 L84.8,223.66 L84.8,197.584 L282.596,197.584 L282.596,170.66 L280.052,169.6 L280.052,195.676 L254.4,195.676 L254.4,170.66 L251.856,169.6 L251.856,195.676 L226.204,195.676 L226.204,170.66 L223.66,169.6 L223.66,195.676 L197.584,195.676 L197.584,170.66 L195.676,169.6 L195.676,195.676 L169.6,195.676 L169.6,170.66 L167.056,169.6 L167.056,195.676 L141.404,195.676 L141.404,170.66 L138.86,169.6 L138.86,195.676 L112.996,195.676 L112.996,170.66 L110.452,169.6 L110.452,195.676 L84.8,195.676 L84.8,169.6 L282.596,169.6 L282.596,142.464 L280.052,141.404 L280.052,167.056 L254.4,167.056 L254.4,142.464 L251.856,141.404 L251.856,167.056 L226.204,167.056 L226.204,142.464 L223.66,141.404 L223.66,167.056 L197.584,167.056 L197.584,142.464 L195.676,141.404 L195.676,167.056 L169.6,167.056 L169.6,142.464 L167.056,141.404 L167.056,167.056 L141.404,167.056 L141.404,142.464 L138.86,141.404 L138.86,167.056 L112.996,167.056 L112.996,142.464 L110.452,141.404 L110.452,167.056 L84.8,167.056 L84.8,141.404 L282.596,141.404 L282.596,114.48 L280.052,112.996 L280.052,138.86 L254.4,138.86 L254.4,112.996 L282.596,112.996 L282.596,86.284 L280.052,84.8 L280.052,110.452 L254.4,110.452 L254.4,84.8 L282.596,84.8 L282.596,57.664 L280.052,56.816 L280.052,82.256 L254.4,82.256 L254.4,56.816 L282.596,56.816 L282.596,29.468 L280.052,28.196 L280.052,54.272 L254.4,54.272 L254.4,28.196 L282.596,28.196 L282.596,1.06 L282.596,1.06 Z M254.4,251.856 L254.4,227.476 L251.856,226.204 L251.856,251.856 L226.204,251.856 L226.204,227.476 L223.66,226.204 L223.66,251.856 L197.584,251.856 L197.584,227.476 L195.676,226.204 L195.676,251.856 L169.6,251.856 L169.6,227.476 L167.056,226.204 L167.056,251.856 L141.404,251.856 L141.404,227.476 L138.86,226.204 L138.86,251.856 L112.996,251.856 L112.996,227.476 L110.452,226.204 L110.452,251.856 L84.8,251.856 L84.8,227.476 L82.256,226.204 L82.256,251.856 L56.816,251.856 L56.816,227.476 L54.272,226.204 L54.272,251.856 L28.196,251.856 L28.196,227.476 L25.652,226.204 L25.652,251.856 L0,251.856 L0,254.4 L282.596,254.4 L282.596,227.476 L280.052,226.204 L280.052,251.856 L254.4,251.856 L254.4,251.856 Z" id="u"></path>
                    </g>
                </g>
            </g>
        </g>
    </g>
</svg>