<?xml version="1.0" encoding="UTF-8" standalone="no"?>
<svg width="331px" height="255px" viewBox="0 0 331 255" version="1.1" xmlns="http://www.w3.org/2000/svg" xmlns:xlink="http://www.w3.org/1999/xlink" xmlns:sketch="http://www.bohemiancoding.com/sketch/ns">
    <!-- Generator: Sketch 3.4.2 (15857) - http://www.bohemiancoding.com/sketch -->
    <title>v </title>
    <desc>Created with Sketch.</desc>
    <defs></defs>
    <g id="Page-1" stroke="none" stroke-width="1" fill="none" fill-rule="evenodd" sketch:type="MSPage">
        <g id="v-" sketch:type="MSLayerGroup" fill-opacity="0.504670516" fill="#FFC107">
            <g id="v" sketch:type="MSShapeGroup">
                <g id="Page-1">
                    <g id="Group">
                        <path d="M330.508,254.4 L321.604,254.4 L321.604,-1.13686838e-13 L330.508,-1.13686838e-13 L330.508,254.4 L330.508,254.4 Z M36.464,252.492 L0,234.048 L0,20.352 L36.464,1.696 L72.716,20.352 L72.716,234.048 L36.464,252.492 L36.464,252.492 Z M116.812,252.492 L80.348,234.048 L80.348,20.352 L116.812,1.696 L152.852,20.352 L152.852,234.048 L116.812,252.492 L116.812,252.492 Z M196.948,252.492 L160.484,234.048 L160.484,20.352 L196.948,1.696 L233.2,20.352 L233.2,234.048 L196.948,252.492 L196.948,252.492 Z M277.296,252.492 L240.832,234.048 L240.832,20.352 L277.296,1.696 L313.76,20.352 L313.76,234.048 L277.296,252.492 L277.296,252.492 Z" id="v"></path>
                    </g>
                </g>
            </g>
        </g>
    </g>
</svg>