<?xml version="1.0" encoding="UTF-8" standalone="no"?>
<svg width="244px" height="244px" viewBox="0 0 244 244" version="1.1" xmlns="http://www.w3.org/2000/svg" xmlns:xlink="http://www.w3.org/1999/xlink" xmlns:sketch="http://www.bohemiancoding.com/sketch/ns">
    <!-- Generator: Sketch 3.4.2 (15857) - http://www.bohemiancoding.com/sketch -->
    <title>Versalien_F</title>
    <desc>Created with Sketch.</desc>
    <defs></defs>
    <g id="Page-1" stroke="none" stroke-width="1" fill="none" fill-rule="evenodd" sketch:type="MSPage">
        <g id="Versalien_F_ALT" sketch:type="MSLayerGroup" fill="#FFCE3A">
            <g id="Page-1" sketch:type="MSShapeGroup">
                <g>
                    <path d="M119.447171,119.474272 L0,119.474272 L0,114.496178 L114.46155,0 L119.447171,1.65936489 L119.447171,119.474272 L119.447171,119.474272 Z M0,0.207420612 L57.5423762,0.207420612 L0,57.2480888 L0,0.207420612 L0,0.207420612 Z M243.464494,119.474272 L124.432792,119.474272 L124.432792,114.496178 L181.767434,114.496178 L124.432792,57.2480888 L124.432792,0.207420612 L238.478873,114.496178 L238.478873,57.2480888 L181.767434,0.207420612 L238.478873,0.207420612 L243.464494,2.28162673 L243.464494,119.474272 L243.464494,119.474272 Z M114.46155,57.4555094 L57.334642,114.496178 L114.46155,114.496178 L114.46155,57.4555094 L114.46155,57.4555094 Z M57.334642,124.659788 L114.46155,124.659788 L119.447171,126.111732 L119.447171,243.926639 L0,243.926639 L0,238.948545 L57.334642,238.948545 L0,181.700456 L0,124.659788 L114.46155,238.948545 L114.46155,181.907876 L57.334642,124.659788 L57.334642,124.659788 Z M124.432792,124.659788 L181.144231,124.659788 L124.432792,181.907876 L124.432792,124.659788 L124.432792,124.659788 Z M124.432792,238.948545 L238.478873,124.659788 L243.464494,126.733994 L243.464494,243.926639 L124.432792,243.926639 L124.432792,238.948545 L124.432792,238.948545 Z M181.767434,238.948545 L238.478873,238.948545 L238.478873,181.700456 L181.767434,238.948545 L181.767434,238.948545 Z" id="Versalien_F"></path>
                </g>
            </g>
        </g>
    </g>
</svg>