<?xml version="1.0" encoding="UTF-8" standalone="no"?>
<svg width="244px" height="244px" viewBox="0 0 244 244" version="1.1" xmlns="http://www.w3.org/2000/svg" xmlns:xlink="http://www.w3.org/1999/xlink" xmlns:sketch="http://www.bohemiancoding.com/sketch/ns">
    <!-- Generator: Sketch 3.4.2 (15857) - http://www.bohemiancoding.com/sketch -->
    <title>Versalien_B</title>
    <desc>Created with Sketch.</desc>
    <defs></defs>
    <g id="Page-1" stroke="none" stroke-width="1" fill="none" fill-rule="evenodd" sketch:type="MSPage">
        <g id="Versalien_B_ALT" sketch:type="MSLayerGroup" fill="#FFCE3A">
            <g id="Page-1" sketch:type="MSShapeGroup">
                <g>
                    <path d="M78.7312656,38.995075 C71.0450999,52.6848353 65.0208078,69.2784843 62.320263,80.8940385 C59.6197183,92.5095928 57.7501104,105.369671 57.5423762,109.518083 C57.334642,111.79971 57.334642,113.251654 57.334642,114.288757 C57.5423762,113.251654 57.9578446,110.970027 58.9965157,107.651297 C60.8661236,101.221258 66.8904157,88.7760218 74.9920499,78.6124118 C83.093684,68.6562224 97.842813,58.9074537 114.46155,57.0406682 L114.46155,114.288757 L57.334642,114.288757 L57.1269078,0 L56.9191736,0.207420612 C54.4263631,2.48904734 51.7258183,5.18551529 49.0252736,7.88198324 C43.4164499,13.6897604 27.8363842,32.9798772 18.4883447,49.3661056 C9.14030525,65.9597545 0,91.8873309 0,114.288757 L0,119.266852 L119.447171,119.266852 L119.447171,2.07420612 L114.46155,0 C99.2969526,10.16361 86.4174314,25.3053146 78.7312656,38.995075 L78.7312656,38.995075 L78.7312656,38.995075 Z M0,57.0406682 C5.60882368,43.5583284 17.0342052,29.4537268 26.3822447,21.1569024 C35.5225499,13.0674985 48.402071,4.77067407 52.5567552,2.48904734 L57.1269078,0 L0,0 L0,57.0406682 L0,57.0406682 Z M238.478874,0 C238.271139,2.48904734 238.063405,5.80777712 237.647937,9.74876874 C236.609266,18.0455932 231.41591,37.7505513 223.937479,55.1738827 C216.459047,72.5972141 201.086716,96.2431638 181.767434,114.288757 C183.637042,113.459075 186.753055,111.79971 190.90774,109.103242 C194.85469,106.406774 200.255779,102.673203 206.695539,97.9025287 C219.782795,88.3611805 232.87005,72.5972141 238.478874,57.0406682 L238.478874,114.288757 L181.767434,114.288757 C191.946411,88.3611805 195.270158,60.5668186 193.816018,43.9731697 C192.361879,27.5869413 186.96079,9.74876874 184.675713,5.18551529 C183.429308,2.90388856 182.390637,1.24452367 181.767434,0 L181.144232,8.29682446 C180.313295,19.2901169 175.743142,38.5802338 168.472445,58.2851919 C160.994013,78.1975706 144.998479,101.013838 124.432792,114.288757 L124.432792,119.266852 L243.464495,119.266852 L243.464495,2.07420612 L238.478874,0 L238.478874,0 Z M124.432792,57.0406682 C131.911224,56.0035651 138.766453,53.7219384 145.206213,50.195788 C157.670266,43.5583284 165.356432,35.261504 171.588458,25.097894 C177.820484,14.934284 180.105561,7.25972141 181.767434,0 L124.432792,0 L124.432792,57.0406682 L124.432792,57.0406682 Z M113.422879,134.408556 C112.384208,140.838595 106.983119,163.240021 99.5046866,179.83367 C92.0262551,196.427319 76.4461893,220.695531 57.334642,238.741124 L62.9434657,235.629815 C68.1368209,232.725926 79.9776709,224.636522 89.3257104,216.339698 C98.6737498,208.042873 109.475929,194.560534 114.46155,181.493035 L114.46155,238.741124 L57.334642,238.741124 C67.5136183,212.813547 70.8373657,185.019186 69.3832262,168.425537 C67.9290867,152.039308 62.5279972,134.201136 60.2429209,129.637882 C58.9965157,127.356256 57.9578446,125.696891 57.334642,124.452367 L56.7114394,132.749191 C55.8805025,143.742484 51.3103499,163.032601 44.0396525,182.737559 C36.561221,202.649938 20.5656868,225.466205 0,238.741124 L0,243.719219 L119.447171,243.719219 L119.447171,126.526573 L114.46155,124.452367 C114.253816,127.978517 113.838348,131.297247 113.422879,134.408556 L113.422879,134.408556 L113.422879,134.408556 Z M0,181.700456 C18.2806105,179.003988 33.652942,168.840378 42.1700447,156.395141 C50.6871473,144.157325 55.4650341,133.786294 57.334642,124.452367 L0,124.452367 L0,181.700456 L0,181.700456 Z M194.439221,180.663353 C187.168524,198.916367 182.806105,221.940054 182.182903,229.822038 C181.975168,233.763029 181.767434,236.874338 181.767434,238.741124 C181.975168,237.28918 182.598371,235.214974 183.637042,232.103664 C185.298916,226.295887 191.738676,213.020968 199.424842,203.064779 C207.111008,193.108589 221.860137,183.359821 238.478874,181.493035 L238.478874,238.741124 L181.767434,238.741124 C171.796192,219.451007 168.472445,194.767954 169.71885,177.137202 C170.965255,159.713871 175.950876,140.008913 178.651421,132.541771 C179.897826,129.01562 180.936497,126.319152 181.767434,124.452367 C180.313295,125.696891 178.235953,127.771097 175.11994,130.882406 C169.095647,136.897604 154.138784,154.943197 144.167542,172.159108 C133.988566,189.375018 124.432792,215.510015 124.432792,238.741124 L124.432792,243.719219 L243.464495,243.719219 L243.464495,126.526573 L238.478874,124.452367 C217.705453,138.556969 201.709918,162.410339 194.439221,180.663353 L194.439221,180.663353 L194.439221,180.663353 Z M124.432792,181.493035 C129.626148,168.010695 141.259263,153.906094 150.607303,145.609269 C159.955342,137.519865 173.042597,129.223041 177.197282,126.941414 L181.767434,124.452367 L124.432792,124.452367 L124.432792,181.493035 L124.432792,181.493035 Z" id="Versalien_B"></path>
                </g>
            </g>
        </g>
    </g>
</svg>