<?xml version="1.0" encoding="UTF-8" standalone="no"?>
<svg width="244px" height="244px" viewBox="0 0 244 244" version="1.1" xmlns="http://www.w3.org/2000/svg" xmlns:xlink="http://www.w3.org/1999/xlink" xmlns:sketch="http://www.bohemiancoding.com/sketch/ns">
    <!-- Generator: Sketch 3.4.2 (15857) - http://www.bohemiancoding.com/sketch -->
    <title>Versalien_C</title>
    <desc>Created with Sketch.</desc>
    <defs></defs>
    <g id="Page-1" stroke="none" stroke-width="1" fill="none" fill-rule="evenodd" sketch:type="MSPage">
        <g id="Versalien_C_ALT" sketch:type="MSLayerGroup" fill="#FFCE3A">
            <g id="Page-1" sketch:type="MSShapeGroup">
                <g>
                    <path d="M57.1269078,0 L-3.55271368e-15,0 L-3.55271368e-15,57.0406682 L7.89389998,47.7067407 C18.4883447,35.261504 40.3004368,13.0674985 57.1269078,0 L57.1269078,0 L57.1269078,0 Z M51.3103499,21.5717436 C33.8606762,31.527933 12.879521,46.462217 7.06296314,51.2328911 C3.94694999,53.7219384 1.66187368,55.5887239 0,57.0406682 L8.3093684,53.929359 C19.3192815,49.7809468 41.9623104,44.5954315 59.6197183,44.5954315 C80.3931393,44.5954315 102.205231,50.8180498 108.021789,53.5145178 C110.722334,54.9664621 113.00741,56.0035651 114.46155,57.0406682 L114.46155,117.607487 L57.334642,114.496178 C58.373313,97.6951081 66.267213,82.9682446 77.0693919,73.8417377 C87.8715709,64.7152308 100.958826,58.9074537 114.46155,57.0406682 L112.176473,57.0406682 C69.7986946,55.3813033 32.4065368,74.4639996 0,114.288757 L0,119.266852 L119.447171,119.266852 L119.447171,1.45194428 L114.46155,0 C94.5190656,1.45194428 68.7600235,11.6155542 51.3103499,21.5717436 L51.3103499,21.5717436 L51.3103499,21.5717436 Z M238.478873,0 L181.767434,0 C198.593905,13.0674985 222.483339,38.1653925 229.96177,46.6696376 C233.493252,51.0254704 236.401531,54.3442002 238.478873,57.0406682 L238.478873,114.288757 C212.304363,82.1385622 183.221573,63.4707071 151.230505,58.2851919 C144.998478,57.2480888 136.065907,56.8332476 124.640526,57.0406682 C137.935515,58.9074537 151.022771,64.7152308 162.032684,73.8417377 C172.834863,82.9682446 180.728763,97.6951081 181.767434,114.496178 L124.432792,117.607487 L124.432792,119.266852 L243.464494,119.266852 L243.464494,1.24452367 L238.478873,0 L238.478873,0 Z M187.583992,21.7791642 C169.095647,10.9932924 144.167542,1.45194428 124.432792,0 L124.432792,57.0406682 L130.24935,53.929359 C137.935515,49.7809468 158.501202,44.5954315 179.482357,44.5954315 C197.139765,44.5954315 221.860136,50.8180498 229.546302,53.5145178 C233.285518,54.9664621 236.193797,56.0035651 238.478873,57.0406682 L231.831378,51.6477323 C222.898807,44.1805903 206.072336,32.7724566 187.583992,21.7791642 L187.583992,21.7791642 L187.583992,21.7791642 Z M59.6197183,193.938272 C73.7456446,193.938272 87.6638367,191.864066 95.3500024,189.582439 C102.828434,187.300812 110.5146,183.774662 112.384207,182.530138 L114.46155,181.285615 C69.3832262,180.663353 39.6772341,168.218116 0,124.452367 L0,181.493035 L6.85522893,184.604344 C15.9955342,188.752757 38.2230947,193.938272 59.6197183,193.938272 L59.6197183,193.938272 L59.6197183,193.938272 Z M57.334642,125.696891 C58.7887815,153.906094 81.8472788,178.174305 114.46155,181.285615 L114.46155,238.741124 C92.6494577,236.459497 66.267213,226.088467 49.0252736,216.132277 C31.7833341,206.383509 12.0485842,191.864066 6.43976051,187.093392 C3.73921578,184.811765 1.45413947,182.944979 0,181.493035 L1.86960789,185.226606 C4.36241841,190.412121 10.3867105,199.746049 17.8651421,209.494818 C25.3435736,219.243586 37.599892,231.066561 50.0639446,238.741124 L0,238.741124 L0,243.719219 L119.447171,243.719219 L119.447171,125.904311 L114.669284,124.452367 L57.334642,125.696891 L57.334642,125.696891 Z M124.432792,181.493035 L131.288021,183.982082 C140.220592,187.300812 162.863621,191.656645 185.922118,191.656645 C206.695539,191.656645 226.01482,187.300812 232.662315,184.604344 C239.102076,181.907876 237.232468,182.944979 231.000441,188.130495 C224.768415,193.31601 205.033665,207.628032 188.207194,217.16938 C171.380723,226.710728 145.829415,236.874338 124.432792,238.741124 L124.432792,243.719219 L243.464494,243.719219 L243.464494,125.904311 L238.478873,124.452367 C199.217107,168.218116 169.303381,180.663353 124.432792,181.493035 L124.432792,181.493035 L124.432792,181.493035 Z M180.521028,125.696891 L124.432792,124.452367 L124.432792,181.493035 C152.684644,180.455932 178.651421,156.602562 180.521028,125.696891 L180.521028,125.696891 L180.521028,125.696891 Z M238.478873,238.741124 L188.622663,238.741124 C200.878981,231.066561 212.719831,219.451007 220.198263,210.11708 C227.46896,200.990573 233.700986,191.241804 236.401531,186.263709 C237.647936,183.774662 238.271139,182.115297 238.478873,181.493035 L238.478873,238.741124 L238.478873,238.741124 Z" id="Versalien_C"></path>
                </g>
            </g>
        </g>
    </g>
</svg>