<?xml version="1.0" encoding="UTF-8" standalone="no"?>
<svg width="244px" height="244px" viewBox="0 0 244 244" version="1.1" xmlns="http://www.w3.org/2000/svg" xmlns:xlink="http://www.w3.org/1999/xlink" xmlns:sketch="http://www.bohemiancoding.com/sketch/ns">
    <!-- Generator: Sketch 3.4.2 (15857) - http://www.bohemiancoding.com/sketch -->
    <title>Versalien_K_ALT</title>
    <desc>Created with Sketch.</desc>
    <defs></defs>
    <g id="Page-1" stroke="none" stroke-width="1" fill="none" fill-rule="evenodd" sketch:type="MSPage">
        <g id="Versalien_K_ALT" sketch:type="MSLayerGroup" fill-opacity="0.504670516" fill="#FFC107">
            <g id="Page-1" sketch:type="MSShapeGroup">
                <g>
                    <path d="M2.70054473,0 L59.8274525,57.0406682 L114.46155,57.0406682 L114.46155,114.288757 L57.334642,114.288757 L57.334642,60.5668186 L0,3.31872979 L0,119.266852 L119.447171,119.266852 L119.447171,4.56325346 L114.46155,0 L2.70054473,0 L2.70054473,0 Z M235.986063,0 L124.432792,0 L124.432792,57.0406682 L179.274624,57.0406682 L235.986063,0 L235.986063,0 Z M238.478873,3.11130918 L181.767434,60.359398 L181.767434,114.288757 L124.432792,114.288757 L124.432792,119.266852 L243.464494,119.266852 L243.464494,2.28162673 L238.478873,3.11130918 L238.478873,3.11130918 Z M57.334642,181.493035 L114.46155,181.493035 L114.46155,238.741124 L0,238.741124 L0,243.719219 L119.447171,243.719219 L119.447171,124.452367 L114.46155,124.452367 L57.334642,181.493035 L57.334642,181.493035 Z M57.334642,124.452367 L0,124.452367 L0,238.741124 L57.334642,181.493035 L57.334642,124.452367 L57.334642,124.452367 Z M181.767434,181.493035 L238.478873,238.741124 L124.432792,238.741124 L124.432792,243.719219 L243.464494,243.719219 L243.464494,124.452367 L181.767434,124.452367 L181.767434,181.493035 L181.767434,181.493035 Z M124.432792,181.493035 L181.767434,181.493035 L124.432792,124.452367 L124.432792,181.493035 L124.432792,181.493035 Z" id="Versalien_K"></path>
                </g>
            </g>
        </g>
    </g>
</svg>