<?xml version="1.0" encoding="UTF-8" standalone="no"?>
<svg width="244px" height="244px" viewBox="0 0 244 244" version="1.1" xmlns="http://www.w3.org/2000/svg" xmlns:xlink="http://www.w3.org/1999/xlink" xmlns:sketch="http://www.bohemiancoding.com/sketch/ns">
    <!-- Generator: Sketch 3.4.2 (15857) - http://www.bohemiancoding.com/sketch -->
    <title>Versalien_I</title>
    <desc>Created with Sketch.</desc>
    <defs></defs>
    <g id="Page-1" stroke="none" stroke-width="1" fill="none" fill-rule="evenodd" sketch:type="MSPage">
        <g id="Versalien_I_ALT" sketch:type="MSLayerGroup" fill="#FFCE3A">
            <g id="Page-1" sketch:type="MSShapeGroup">
                <g>
                    <path d="M57.334642,57.0406682 L114.46155,57.0406682 L114.46155,114.288757 L57.334642,57.0406682 L7.10542736e-15,114.288757 L7.10542736e-15,119.266852 L119.447171,119.266852 L119.447171,1.24452367 L114.46155,0 L57.334642,57.0406682 L57.334642,57.0406682 Z M7.10542736e-15,57.0406682 L57.334642,57.0406682 L7.10542736e-15,0 L7.10542736e-15,57.0406682 L7.10542736e-15,57.0406682 Z M238.478874,0 L181.767434,57.0406682 L238.478874,57.0406682 L238.478874,114.288757 L181.767434,57.0406682 L124.432792,114.288757 L124.432792,119.266852 L243.464495,119.266852 L243.464495,1.45194428 L238.478874,0 L238.478874,0 Z M124.432792,57.0406682 L181.767434,57.0406682 L124.432792,0 L124.432792,57.0406682 L124.432792,57.0406682 Z M57.334642,181.493035 L114.46155,181.493035 L114.46155,238.741124 L7.10542736e-15,238.741124 L7.10542736e-15,243.719219 L119.447171,243.719219 L119.447171,125.904311 L114.46155,124.452367 L57.334642,181.493035 L57.334642,181.493035 Z M7.10542736e-15,181.493035 L57.334642,181.493035 L7.10542736e-15,124.452367 L7.10542736e-15,181.493035 L7.10542736e-15,181.493035 Z M124.432792,124.452367 L124.432792,181.493035 L238.478874,181.493035 L238.478874,238.741124 L181.767434,181.700456 L124.432792,238.741124 L124.432792,243.719219 L243.464495,243.719219 L243.464495,125.696891 L238.478874,124.452367 L124.432792,124.452367 L124.432792,124.452367 Z" id="Versalien_I"></path>
                </g>
            </g>
        </g>
    </g>
</svg>