<?xml version="1.0" encoding="UTF-8" standalone="no"?>
<svg width="244px" height="244px" viewBox="0 0 244 244" version="1.1" xmlns="http://www.w3.org/2000/svg" xmlns:xlink="http://www.w3.org/1999/xlink" xmlns:sketch="http://www.bohemiancoding.com/sketch/ns">
    <!-- Generator: Sketch 3.4.2 (15857) - http://www.bohemiancoding.com/sketch -->
    <title>Versalien_E_ALT</title>
    <desc>Created with Sketch.</desc>
    <defs></defs>
    <g id="Page-1" stroke="none" stroke-width="1" fill="none" fill-rule="evenodd" sketch:type="MSPage">
        <g id="Versalien_E_ALT" sketch:type="MSLayerGroup" fill-opacity="0.504670516" fill="#FFC107">
            <g id="Page-1" sketch:type="MSShapeGroup">
                <g>
                    <path d="M57.334642,57.0406682 L114.461549,57.0406682 L114.461549,114.288757 L57.334642,57.0406682 L0,57.0406682 L57.334642,114.288757 L0,114.288757 L0,119.266852 L119.44717,119.266852 L119.44717,1.45194428 L114.461549,0 L57.334642,57.0406682 L57.334642,57.0406682 Z M0,0 L0,57.0406682 L57.334642,0 L0,0 L0,0 Z M239.102075,0 L181.767433,0 L238.478873,57.0406682 L238.478873,114.288757 L181.767433,114.288757 L238.478873,57.0406682 L181.767433,57.0406682 L124.432791,114.288757 L124.432791,119.266852 L243.464494,119.266852 L243.464494,3.11130917 L239.102075,0 L239.102075,0 Z M124.432791,57.0406682 L181.767433,57.0406682 L124.432791,0 L124.432791,57.0406682 L124.432791,57.0406682 Z M57.334642,181.493035 L114.461549,181.493035 L114.461549,238.741124 L57.334642,181.493035 L0,181.493035 L57.334642,238.741124 L0,238.741124 L0,243.719219 L119.44717,243.719219 L119.44717,125.904311 L114.461549,124.452367 L57.334642,181.493035 L57.334642,181.493035 Z M0,124.452367 L0,181.493035 L57.334642,124.452367 L0,124.452367 L0,124.452367 Z M181.767433,124.452367 L238.478873,181.493035 L238.478873,238.741124 L181.767433,238.741124 L238.478873,181.493035 L181.767433,181.493035 L124.432791,238.741124 L124.432791,243.719219 L243.464494,243.719219 L243.464494,127.563676 L238.478873,124.452367 L181.767433,124.452367 L181.767433,124.452367 Z M124.432791,181.493035 L181.767433,181.493035 L124.432791,124.452367 L124.432791,181.493035 L124.432791,181.493035 Z" id="Versalien_E"></path>
                </g>
            </g>
        </g>
    </g>
</svg>