<?xml version="1.0" encoding="UTF-8" standalone="no"?>
<svg width="244px" height="244px" viewBox="0 0 244 244" version="1.1" xmlns="http://www.w3.org/2000/svg" xmlns:xlink="http://www.w3.org/1999/xlink" xmlns:sketch="http://www.bohemiancoding.com/sketch/ns">
    <!-- Generator: Sketch 3.4.2 (15857) - http://www.bohemiancoding.com/sketch -->
    <title>Versalien_G</title>
    <desc>Created with Sketch.</desc>
    <defs></defs>
    <g id="Page-1" stroke="none" stroke-width="1" fill="none" fill-rule="evenodd" sketch:type="MSPage">
        <g id="Versalien_G_ALT" sketch:type="MSLayerGroup" fill="#FFCE3A">
            <g id="Page-1" sketch:type="MSShapeGroup">
                <g>
                    <path d="M57.334642,0 L114.46155,55.3813033 L114.46155,114.288757 L57.334642,57.0406682 L7.10542736e-15,114.288757 L7.10542736e-15,119.266852 L119.447171,119.266852 L119.447171,2.07420612 L114.46155,0 L57.334642,0 L57.334642,0 Z M7.10542736e-15,55.3813033 L57.334642,0 L7.10542736e-15,0 L7.10542736e-15,55.3813033 L7.10542736e-15,55.3813033 Z M238.478873,0 L181.767434,57.0406682 L124.432792,0 L124.432792,58.7000331 L181.767434,114.288757 L238.478873,58.7000331 L238.478873,114.288757 L124.432792,114.288757 L124.432792,119.266852 L243.464494,119.266852 L243.464494,2.07420612 L238.478873,0 L238.478873,0 Z M57.334642,181.493035 L7.10542736e-15,124.452367 L7.10542736e-15,183.1524 L57.334642,238.741124 L114.46155,183.1524 L114.46155,238.741124 L7.10542736e-15,238.741124 L7.10542736e-15,243.719219 L119.447171,243.719219 L119.447171,126.526573 L114.46155,124.452367 L57.334642,181.493035 L57.334642,181.493035 Z M181.767434,124.452367 L238.478873,179.83367 L238.478873,238.741124 L181.767434,181.493035 L124.432792,238.741124 L124.432792,243.719219 L243.464494,243.719219 L243.464494,126.526573 L238.478873,124.452367 L181.767434,124.452367 L181.767434,124.452367 Z M124.432792,179.83367 L181.767434,124.452367 L124.432792,124.452367 L124.432792,179.83367 L124.432792,179.83367 Z" id="Versalien_G"></path>
                </g>
            </g>
        </g>
    </g>
</svg>