<?xml version="1.0" encoding="UTF-8" standalone="no"?>
<svg width="244px" height="244px" viewBox="0 0 244 244" version="1.1" xmlns="http://www.w3.org/2000/svg" xmlns:xlink="http://www.w3.org/1999/xlink" xmlns:sketch="http://www.bohemiancoding.com/sketch/ns">
    <!-- Generator: Sketch 3.4.2 (15857) - http://www.bohemiancoding.com/sketch -->
    <title>Versalien_J_ALT</title>
    <desc>Created with Sketch.</desc>
    <defs></defs>
    <g id="Page-1" stroke="none" stroke-width="1" fill="none" fill-rule="evenodd" sketch:type="MSPage">
        <g id="Versalien_J_ALT" sketch:type="MSLayerGroup" fill-opacity="0.504670516" fill="#FFC107">
            <g id="Page-1" sketch:type="MSShapeGroup">
                <g>
                    <path d="M0,0 L0,57.0406682 L57.334642,57.0406682 L114.46155,114.288757 L0,114.288757 L0,119.266852 L119.447171,119.266852 L119.447171,1.24452367 L114.46155,0 L0,0 L0,0 Z M124.432792,114.288757 L238.478873,0 L124.432792,0 L124.432792,114.288757 L124.432792,114.288757 Z M239.102076,0 L238.478873,0 L181.767434,57.0406682 L238.478873,57.0406682 L238.478873,114.288757 L124.640526,114.288757 L124.640526,119.266852 L243.464494,119.266852 L243.464494,1.45194428 L239.102076,0 L239.102076,0 Z M114.46155,238.741124 L0,238.741124 L0,243.719219 L119.447171,243.719219 L119.447171,125.904311 L114.46155,124.452367 L114.46155,238.741124 L114.46155,238.741124 Z M0,181.493035 L57.334642,181.493035 L114.46155,124.452367 L0,124.452367 L0,181.493035 L0,181.493035 Z M124.432792,124.452367 L181.767434,181.493035 L238.478873,181.493035 L238.478873,238.741124 L124.432792,238.741124 L124.432792,243.719219 L243.464494,243.719219 L243.464494,125.696891 L238.478873,124.452367 L124.432792,124.452367 L124.432792,124.452367 Z" id="Versalien_J"></path>
                </g>
            </g>
        </g>
    </g>
</svg>