<?xml version="1.0" encoding="UTF-8" standalone="no"?>
<svg width="301px" height="303px" viewBox="0 0 301 303" version="1.1" xmlns="http://www.w3.org/2000/svg" xmlns:xlink="http://www.w3.org/1999/xlink" xmlns:sketch="http://www.bohemiancoding.com/sketch/ns">
    <!-- Generator: Sketch 3.4.2 (15857) - http://www.bohemiancoding.com/sketch -->
    <title>b </title>
    <desc>Created with Sketch.</desc>
    <defs></defs>
    <g id="Page-1" stroke="none" stroke-width="1" fill="none" fill-rule="evenodd" sketch:type="MSPage">
        <g id="Group" sketch:type="MSLayerGroup" transform="translate(-83.000000, -1906.000000)" fill="#212121">
            <path d="M383.728,2208.148 L83.852,2208.148 L83.852,1906.808 L383.728,1906.808 L383.728,2208.148 Z M375.432,1915.348 L92.392,1915.348 L92.392,2199.608 L375.432,2199.608 L375.432,1915.348 Z M345.42,2173.256 L122.16,2173.256 L122.16,1941.944 L345.42,1941.944 L345.42,2173.256 Z M210,2018.072 L125.088,1944.872 L125.088,2170.328 L210,2097.128 C211.22,2096.396 212.44,2095.176 214.148,2093.712 C215.612,2092.492 216.832,2091.516 217.564,2090.784 L220.492,2088.588 C221.712,2087.612 222.444,2086.88 223.176,2086.392 C223.908,2086.148 224.64,2085.66 225.616,2084.928 C227.324,2083.708 228.3,2083.22 229.52,2082.732 C230.74,2082.244 232.204,2082.244 233.424,2082.244 C235.376,2082.244 236.84,2082.488 238.792,2083.464 C240.744,2084.44 241.476,2084.684 244.16,2086.636 C246.844,2088.832 247.82,2089.808 251.724,2092.98 C253.676,2094.688 255.384,2095.908 256.604,2097.128 L342.492,2170.328 L342.492,1944.872 L256.604,2018.072 C247.088,2026.368 241.476,2031.004 239.28,2032.224 C237.328,2032.956 235.376,2033.444 233.424,2033.444 C230.74,2033.444 228.056,2032.468 225.616,2030.76 C222.932,2029.052 218.54,2025.392 211.952,2019.78 C211.22,2019.048 210.488,2018.316 210,2018.072 L210,2018.072 Z" id="b" sketch:type="MSShapeGroup"></path>
        </g>
    </g>
</svg>