<?xml version="1.0" encoding="UTF-8" standalone="no"?>
<svg width="262px" height="263px" viewBox="0 0 262 263" version="1.1" xmlns="http://www.w3.org/2000/svg" xmlns:xlink="http://www.w3.org/1999/xlink" xmlns:sketch="http://www.bohemiancoding.com/sketch/ns">
    <!-- Generator: Sketch 3.4.2 (15857) - http://www.bohemiancoding.com/sketch -->
    <title>e </title>
    <desc>Created with Sketch.</desc>
    <defs></defs>
    <g id="Page-1" stroke="none" stroke-width="1" fill="none" fill-rule="evenodd" sketch:type="MSPage">
        <g id="Group" sketch:type="MSLayerGroup" transform="translate(-1452.000000, -1281.000000)" fill="#212121">
            <path d="M1713.156,1281.996 L1713.156,1543.604 L1452.396,1543.604 L1452.396,1281.996 L1713.156,1281.996 Z M1459.816,1289.204 L1459.816,1536.184 L1705.736,1536.184 L1705.736,1289.204 L1459.816,1289.204 Z M1679.872,1312.312 L1679.872,1513.288 L1485.68,1513.288 L1485.68,1312.312 L1679.872,1312.312 Z M1549.068,1432.94 L1488.224,1510.744 L1677.328,1510.744 L1617.756,1432.94 L1609.276,1422.128 C1608.004,1420.432 1605.672,1417.252 1605.248,1415.344 C1605.036,1414.496 1604.824,1413.648 1604.824,1412.588 C1604.824,1410.256 1605.248,1408.772 1606.944,1406.228 C1608.428,1403.896 1609.488,1402.624 1613.092,1398.384 L1617.756,1392.448 L1677.328,1314.856 L1488.224,1314.856 L1549.068,1392.448 C1550.552,1394.356 1552.036,1396.264 1553.944,1398.384 C1557.336,1402.624 1558.396,1403.896 1560.092,1406.228 C1561.576,1408.772 1562,1410.256 1562,1412.588 C1562,1414.072 1561.788,1415.344 1561.152,1416.828 C1560.304,1418.524 1559.88,1419.372 1558.184,1421.704 C1556.276,1424.248 1555.428,1425.096 1552.672,1428.488 C1551.188,1430.184 1550.128,1431.668 1549.068,1432.94 L1549.068,1432.94 Z" id="e" sketch:type="MSShapeGroup"></path>
        </g>
    </g>
</svg>