<?xml version="1.0" encoding="UTF-8" standalone="no"?>
<svg width="153px" height="255px" viewBox="0 0 153 255" version="1.1" xmlns="http://www.w3.org/2000/svg" xmlns:xlink="http://www.w3.org/1999/xlink" xmlns:sketch="http://www.bohemiancoding.com/sketch/ns">
    <!-- Generator: Sketch 3.4.2 (15857) - http://www.bohemiancoding.com/sketch -->
    <title>f </title>
    <desc>Created with Sketch.</desc>
    <defs></defs>
    <g id="Page-1" stroke="none" stroke-width="1" fill="none" fill-rule="evenodd" sketch:type="MSPage">
        <g id="Group" sketch:type="MSLayerGroup" transform="translate(-880.000000, -653.000000)" fill="#212121">
            <path d="M956.32,702.996 L986,672.892 L986,653.6 L1003.808,653.6 L1003.808,672.892 L1032.428,702.996 L1032.428,729.92 L1003.808,760.66 L1003.808,801.364 L1032.428,830.196 L1032.428,857.332 L1003.808,887.86 L1003.808,908 L986,908 L986,887.86 L956.32,857.332 L926.64,887.86 L926.64,908 L908.832,908 L908.832,887.86 L880,856.908 L880,830.196 L908.832,801.364 L908.832,760.66 L880,729.92 L880,702.996 L908.832,672.892 L908.832,653.6 L926.64,653.6 L926.64,672.892 L956.32,702.996 Z M917.524,688.156 L889.54,716.14 L917.524,745.396 L945.296,716.14 L917.524,688.156 Z M995.54,688.156 L967.344,716.14 L995.54,745.396 L1023.1,716.14 L995.54,688.156 Z M986,760.66 L956.32,730.768 L926.64,760.66 L926.64,801.364 L956.32,830.196 L986,801.364 L986,760.66 Z M917.524,815.356 L889.54,843.34 L917.524,872.384 L945.296,843.34 L917.524,815.356 Z M995.54,815.356 L967.344,843.34 L995.54,872.384 L1023.1,843.34 L995.54,815.356 Z" id="f" sketch:type="MSShapeGroup"></path>
        </g>
    </g>
</svg>