<?xml version="1.0" encoding="UTF-8" standalone="no"?>
<svg width="157px" height="255px" viewBox="0 0 157 255" version="1.1" xmlns="http://www.w3.org/2000/svg" xmlns:xlink="http://www.w3.org/1999/xlink" xmlns:sketch="http://www.bohemiancoding.com/sketch/ns">
    <!-- Generator: Sketch 3.4.2 (15857) - http://www.bohemiancoding.com/sketch -->
    <title>g </title>
    <desc>Created with Sketch.</desc>
    <defs></defs>
    <g id="Page-1" stroke="none" stroke-width="1" fill="none" fill-rule="evenodd" sketch:type="MSPage">
        <g id="Group" sketch:type="MSLayerGroup" transform="translate(-856.000000, -1285.000000)" fill="#212121">
            <path d="M860.028,1349.2 C860.028,1329.696 858.544,1305.74 857.06,1294.08 L856,1285.6 L858.332,1287.932 C860.24,1290.052 866.176,1299.168 869.78,1308.284 C873.384,1317.4 877.2,1333.3 877.2,1349.412 C877.2,1365.524 873.808,1381.212 869.78,1390.54 C865.54,1400.08 861.3,1407.5 858.12,1410.68 L856,1413.012 C858.756,1392.448 860.028,1371.036 860.028,1349.2 L860.028,1349.2 Z M930.624,1349.2 C930.624,1368.704 932.532,1392.66 933.592,1404.32 L934.652,1412.8 C934.016,1412.164 933.38,1411.316 932.32,1410.256 C930.412,1408.136 924.476,1399.232 920.872,1390.328 C917.268,1381.424 913.452,1365.524 913.452,1349.412 C913.452,1333.3 916.844,1317.612 921.084,1308.072 C925.112,1298.744 929.564,1291.112 932.32,1287.932 L934.652,1285.6 C931.896,1306.164 930.624,1327.364 930.624,1349.2 L930.624,1349.2 Z M936.772,1291.96 L934.652,1285.6 L1012.88,1285.6 C1012.244,1287.508 1011.608,1289.84 1010.548,1292.808 C1008.428,1298.744 1000.16,1315.28 992.528,1322.912 C988.076,1327.576 981.928,1329.908 973.872,1329.908 C965.604,1329.908 959.456,1327.576 955.004,1322.912 C947.16,1315.28 939.528,1300.652 936.772,1291.96 L936.772,1291.96 Z M1010.76,1406.44 L1012.88,1413.012 L934.652,1413.012 C935.288,1411.104 935.924,1408.772 936.984,1405.804 C938.892,1399.868 947.16,1383.332 955.004,1375.7 C959.668,1371.036 966.028,1368.704 973.872,1368.704 C989.348,1368.704 996.556,1378.244 1003.34,1390.752 C1006.732,1396.9 1009.276,1402.2 1010.76,1406.44 L1010.76,1406.44 Z M858.12,1419.584 L856,1413.012 L934.652,1413.012 C934.016,1414.92 933.38,1417.252 932.32,1420.22 C930.2,1426.368 921.932,1443.116 914.3,1450.748 C909.424,1455.2 903.064,1457.532 895.22,1457.532 C879.108,1457.532 872.324,1448.204 865.54,1435.484 C862.148,1429.336 859.604,1424.036 858.12,1419.584 L858.12,1419.584 Z M938.468,1476.4 C938.468,1456.896 936.772,1432.94 935.712,1421.704 L934.652,1413.012 L936.984,1415.344 C938.68,1417.464 944.616,1426.368 948.22,1435.484 C951.824,1444.6 955.428,1460.5 955.428,1476.612 C955.428,1492.724 952.248,1508.412 948.22,1517.74 C943.98,1527.068 939.528,1534.488 936.772,1537.668 L934.652,1540 C937.196,1519.436 938.468,1498.236 938.468,1476.4 L938.468,1476.4 Z M1008.852,1476.4 C1008.852,1495.904 1010.336,1519.86 1011.82,1531.52 L1012.88,1540 C1012.244,1539.364 1011.608,1538.516 1010.76,1537.456 C1008.852,1535.336 1002.704,1526.432 999.1,1517.528 C995.496,1508.624 991.892,1492.724 991.892,1476.612 C991.892,1460.5 995.072,1444.812 999.312,1435.272 C1003.34,1425.944 1008.004,1418.524 1010.76,1415.344 L1012.88,1413.012 C1010.124,1433.364 1008.852,1454.564 1008.852,1476.4 L1008.852,1476.4 Z M932.32,1533.64 L934.652,1540 L856,1540 L858.544,1532.792 C860.664,1526.856 868.72,1510.32 876.352,1502.688 C880.804,1498.024 886.952,1495.692 895.22,1495.692 C911.332,1495.692 918.328,1505.232 925.112,1517.74 C928.504,1523.888 930.836,1529.188 932.32,1533.64 L932.32,1533.64 Z" id="g" sketch:type="MSShapeGroup"></path>
        </g>
    </g>
</svg>