<?xml version="1.0" encoding="UTF-8" standalone="no"?>
<svg width="257px" height="253px" viewBox="0 0 257 253" version="1.1" xmlns="http://www.w3.org/2000/svg" xmlns:xlink="http://www.w3.org/1999/xlink" xmlns:sketch="http://www.bohemiancoding.com/sketch/ns">
    <!-- Generator: Sketch 3.4.2 (15857) - http://www.bohemiancoding.com/sketch -->
    <title>i </title>
    <desc>Created with Sketch.</desc>
    <defs></defs>
    <g id="Page-1" stroke="none" stroke-width="1" fill="none" fill-rule="evenodd" sketch:type="MSPage">
        <g id="Group" sketch:type="MSLayerGroup" transform="translate(-828.000000, -7.000000)" fill="#212121">
            <path d="M1038.092,135.344 L1084.096,135.344 L1084.096,131.952 L954.776,131.952 L954.14,132.8 L952.656,132.8 L952.656,131.952 L948.416,131.952 L913.436,113.932 L913.436,7.296 L901.564,33.796 L874.852,33.796 L874.852,108.42 L901.564,108.42 L911.952,131.952 L831.392,131.952 L831.392,8.144 L828,8.144 L828,131.952 L829.696,131.952 L828.848,133.648 L828,131.952 L828,260 L829.696,256.608 L830.12,256.608 L854.924,215.056 L831.392,215.056 L831.392,178.38 L854.924,188.556 L854.924,215.056 L929.548,215.056 L929.548,188.556 L952.656,178.38 L952.656,256.608 L830.12,256.608 L828,260 L1084.096,260 L1084.096,256.608 L1073.072,256.608 L1038.092,238.588 L1038.092,135.344 Z M979.58,90.4 L956.048,90.4 L956.048,53.724 L979.58,63.9 L979.58,90.4 L1054.204,90.4 L1054.204,63.9 L1080.704,52.24 L975.34,52.24 L952.656,7.296 L952.656,131.952 L954.776,131.952 L979.58,90.4 Z M850.684,176.896 L829.696,135.344 L952.656,135.344 L952.656,176.896 L850.684,176.896 Z M956.048,256.608 L956.048,135.344 L1036.608,135.344 L1026.22,158.452 L999.508,158.452 L999.508,233.076 L1026.22,233.076 L1036.608,256.608 L956.048,256.608 Z" id="i" sketch:type="MSShapeGroup"></path>
        </g>
    </g>
</svg>