<?xml version="1.0" encoding="UTF-8" standalone="no"?>
<svg width="161px" height="256px" viewBox="0 0 161 256" version="1.1" xmlns="http://www.w3.org/2000/svg" xmlns:xlink="http://www.w3.org/1999/xlink" xmlns:sketch="http://www.bohemiancoding.com/sketch/ns">
    <!-- Generator: Sketch 3.4.2 (15857) - http://www.bohemiancoding.com/sketch -->
    <title>j </title>
    <desc>Created with Sketch.</desc>
    <defs></defs>
    <g id="Page-1" stroke="none" stroke-width="1" fill="none" fill-rule="evenodd" sketch:type="MSPage">
        <g id="Group" sketch:type="MSLayerGroup" transform="translate(-1504.000000, -653.000000)" fill="#212121">
            <path d="M1664.06,658.9 L1664.06,653.6 L1659.396,653.6 L1637.136,656.356 L1613.392,653.6 L1605.972,653.6 L1583.712,656.356 L1559.968,653.6 L1552.548,653.6 L1530.5,656.356 L1506.756,653.6 L1504,653.6 L1504,905.668 L1506.756,905.668 L1527.744,908.424 L1554.668,905.668 L1559.968,905.668 L1581.168,908.424 L1607.456,905.668 L1613.392,905.668 L1633.956,908.424 L1660.88,905.668 L1664.06,905.668 L1664.06,900.368 L1659.396,900.368 L1641.376,903.124 L1660.88,658.9 L1664.06,658.9 Z M1527.744,903.124 L1506.756,658.9 L1530.5,661.656 L1527.744,903.124 Z M1557.424,900.368 L1552.548,900.368 L1534.74,903.124 L1554.668,658.9 L1557.424,658.9 L1557.424,900.368 Z M1581.168,903.124 L1559.968,658.9 L1583.712,661.656 L1581.168,903.124 Z M1610.636,900.368 L1605.972,900.368 L1587.952,903.124 L1607.456,658.9 L1610.636,658.9 L1610.636,900.368 Z M1633.956,903.124 L1613.392,658.9 L1637.136,661.656 L1633.956,903.124 Z" id="j" sketch:type="MSShapeGroup"></path>
        </g>
    </g>
</svg>