<?xml version="1.0" encoding="UTF-8" standalone="no"?>
<svg width="390px" height="255px" viewBox="0 0 390 255" version="1.1" xmlns="http://www.w3.org/2000/svg" xmlns:xlink="http://www.w3.org/1999/xlink" xmlns:sketch="http://www.bohemiancoding.com/sketch/ns">
    <!-- Generator: Sketch 3.4.2 (15857) - http://www.bohemiancoding.com/sketch -->
    <title>n </title>
    <desc>Created with Sketch.</desc>
    <defs></defs>
    <g id="Page-1" stroke="none" stroke-width="1" fill="none" fill-rule="evenodd" sketch:type="MSPage">
        <g id="Group" sketch:type="MSLayerGroup" transform="translate(-2072.000000, -1921.000000)" fill="#212121">
            <path d="M2401.66,2047.952 L2461.232,1921.6 L2131.996,1921.6 L2072,2047.952 L2131.996,2176 L2461.868,2176 L2401.66,2047.952 Z M2135.6,1927.748 L2182.028,1927.748 L2182.028,2033.536 L2082.812,2041.168 L2135.6,1927.748 Z M2190.296,1927.748 L2236.088,1927.748 L2289.724,2041.168 L2190.296,2033.536 L2190.296,1927.748 Z M2243.72,1928.384 L2449.996,1928.384 L2448.3,1930.08 L2346.54,1936.652 L2343.148,1936.652 L2343.148,2042.016 L2297.992,2042.016 L2254.956,1952.34 L2243.72,1928.384 Z M2141.96,1939.408 L2138.78,1943.436 L2106.344,2025.904 L2106.344,2029.932 L2108.888,2025.692 L2140.688,1943.436 L2141.96,1939.408 Z M2151.5,1939.408 L2149.592,1943.436 L2124.152,2024.208 L2124.152,2028.236 L2126.696,2023.572 L2150.864,1943.436 L2151.5,1939.408 Z M2159.98,1943.436 L2143.232,2022.3 L2143.232,2025.904 L2144.928,2021.876 L2161.04,1943.436 L2161.676,1939.408 L2159.98,1943.436 Z M2161.464,2020.604 L2161.676,2024.208 L2163.584,2019.968 L2170.368,1943.436 L2171.004,1939.408 L2169.308,1943.436 L2161.464,2020.604 Z M2201.532,1939.408 L2199.836,1943.436 L2206.832,2019.332 L2209.8,2024.208 L2211.072,2019.968 L2203.228,1943.436 L2201.532,1939.408 Z M2210.012,1939.408 L2209.376,1943.436 L2224.64,2021.664 L2227.82,2025.904 L2228.88,2021.876 L2212.556,1943.436 L2210.012,1939.408 Z M2219.976,1939.408 L2219.34,1943.436 L2243.72,2022.512 L2247.536,2028.236 L2248.172,2023.36 L2222.732,1943.436 L2219.976,1939.408 Z M2232.908,1943.436 L2229.728,1939.408 L2229.516,1943.436 L2261.528,2024.844 L2266.616,2029.932 L2266.616,2025.056 L2232.908,1943.436 Z M2302.656,2031.84 L2303.504,2028.448 L2271.068,1945.98 L2267.04,1941.952 L2266.828,1945.556 L2300.112,2028.448 L2302.656,2031.84 Z M2427.1,1945.556 L2394.24,2028.448 L2391.484,2031.84 L2392.544,2028.448 L2424.344,1945.98 L2427.1,1941.952 L2427.1,1945.556 Z M2312.62,2031.84 L2313.68,2028.448 L2289.512,1947.888 L2286.12,1943.648 L2284.848,1947.252 L2310.288,2028.448 L2312.62,2031.84 Z M2406.536,1947.888 L2409.292,1943.648 L2409.292,1947.252 L2383.852,2028.448 L2381.52,2031.84 L2382.156,2028.448 L2406.536,1947.888 Z M2323.008,2031.84 L2323.644,2028.448 L2307.744,1949.796 L2305.2,1945.556 L2304.14,1949.372 L2321.1,2028.448 L2323.008,2031.84 Z M2390,1949.372 L2373.464,2028.448 L2371.344,2031.84 L2371.98,2028.448 L2387.88,1949.796 L2390,1945.556 L2390,1949.372 Z M2331.912,2031.84 L2332.972,2028.448 L2326.188,1951.916 L2323.644,1947.252 L2321.948,1951.068 L2330.216,2028.448 L2331.912,2031.84 Z M2363.712,2028.448 L2362.44,2031.84 L2362.44,2028.448 L2369.436,1951.916 L2371.344,1947.252 L2371.98,1951.068 L2363.712,2028.448 Z M2182.028,2064.276 L2182.028,2169.852 L2135.6,2169.852 L2081.964,2054.1 L2288.876,2054.1 L2185.42,2064.276 L2182.028,2064.276 Z M2343.148,2160.736 L2243.932,2168.156 L2297.78,2054.1 L2343.148,2054.1 L2343.148,2160.736 Z M2350.992,2054.1 L2397.632,2054.1 L2451.056,2168.156 L2350.992,2160.736 L2350.992,2054.1 Z M2267.04,2152.892 L2267.04,2156.496 L2269.584,2152.044 L2302.232,2070.212 L2303.504,2066.396 L2300.748,2070.212 L2267.04,2152.892 Z M2285.696,2154.588 L2288.028,2150.348 L2312.408,2070.212 L2313.468,2066.396 L2310.924,2070.212 L2285.696,2150.56 L2285.696,2154.588 Z M2304.776,2152.892 L2306.684,2148.228 L2322.584,2070.212 L2323.008,2066.396 L2321.312,2070.212 L2304.776,2148.864 L2304.776,2152.892 Z M2323.008,2150.56 L2325.128,2146.532 L2331.912,2070.212 L2331.912,2066.396 L2330.64,2070.212 L2322.796,2146.956 L2323.008,2150.56 Z M2362.44,2066.396 L2360.956,2070.212 L2368.376,2146.32 L2370.92,2150.56 L2372.192,2146.532 L2364.348,2070.212 L2362.44,2066.396 Z M2371.344,2066.396 L2370.284,2070.212 L2386.396,2148.016 L2389.788,2152.892 L2390.424,2148.228 L2373.676,2070.212 L2371.344,2066.396 Z M2381.52,2066.396 L2380.46,2070.212 L2405.052,2149.5 L2409.292,2154.588 L2409.504,2149.712 L2384.7,2070.212 L2381.52,2066.396 Z M2394.876,2070.212 L2391.484,2066.396 L2391.272,2070.212 L2422.224,2151.408 L2427.312,2156.496 L2427.312,2151.62 L2394.876,2070.212 Z M2106.344,2069.364 L2105.708,2073.392 L2138.568,2155.86 L2141.324,2159.676 L2141.96,2155.86 L2109.948,2074.028 L2106.344,2069.364 Z M2229.728,2159.676 L2231,2155.86 L2263.224,2074.028 L2265.98,2069.364 L2265.98,2073.392 L2232.696,2155.86 L2229.728,2159.676 Z M2124.364,2071.696 L2123.516,2075.3 L2148.744,2155.86 L2151.288,2159.676 L2152.136,2155.86 L2127.968,2075.724 L2124.364,2071.696 Z M2219.976,2159.676 L2220.824,2155.86 L2244.992,2075.724 L2247.536,2071.696 L2247.536,2075.3 L2222.52,2155.86 L2219.976,2159.676 Z M2143.656,2073.392 L2143.02,2076.996 L2159.768,2155.86 L2161.676,2159.676 L2162.524,2155.86 L2146.412,2077.632 L2143.656,2073.392 Z M2210.012,2159.676 L2210.648,2155.86 L2226.124,2077.632 L2228.668,2073.392 L2228.668,2076.996 L2211.92,2155.86 L2210.012,2159.676 Z M2162.524,2075.3 L2161.04,2079.116 L2169.096,2155.86 L2171.004,2159.676 L2171.852,2155.86 L2164.856,2079.328 L2162.524,2075.3 Z M2201.532,2159.676 L2201.532,2155.86 L2208.316,2079.328 L2210.012,2075.3 L2210.648,2079.116 L2203.016,2155.86 L2201.532,2159.676 Z" id="n" sketch:type="MSShapeGroup"></path>
        </g>
    </g>
</svg>