<?xml version="1.0" encoding="UTF-8" standalone="no"?>
<svg width="269px" height="255px" viewBox="0 0 269 255" version="1.1" xmlns="http://www.w3.org/2000/svg" xmlns:xlink="http://www.w3.org/1999/xlink" xmlns:sketch="http://www.bohemiancoding.com/sketch/ns">
    <!-- Generator: Sketch 3.4.2 (15857) - http://www.bohemiancoding.com/sketch -->
    <title>p </title>
    <desc>Created with Sketch.</desc>
    <defs></defs>
    <g id="Page-1" stroke="none" stroke-width="1" fill="none" fill-rule="evenodd" sketch:type="MSPage">
        <g id="Group" sketch:type="MSLayerGroup" transform="translate(-1448.000000, -1921.000000)" fill="#212121">
            <path d="M1448,1921.6 L1448,2176 L1716.604,2176 L1716.604,1921.6 L1448,1921.6 Z M1712.788,2172.396 L1451.604,2172.396 L1451.604,1925.204 L1712.788,1925.204 L1712.788,2172.396 Z M1489.552,2014.88 L1492.096,2016.788 L1499.728,2019.332 L1499.728,2014.88 L1503.332,2014.88 L1505.664,2016.788 L1513.296,2019.332 L1513.296,2014.88 L1517.112,2014.88 L1519.444,2016.788 L1527.076,2019.332 L1527.076,2014.88 L1531.104,2014.88 L1533.436,2016.788 L1541.068,2019.332 L1541.068,2014.88 L1544.884,2014.88 L1547.216,2016.788 L1554.848,2019.332 L1554.848,2014.88 L1558.664,2014.88 L1560.996,2016.788 L1568.628,2019.332 L1568.628,2014.88 L1572.444,2014.88 L1574.988,2016.788 L1582.62,2019.332 L1582.62,2014.88 L1586.224,2014.88 L1588.768,2016.788 L1596.4,2019.332 L1596.4,2014.88 L1600.004,2014.88 L1602.336,2016.788 L1609.968,2019.332 L1609.968,2014.88 L1613.784,2014.88 L1616.116,2016.788 L1623.748,2019.332 L1623.748,2014.88 L1627.776,2014.88 L1630.108,2016.788 L1634.56,2018.272 L1634.56,2021.452 L1631.168,2023.36 L1634.56,2026.116 L1634.56,2032.688 L1630.956,2030.78 L1624.596,2034.384 L1630.108,2038.624 L1634.56,2040.108 L1634.56,2043.076 L1631.168,2045.196 L1634.56,2047.952 L1634.56,2054.524 L1630.956,2052.404 L1624.596,2056.22 L1630.108,2060.46 L1634.56,2061.944 L1634.56,2064.912 L1631.168,2066.82 L1634.56,2069.788 L1634.56,2076.148 L1630.956,2074.24 L1624.596,2077.844 L1630.108,2082.084 L1634.56,2083.568 L1634.56,2086.748 L1631.168,2088.656 L1634.56,2091.412 L1634.56,2097.984 L1630.956,2096.076 L1624.596,2099.68 L1630.108,2103.92 L1634.56,2105.404 L1634.56,2108.796 L1631.168,2110.704 L1634.56,2113.46 L1634.56,2119.82 L1630.956,2117.7 L1624.596,2121.516 L1630.108,2125.968 L1634.56,2127.452 L1634.56,2130.42 L1631.168,2132.54 L1634.56,2135.296 L1634.56,2141.444 L1630.956,2139.536 L1624.596,2143.14 L1630.108,2147.804 L1634.56,2149.288 L1634.56,2152.256 L1631.168,2154.164 L1634.56,2156.92 L1634.56,2162.22 L1699.008,2162.22 L1699.008,1937.924 L1464.112,1937.924 L1464.112,1941.952 L1477.468,2014.88 L1489.552,2014.88 Z M1479.376,2023.36 L1484.676,2027.6 L1492.308,2030.144 L1492.308,2023.36 L1485.312,2019.756 L1479.376,2023.36 Z M1492.944,2023.36 L1498.668,2027.6 L1506.3,2030.144 L1506.3,2023.36 L1499.092,2019.756 L1492.944,2023.36 Z M1506.724,2023.36 L1512.448,2027.6 L1520.08,2030.144 L1520.08,2023.36 L1513.084,2019.756 L1506.724,2023.36 Z M1520.716,2023.36 L1526.016,2027.6 L1533.648,2030.144 L1533.648,2023.36 L1526.864,2019.756 L1520.716,2023.36 Z M1534.496,2023.36 L1539.796,2027.6 L1547.428,2030.144 L1547.428,2023.36 L1540.644,2019.756 L1534.496,2023.36 Z M1548.276,2023.36 L1553.788,2027.6 L1561.42,2030.144 L1561.42,2023.36 L1554.636,2019.756 L1548.276,2023.36 Z M1562.268,2023.36 L1567.568,2027.6 L1575.2,2030.144 L1575.2,2023.36 L1568.416,2019.756 L1562.268,2023.36 Z M1576.048,2023.36 L1581.348,2027.6 L1588.98,2030.144 L1588.98,2023.36 L1581.984,2019.756 L1576.048,2023.36 Z M1589.616,2023.36 L1595.34,2027.6 L1602.972,2030.144 L1602.972,2023.36 L1595.764,2019.756 L1589.616,2023.36 Z M1603.396,2023.36 L1609.12,2027.6 L1616.752,2030.144 L1616.752,2023.36 L1609.756,2019.756 L1603.396,2023.36 Z M1630.32,2023.36 L1623.536,2019.756 L1617.388,2023.36 L1622.688,2027.6 L1630.32,2030.144 L1630.32,2023.36 Z M1486.372,2034.384 L1492.096,2038.624 L1499.728,2041.168 L1499.728,2034.384 L1492.732,2030.78 L1486.372,2034.384 Z M1500.364,2034.384 L1505.664,2038.624 L1513.296,2041.168 L1513.296,2034.384 L1506.512,2030.78 L1500.364,2034.384 Z M1514.144,2034.384 L1519.444,2038.624 L1527.076,2041.168 L1527.076,2034.384 L1520.292,2030.78 L1514.144,2034.384 Z M1527.924,2034.384 L1533.436,2038.624 L1541.068,2041.168 L1541.068,2034.384 L1534.284,2030.78 L1527.924,2034.384 Z M1541.916,2034.384 L1547.216,2038.624 L1554.848,2041.168 L1554.848,2034.384 L1548.064,2030.78 L1541.916,2034.384 Z M1555.696,2034.384 L1560.996,2038.624 L1568.628,2041.168 L1568.628,2034.384 L1561.632,2030.78 L1555.696,2034.384 Z M1569.264,2034.384 L1574.988,2038.624 L1582.62,2041.168 L1582.62,2034.384 L1575.412,2030.78 L1569.264,2034.384 Z M1583.044,2034.384 L1588.768,2038.624 L1596.4,2041.168 L1596.4,2034.384 L1589.404,2030.78 L1583.044,2034.384 Z M1597.036,2034.384 L1602.336,2038.624 L1609.968,2041.168 L1609.968,2034.384 L1603.184,2030.78 L1597.036,2034.384 Z M1610.816,2034.384 L1616.116,2038.624 L1623.748,2041.168 L1623.748,2034.384 L1616.964,2030.78 L1610.816,2034.384 Z M1484.676,2049.648 L1492.308,2052.192 L1492.308,2045.196 L1485.312,2041.38 L1479.376,2045.196 L1484.676,2049.648 Z M1492.944,2045.196 L1498.668,2049.648 L1506.3,2052.192 L1506.3,2045.196 L1499.092,2041.38 L1492.944,2045.196 Z M1506.724,2045.196 L1512.448,2049.648 L1520.08,2052.192 L1520.08,2045.196 L1513.084,2041.38 L1506.724,2045.196 Z M1520.716,2045.196 L1526.016,2049.648 L1533.648,2052.192 L1533.648,2045.196 L1526.864,2041.38 L1520.716,2045.196 Z M1534.496,2045.196 L1539.796,2049.648 L1547.428,2052.192 L1547.428,2045.196 L1540.644,2041.38 L1534.496,2045.196 Z M1548.276,2045.196 L1553.788,2049.648 L1561.42,2052.192 L1561.42,2045.196 L1554.636,2041.38 L1548.276,2045.196 Z M1562.268,2045.196 L1567.568,2049.648 L1575.2,2052.192 L1575.2,2045.196 L1568.416,2041.38 L1562.268,2045.196 Z M1576.048,2045.196 L1581.348,2049.648 L1588.98,2052.192 L1588.98,2045.196 L1581.984,2041.38 L1576.048,2045.196 Z M1589.616,2045.196 L1595.34,2049.648 L1602.972,2052.192 L1602.972,2045.196 L1595.764,2041.38 L1589.616,2045.196 Z M1616.752,2045.196 L1609.756,2041.38 L1603.396,2045.196 L1609.12,2049.648 L1616.752,2052.192 L1616.752,2045.196 Z M1630.32,2045.196 L1623.536,2041.38 L1617.388,2045.196 L1622.688,2049.648 L1630.32,2052.192 L1630.32,2045.196 Z M1486.372,2056.22 L1492.096,2060.46 L1499.728,2063.004 L1499.728,2056.22 L1492.732,2052.404 L1486.372,2056.22 Z M1500.364,2056.22 L1505.664,2060.46 L1513.296,2063.004 L1513.296,2056.22 L1506.512,2052.404 L1500.364,2056.22 Z M1514.144,2056.22 L1519.444,2060.46 L1527.076,2063.004 L1527.076,2056.22 L1520.292,2052.404 L1514.144,2056.22 Z M1527.924,2056.22 L1533.436,2060.46 L1541.068,2063.004 L1541.068,2056.22 L1534.284,2052.404 L1527.924,2056.22 Z M1541.916,2056.22 L1547.216,2060.46 L1554.848,2063.004 L1554.848,2056.22 L1548.064,2052.404 L1541.916,2056.22 Z M1555.696,2056.22 L1560.996,2060.46 L1568.628,2063.004 L1568.628,2056.22 L1561.632,2052.404 L1555.696,2056.22 Z M1569.264,2056.22 L1574.988,2060.46 L1582.62,2063.004 L1582.62,2056.22 L1575.412,2052.404 L1569.264,2056.22 Z M1583.044,2056.22 L1588.768,2060.46 L1596.4,2063.004 L1596.4,2056.22 L1589.404,2052.404 L1583.044,2056.22 Z M1597.036,2056.22 L1602.336,2060.46 L1609.968,2063.004 L1609.968,2056.22 L1603.184,2052.404 L1597.036,2056.22 Z M1610.816,2056.22 L1616.116,2060.46 L1623.748,2063.004 L1623.748,2056.22 L1616.964,2052.404 L1610.816,2056.22 Z M1484.676,2071.484 L1492.308,2074.028 L1492.308,2066.82 L1485.312,2063.216 L1479.376,2066.82 L1484.676,2071.484 Z M1499.092,2063.216 L1492.944,2066.82 L1498.668,2071.484 L1506.3,2074.028 L1506.3,2066.82 L1499.092,2063.216 Z M1506.724,2066.82 L1512.448,2071.484 L1520.08,2074.028 L1520.08,2066.82 L1513.084,2063.216 L1506.724,2066.82 Z M1520.716,2066.82 L1526.016,2071.484 L1533.648,2074.028 L1533.648,2066.82 L1526.864,2063.216 L1520.716,2066.82 Z M1534.496,2066.82 L1539.796,2071.484 L1547.428,2074.028 L1547.428,2066.82 L1540.644,2063.216 L1534.496,2066.82 Z M1548.276,2066.82 L1553.788,2071.484 L1561.42,2074.028 L1561.42,2066.82 L1554.636,2063.216 L1548.276,2066.82 Z M1562.268,2066.82 L1567.568,2071.484 L1575.2,2074.028 L1575.2,2066.82 L1568.416,2063.216 L1562.268,2066.82 Z M1576.048,2066.82 L1581.348,2071.484 L1588.98,2074.028 L1588.98,2066.82 L1581.984,2063.216 L1576.048,2066.82 Z M1602.972,2066.82 L1595.764,2063.216 L1589.616,2066.82 L1595.34,2071.484 L1602.972,2074.028 L1602.972,2066.82 Z M1616.752,2066.82 L1609.756,2063.216 L1603.396,2066.82 L1609.12,2071.484 L1616.752,2074.028 L1616.752,2066.82 Z M1630.32,2066.82 L1623.536,2063.216 L1617.388,2066.82 L1622.688,2071.484 L1630.32,2074.028 L1630.32,2066.82 Z M1492.096,2082.084 L1499.728,2084.628 L1499.728,2077.844 L1492.732,2074.24 L1486.372,2077.844 L1492.096,2082.084 Z M1513.296,2084.628 L1513.296,2077.844 L1506.512,2074.24 L1500.364,2077.844 L1505.664,2082.084 L1513.296,2084.628 Z M1514.144,2077.844 L1519.444,2082.084 L1527.076,2084.628 L1527.076,2077.844 L1520.292,2074.24 L1514.144,2077.844 Z M1527.924,2077.844 L1533.436,2082.084 L1541.068,2084.628 L1541.068,2077.844 L1534.284,2074.24 L1527.924,2077.844 Z M1541.916,2077.844 L1547.216,2082.084 L1554.848,2084.628 L1554.848,2077.844 L1548.064,2074.24 L1541.916,2077.844 Z M1555.696,2077.844 L1560.996,2082.084 L1568.628,2084.628 L1568.628,2077.844 L1561.632,2074.24 L1555.696,2077.844 Z M1569.264,2077.844 L1574.988,2082.084 L1582.62,2084.628 L1582.62,2077.844 L1575.412,2074.24 L1569.264,2077.844 Z M1583.044,2077.844 L1588.768,2082.084 L1596.4,2084.628 L1596.4,2077.844 L1589.404,2074.24 L1583.044,2077.844 Z M1597.036,2077.844 L1602.336,2082.084 L1609.968,2084.628 L1609.968,2077.844 L1603.184,2074.24 L1597.036,2077.844 Z M1610.816,2077.844 L1616.116,2082.084 L1623.748,2084.628 L1623.748,2077.844 L1616.964,2074.24 L1610.816,2077.844 Z M1484.676,2093.108 L1492.308,2095.652 L1492.308,2088.656 L1485.312,2085.264 L1479.376,2088.656 L1484.676,2093.108 Z M1492.944,2088.656 L1498.668,2093.108 L1506.3,2095.652 L1506.3,2088.656 L1499.092,2085.264 L1492.944,2088.656 Z M1513.084,2085.264 L1506.724,2088.656 L1512.448,2093.108 L1520.08,2095.652 L1520.08,2088.656 L1513.084,2085.264 Z M1533.648,2088.656 L1526.864,2085.264 L1520.716,2088.656 L1526.016,2093.108 L1533.648,2095.652 L1533.648,2088.656 Z M1547.428,2088.656 L1540.644,2085.264 L1534.496,2088.656 L1539.796,2093.108 L1547.428,2095.652 L1547.428,2088.656 Z M1561.42,2088.656 L1554.636,2085.264 L1548.276,2088.656 L1553.788,2093.108 L1561.42,2095.652 L1561.42,2088.656 Z M1575.2,2088.656 L1568.416,2085.264 L1562.268,2088.656 L1567.568,2093.108 L1575.2,2095.652 L1575.2,2088.656 Z M1588.98,2088.656 L1581.984,2085.264 L1576.048,2088.656 L1581.348,2093.108 L1588.98,2095.652 L1588.98,2088.656 Z M1602.972,2088.656 L1595.764,2085.264 L1589.616,2088.656 L1595.34,2093.108 L1602.972,2095.652 L1602.972,2088.656 Z M1616.752,2088.656 L1609.756,2085.264 L1603.396,2088.656 L1609.12,2093.108 L1616.752,2095.652 L1616.752,2088.656 Z M1630.32,2088.656 L1623.536,2085.264 L1617.388,2088.656 L1622.688,2093.108 L1630.32,2095.652 L1630.32,2088.656 Z M1492.096,2103.92 L1499.728,2106.464 L1499.728,2099.68 L1492.732,2096.076 L1486.372,2099.68 L1492.096,2103.92 Z M1513.296,2106.464 L1513.296,2099.68 L1506.512,2096.076 L1500.364,2099.68 L1505.664,2103.92 L1513.296,2106.464 Z M1527.076,2106.464 L1527.076,2099.68 L1520.292,2096.076 L1514.144,2099.68 L1519.444,2103.92 L1527.076,2106.464 Z M1541.068,2106.464 L1541.068,2099.68 L1534.284,2096.076 L1527.924,2099.68 L1533.436,2103.92 L1541.068,2106.464 Z M1554.848,2106.464 L1554.848,2099.68 L1548.064,2096.076 L1541.916,2099.68 L1547.216,2103.92 L1554.848,2106.464 Z M1568.628,2106.464 L1568.628,2099.68 L1561.632,2096.076 L1555.696,2099.68 L1560.996,2103.92 L1568.628,2106.464 Z M1582.62,2106.464 L1582.62,2099.68 L1575.412,2096.076 L1569.264,2099.68 L1574.988,2103.92 L1582.62,2106.464 Z M1596.4,2106.464 L1596.4,2099.68 L1589.404,2096.076 L1583.044,2099.68 L1588.768,2103.92 L1596.4,2106.464 Z M1597.036,2099.68 L1602.336,2103.92 L1609.968,2106.464 L1609.968,2099.68 L1603.184,2096.076 L1597.036,2099.68 Z M1610.816,2099.68 L1616.116,2103.92 L1623.748,2106.464 L1623.748,2099.68 L1616.964,2096.076 L1610.816,2099.68 Z M1484.676,2114.944 L1492.308,2117.488 L1492.308,2110.704 L1485.312,2107.1 L1479.376,2110.704 L1484.676,2114.944 Z M1492.944,2110.704 L1498.668,2114.944 L1506.3,2117.488 L1506.3,2110.704 L1499.092,2107.1 L1492.944,2110.704 Z M1520.08,2110.704 L1513.084,2107.1 L1506.724,2110.704 L1512.448,2114.944 L1520.08,2117.488 L1520.08,2110.704 Z M1533.648,2110.704 L1526.864,2107.1 L1520.716,2110.704 L1526.016,2114.944 L1533.648,2117.488 L1533.648,2110.704 Z M1547.428,2110.704 L1540.644,2107.1 L1534.496,2110.704 L1539.796,2114.944 L1547.428,2117.488 L1547.428,2110.704 Z M1561.42,2110.704 L1554.636,2107.1 L1548.276,2110.704 L1553.788,2114.944 L1561.42,2117.488 L1561.42,2110.704 Z M1575.2,2110.704 L1568.416,2107.1 L1562.268,2110.704 L1567.568,2114.944 L1575.2,2117.488 L1575.2,2110.704 Z M1588.98,2110.704 L1581.984,2107.1 L1576.048,2110.704 L1581.348,2114.944 L1588.98,2117.488 L1588.98,2110.704 Z M1602.972,2110.704 L1595.764,2107.1 L1589.616,2110.704 L1595.34,2114.944 L1602.972,2117.488 L1602.972,2110.704 Z M1616.752,2110.704 L1609.756,2107.1 L1603.396,2110.704 L1609.12,2114.944 L1616.752,2117.488 L1616.752,2110.704 Z M1630.32,2110.704 L1623.536,2107.1 L1617.388,2110.704 L1622.688,2114.944 L1630.32,2117.488 L1630.32,2110.704 Z M1492.096,2125.968 L1499.728,2128.512 L1499.728,2121.516 L1492.732,2117.7 L1486.372,2121.516 L1492.096,2125.968 Z M1513.296,2128.512 L1513.296,2121.516 L1506.512,2117.7 L1500.364,2121.516 L1505.664,2125.968 L1513.296,2128.512 Z M1527.076,2128.512 L1527.076,2121.516 L1520.292,2117.7 L1514.144,2121.516 L1519.444,2125.968 L1527.076,2128.512 Z M1541.068,2128.512 L1541.068,2121.516 L1534.284,2117.7 L1527.924,2121.516 L1533.436,2125.968 L1541.068,2128.512 Z M1554.848,2128.512 L1554.848,2121.516 L1548.064,2117.7 L1541.916,2121.516 L1547.216,2125.968 L1554.848,2128.512 Z M1568.628,2128.512 L1568.628,2121.516 L1561.632,2117.7 L1555.696,2121.516 L1560.996,2125.968 L1568.628,2128.512 Z M1582.62,2128.512 L1582.62,2121.516 L1575.412,2117.7 L1569.264,2121.516 L1574.988,2125.968 L1582.62,2128.512 Z M1596.4,2128.512 L1596.4,2121.516 L1589.404,2117.7 L1583.044,2121.516 L1588.768,2125.968 L1596.4,2128.512 Z M1609.968,2128.512 L1609.968,2121.516 L1603.184,2117.7 L1597.036,2121.516 L1602.336,2125.968 L1609.968,2128.512 Z M1610.816,2121.516 L1616.116,2125.968 L1623.748,2128.512 L1623.748,2121.516 L1616.964,2117.7 L1610.816,2121.516 Z M1484.676,2136.78 L1492.308,2139.324 L1492.308,2132.54 L1485.312,2128.724 L1479.376,2132.54 L1484.676,2136.78 Z M1506.3,2132.54 L1499.092,2128.724 L1492.944,2132.54 L1498.668,2136.78 L1506.3,2139.324 L1506.3,2132.54 Z M1520.08,2132.54 L1513.084,2128.724 L1506.724,2132.54 L1512.448,2136.78 L1520.08,2139.324 L1520.08,2132.54 Z M1533.648,2132.54 L1526.864,2128.724 L1520.716,2132.54 L1526.016,2136.78 L1533.648,2139.324 L1533.648,2132.54 Z M1547.428,2132.54 L1540.644,2128.724 L1534.496,2132.54 L1539.796,2136.78 L1547.428,2139.324 L1547.428,2132.54 Z M1561.42,2132.54 L1554.636,2128.724 L1548.276,2132.54 L1553.788,2136.78 L1561.42,2139.324 L1561.42,2132.54 Z M1575.2,2132.54 L1568.416,2128.724 L1562.268,2132.54 L1567.568,2136.78 L1575.2,2139.324 L1575.2,2132.54 Z M1588.98,2132.54 L1581.984,2128.724 L1576.048,2132.54 L1581.348,2136.78 L1588.98,2139.324 L1588.98,2132.54 Z M1602.972,2132.54 L1595.764,2128.724 L1589.616,2132.54 L1595.34,2136.78 L1602.972,2139.324 L1602.972,2132.54 Z M1616.752,2132.54 L1609.756,2128.724 L1603.396,2132.54 L1609.12,2136.78 L1616.752,2139.324 L1616.752,2132.54 Z M1630.32,2132.54 L1623.536,2128.724 L1617.388,2132.54 L1622.688,2136.78 L1630.32,2139.324 L1630.32,2132.54 Z M1486.372,2143.14 L1492.096,2147.804 L1499.728,2150.348 L1499.728,2143.14 L1492.732,2139.536 L1486.372,2143.14 Z M1513.296,2150.348 L1513.296,2143.14 L1506.512,2139.536 L1500.364,2143.14 L1505.664,2147.804 L1513.296,2150.348 Z M1527.076,2150.348 L1527.076,2143.14 L1520.292,2139.536 L1514.144,2143.14 L1519.444,2147.804 L1527.076,2150.348 Z M1541.068,2150.348 L1541.068,2143.14 L1534.284,2139.536 L1527.924,2143.14 L1533.436,2147.804 L1541.068,2150.348 Z M1554.848,2150.348 L1554.848,2143.14 L1548.064,2139.536 L1541.916,2143.14 L1547.216,2147.804 L1554.848,2150.348 Z M1568.628,2150.348 L1568.628,2143.14 L1561.632,2139.536 L1555.696,2143.14 L1560.996,2147.804 L1568.628,2150.348 Z M1582.62,2150.348 L1582.62,2143.14 L1575.412,2139.536 L1569.264,2143.14 L1574.988,2147.804 L1582.62,2150.348 Z M1596.4,2150.348 L1596.4,2143.14 L1589.404,2139.536 L1583.044,2143.14 L1588.768,2147.804 L1596.4,2150.348 Z M1609.968,2150.348 L1609.968,2143.14 L1603.184,2139.536 L1597.036,2143.14 L1602.336,2147.804 L1609.968,2150.348 Z M1623.748,2150.348 L1623.748,2143.14 L1616.964,2139.536 L1610.816,2143.14 L1616.116,2147.804 L1623.748,2150.348 Z M1479.376,2154.164 L1484.676,2158.404 L1492.308,2160.948 L1492.308,2154.164 L1485.312,2150.56 L1479.376,2154.164 Z M1492.944,2154.164 L1498.668,2158.404 L1506.3,2160.948 L1506.3,2154.164 L1499.092,2150.56 L1492.944,2154.164 Z M1506.724,2154.164 L1512.448,2158.404 L1520.08,2160.948 L1520.08,2154.164 L1513.084,2150.56 L1506.724,2154.164 Z M1520.716,2154.164 L1526.016,2158.404 L1533.648,2160.948 L1533.648,2154.164 L1526.864,2150.56 L1520.716,2154.164 Z M1534.496,2154.164 L1539.796,2158.404 L1547.428,2160.948 L1547.428,2154.164 L1540.644,2150.56 L1534.496,2154.164 Z M1548.276,2154.164 L1553.788,2158.404 L1561.42,2160.948 L1561.42,2154.164 L1554.636,2150.56 L1548.276,2154.164 Z M1562.268,2154.164 L1567.568,2158.404 L1575.2,2160.948 L1575.2,2154.164 L1568.416,2150.56 L1562.268,2154.164 Z M1576.048,2154.164 L1581.348,2158.404 L1588.98,2160.948 L1588.98,2154.164 L1581.984,2150.56 L1576.048,2154.164 Z M1589.616,2154.164 L1595.34,2158.404 L1602.972,2160.948 L1602.972,2154.164 L1595.764,2150.56 L1589.616,2154.164 Z M1603.396,2154.164 L1609.12,2158.404 L1616.752,2160.948 L1616.752,2154.164 L1609.756,2150.56 L1603.396,2154.164 Z M1617.388,2154.164 L1622.688,2158.404 L1630.32,2160.948 L1630.32,2154.164 L1623.536,2150.56 L1617.388,2154.164 Z" id="p" sketch:type="MSShapeGroup"></path>
        </g>
    </g>
</svg>