<?xml version="1.0" encoding="UTF-8" standalone="no"?>
<svg width="150px" height="255px" viewBox="0 0 150 255" version="1.1" xmlns="http://www.w3.org/2000/svg" xmlns:xlink="http://www.w3.org/1999/xlink" xmlns:sketch="http://www.bohemiancoding.com/sketch/ns">
    <!-- Generator: Sketch 3.4.2 (15857) - http://www.bohemiancoding.com/sketch -->
    <title>r </title>
    <desc>Created with Sketch.</desc>
    <defs></defs>
    <g id="Page-1" stroke="none" stroke-width="1" fill="none" fill-rule="evenodd" sketch:type="MSPage">
        <g id="Group" sketch:type="MSLayerGroup" transform="translate(-2716.000000, -1921.000000)" fill="#212121">
            <path d="M2720.028,1921.6 L2716,1921.6 L2716,1980.96 L2717.06,1980.96 L2717.06,2116.64 L2716,2116.64 L2716,2176 L2720.028,2176 L2720.028,2116.64 L2742.288,2097.348 L2742.288,2000.252 L2720.028,1980.96 L2720.028,1921.6 Z M2865.036,1980.96 L2865.036,1921.6 L2861.008,1921.6 L2861.008,1980.96 L2838.324,2000.252 L2838.324,2097.348 L2861.008,2116.64 L2861.008,2176 L2865.036,2176 L2865.036,2116.64 L2863.764,2116.64 L2863.764,1980.96 L2865.036,1980.96 Z M2745.044,2097.348 L2835.78,2097.348 L2835.78,2000.252 L2745.044,2000.252 L2745.044,2097.348 Z" id="r" sketch:type="MSShapeGroup"></path>
        </g>
    </g>
</svg>