<?xml version="1.0" encoding="UTF-8" standalone="no"?>
<svg width="419px" height="249px" viewBox="0 0 419 249" version="1.1" xmlns="http://www.w3.org/2000/svg" xmlns:xlink="http://www.w3.org/1999/xlink" xmlns:sketch="http://www.bohemiancoding.com/sketch/ns">
    <!-- Generator: Sketch 3.4.2 (15857) - http://www.bohemiancoding.com/sketch -->
    <title>s </title>
    <desc>Created with Sketch.</desc>
    <defs></defs>
    <g id="Page-1" stroke="none" stroke-width="1" fill="none" fill-rule="evenodd" sketch:type="MSPage">
        <g id="Group" sketch:type="MSLayerGroup" transform="translate(-2578.000000, -6.000000)" fill="#212121">
            <path d="M2653,6.64 L2652.56,6.42 L2652.56,6.64 L2651.9,6.64 L2652.56,7.08 L2652.56,122.36 L2656.96,119.72 L2656.96,9.94 L2662.24,13.24 L2662.24,117.3 L2666.86,114.66 L2666.86,16.1 L2671.48,18.96 L2671.48,112.24 L2675.66,109.6 L2675.66,21.6 L2680.72,24.9 L2680.72,107.62 L2684.68,104.32 L2684.68,27.32 L2689.74,30.62 L2689.74,102.56 L2693.92,99.7 L2693.92,33.26 L2698.54,36.12 L2698.54,97.72 L2702.72,94.64 L2702.72,38.76 L2706.68,41.18 L2706.68,92.44 L2709.98,90.9 L2709.98,43.16 L2783.24,6.64 L2653,6.64 Z M2996.2,6.64 L2865.96,6.64 L2865.52,6.42 L2865.52,6.64 L2865.08,6.64 L2865.52,6.86 L2865.52,122.36 L2870.14,119.72 L2870.14,9.94 L2875.42,13.24 L2875.42,117.3 L2879.82,114.66 L2879.82,15.88 L2884.88,19.18 L2884.88,112.24 L2888.84,109.6 L2888.84,21.6 L2893.9,24.9 L2893.9,107.62 L2898.08,104.32 L2898.08,27.54 L2902.7,30.4 L2902.7,102.56 L2907.1,99.7 L2907.1,33.26 L2911.5,35.9 L2911.5,97.72 L2915.68,94.64 L2915.68,38.54 L2919.64,41.18 L2919.64,92.44 L2923.16,90.9 L2923.16,43.16 L2996.2,6.64 Z M2578.86,139.3 L2578.86,254.58 L2583.92,252.82 L2583.92,141.94 L2588.32,143.92 L2588.32,251.06 L2592.94,249.08 L2592.94,146.12 L2591.4,145.24 L2597.56,148.1 L2597.56,247.54 L2602.4,245.12 L2602.4,150.3 L2606.8,152.5 L2606.8,243.8 L2611.42,241.38 L2611.42,154.48 L2616.04,156.68 L2616.04,239.84 L2620.88,237.86 L2620.88,158.88 L2625.28,160.86 L2625.28,236.32 L2629.9,234.34 L2629.9,163.06 L2634.52,165.26 L2634.52,232.58 L2639.36,230.6 L2639.36,167.46 L2643.98,169.66 L2643.98,229.06 L2648.6,226.64 L2648.6,171.64 L2652.56,173.62 L2652.56,225.32 L2656.52,223.12 L2656.52,175.38 L2709.98,139.52 L2579.52,139.52 L2578.86,139.3 Z M2791.6,139.3 L2791.6,254.58 L2796.44,252.82 L2796.44,141.72 L2800.84,143.7 L2800.84,251.06 L2805.68,249.08 L2805.68,146.12 L2803.04,144.8 L2810.3,148.1 L2810.3,247.54 L2814.92,245.12 L2814.92,150.3 L2819.32,152.28 L2819.32,243.8 L2824.16,241.38 L2824.16,154.48 L2828.78,156.68 L2828.78,239.84 L2833.4,237.86 L2833.4,158.88 L2837.8,160.86 L2837.8,236.32 L2842.64,234.34 L2842.64,163.06 L2847.26,165.26 L2847.26,232.58 L2851.88,230.6 L2851.88,167.46 L2856.94,169.66 L2856.94,229.06 L2861.34,226.64 L2861.34,171.64 L2865.08,173.4 L2865.08,225.32 L2869.26,223.12 L2869.26,175.38 L2922.94,139.52 L2792.04,139.52 L2791.6,139.3 Z" id="s" sketch:type="MSShapeGroup"></path>
        </g>
    </g>
</svg>