<?xml version="1.0" encoding="UTF-8" standalone="no"?>
<svg width="218px" height="266px" viewBox="0 0 218 266" version="1.1" xmlns="http://www.w3.org/2000/svg" xmlns:xlink="http://www.w3.org/1999/xlink" xmlns:sketch="http://www.bohemiancoding.com/sketch/ns">
    <!-- Generator: Sketch 3.4.2 (15857) - http://www.bohemiancoding.com/sketch -->
    <title>t </title>
    <desc>Created with Sketch.</desc>
    <defs></defs>
    <g id="Page-1" stroke="none" stroke-width="1" fill="none" fill-rule="evenodd" sketch:type="MSPage">
        <g id="Group" sketch:type="MSLayerGroup" transform="translate(-2683.000000, -651.000000)" fill="#212121">
            <path d="M2683.12,916.88 L2683.12,651.34 L2900.48,651.34 L2900.48,916.88 L2683.12,916.88 Z M2791.36,715.36 L2791.36,652.88 L2764.74,654.64 L2738.34,690.06 L2710.62,654.64 L2684.66,652.88 L2684.66,716.02 C2711.28,705.68 2729.1,699.52 2738.34,697.54 C2746.26,699.3 2767.16,706.34 2781.02,711.4 L2791.36,715.36 Z M2898.72,716.24 L2898.72,652.88 L2871.44,653.98 L2845.7,688.08 L2819.52,653.98 L2792.24,652.88 L2792.24,716.02 C2818.64,725.7 2836.46,731.64 2845.7,733.62 C2853.84,731.86 2875.18,724.82 2888.6,719.76 L2898.72,716.24 Z M2695,714.26 L2684.66,718.66 L2684.66,783.78 L2710.62,782.02 L2738.34,745.5 L2764.96,782.02 L2791.36,783.78 L2791.36,719.1 C2764.74,707.44 2747.14,700.62 2738.34,698.86 C2730.2,700.4 2708.86,708.32 2695,714.26 L2695,714.26 Z M2803.24,725.92 L2792.24,719.76 L2792.24,783.78 L2819.52,783.12 L2845.7,747.7 L2871.44,783.12 L2898.72,783.78 L2898.72,719.1 C2870.34,735.82 2852.74,744.18 2845.7,744.18 C2839.54,744.18 2818.2,734.06 2803.24,725.92 L2803.24,725.92 Z M2791.36,849.12 L2791.36,784.66 L2764.96,786.42 L2738.34,822.06 L2710.62,786.42 L2684.66,784.66 L2684.66,848.46 C2711.28,837.68 2729.1,831.3 2738.34,829.54 C2746.26,831.08 2767.16,839.22 2781.02,844.72 L2791.36,849.12 Z M2898.72,849.12 L2898.72,784.66 L2871.44,785.1 L2845.7,820.3 L2819.52,785.1 L2792.24,784.66 L2792.24,849.34 C2818.64,859.68 2836.46,865.62 2845.7,866.94 C2853.84,865.84 2875.18,858.36 2888.6,853.08 L2898.72,849.12 Z M2695,846.48 L2684.66,850.88 L2684.66,915.34 L2710.62,913.36 L2738.34,878.16 L2764.74,913.36 L2791.36,915.34 L2791.36,852.64 C2764.74,840.1 2747.14,832.84 2738.34,830.86 C2730.2,832.62 2708.86,840.98 2695,846.48 L2695,846.48 Z M2803.24,859.24 L2792.24,853.3 L2792.24,915.34 L2819.52,914.24 L2845.7,880.14 L2871.44,914.24 L2898.72,915.34 L2898.72,851.76 C2870.56,868.92 2852.96,877.5 2845.7,877.5 C2839.32,877.5 2817.54,867.38 2803.24,859.24 L2803.24,859.24 Z" id="t" sketch:type="MSShapeGroup"></path>
        </g>
    </g>
</svg>