<?xml version="1.0" encoding="UTF-8" standalone="no"?>
<svg width="283px" height="255px" viewBox="0 0 283 255" version="1.1" xmlns="http://www.w3.org/2000/svg" xmlns:xlink="http://www.w3.org/1999/xlink" xmlns:sketch="http://www.bohemiancoding.com/sketch/ns">
    <!-- Generator: Sketch 3.4.2 (15857) - http://www.bohemiancoding.com/sketch -->
    <title>u </title>
    <desc>Created with Sketch.</desc>
    <defs></defs>
    <g id="Page-1" stroke="none" stroke-width="1" fill="none" fill-rule="evenodd" sketch:type="MSPage">
        <g id="Group" sketch:type="MSLayerGroup" transform="translate(-3372.000000, -5.000000)" fill="#212121">
            <path d="M3654.596,6.66 L3652.052,5.6 L3652.052,31.252 L3626.4,31.252 L3626.4,6.66 L3623.856,5.6 L3623.856,31.252 L3598.204,31.252 L3598.204,6.66 L3595.66,5.6 L3595.66,31.252 L3569.584,31.252 L3569.584,6.66 L3567.676,5.6 L3567.676,31.252 L3541.6,31.252 L3541.6,6.66 L3539.056,5.6 L3539.056,31.252 L3513.404,31.252 L3513.404,6.66 L3510.86,5.6 L3510.86,31.252 L3484.996,31.252 L3484.996,6.66 L3482.452,5.6 L3482.452,31.252 L3456.8,31.252 L3456.8,6.66 L3454.256,5.6 L3454.256,31.252 L3428.816,31.252 L3428.816,6.66 L3426.272,5.6 L3426.272,31.252 L3400.196,31.252 L3400.196,6.66 L3397.652,5.6 L3397.652,31.252 L3372,31.252 L3372,33.796 L3400.196,33.796 L3400.196,35.068 L3397.652,33.796 L3397.652,59.872 L3372,59.872 L3372,62.416 L3400.196,62.416 L3400.196,63.264 L3397.652,62.416 L3397.652,87.856 L3372,87.856 L3372,90.4 L3400.196,90.4 L3400.196,91.884 L3397.652,90.4 L3397.652,116.052 L3372,116.052 L3372,118.596 L3400.196,118.596 L3400.196,120.08 L3397.652,118.596 L3397.652,144.46 L3372,144.46 L3372,231.804 L3654.596,231.804 L3654.596,204.88 L3652.052,203.184 L3652.052,229.26 L3626.4,229.26 L3626.4,204.88 L3623.856,203.184 L3623.856,229.26 L3598.204,229.26 L3598.204,204.88 L3595.66,203.184 L3595.66,229.26 L3569.584,229.26 L3569.584,204.88 L3567.676,203.184 L3567.676,229.26 L3541.6,229.26 L3541.6,204.88 L3539.056,203.184 L3539.056,229.26 L3513.404,229.26 L3513.404,204.88 L3510.86,203.184 L3510.86,229.26 L3484.996,229.26 L3484.996,204.88 L3482.452,203.184 L3482.452,229.26 L3456.8,229.26 L3456.8,203.184 L3654.596,203.184 L3654.596,176.26 L3652.052,175.2 L3652.052,201.276 L3626.4,201.276 L3626.4,176.26 L3623.856,175.2 L3623.856,201.276 L3598.204,201.276 L3598.204,176.26 L3595.66,175.2 L3595.66,201.276 L3569.584,201.276 L3569.584,176.26 L3567.676,175.2 L3567.676,201.276 L3541.6,201.276 L3541.6,176.26 L3539.056,175.2 L3539.056,201.276 L3513.404,201.276 L3513.404,176.26 L3510.86,175.2 L3510.86,201.276 L3484.996,201.276 L3484.996,176.26 L3482.452,175.2 L3482.452,201.276 L3456.8,201.276 L3456.8,175.2 L3654.596,175.2 L3654.596,148.064 L3652.052,147.004 L3652.052,172.656 L3626.4,172.656 L3626.4,148.064 L3623.856,147.004 L3623.856,172.656 L3598.204,172.656 L3598.204,148.064 L3595.66,147.004 L3595.66,172.656 L3569.584,172.656 L3569.584,148.064 L3567.676,147.004 L3567.676,172.656 L3541.6,172.656 L3541.6,148.064 L3539.056,147.004 L3539.056,172.656 L3513.404,172.656 L3513.404,148.064 L3510.86,147.004 L3510.86,172.656 L3484.996,172.656 L3484.996,148.064 L3482.452,147.004 L3482.452,172.656 L3456.8,172.656 L3456.8,147.004 L3654.596,147.004 L3654.596,120.08 L3652.052,118.596 L3652.052,144.46 L3626.4,144.46 L3626.4,118.596 L3654.596,118.596 L3654.596,91.884 L3652.052,90.4 L3652.052,116.052 L3626.4,116.052 L3626.4,90.4 L3654.596,90.4 L3654.596,63.264 L3652.052,62.416 L3652.052,87.856 L3626.4,87.856 L3626.4,62.416 L3654.596,62.416 L3654.596,35.068 L3652.052,33.796 L3652.052,59.872 L3626.4,59.872 L3626.4,33.796 L3654.596,33.796 L3654.596,6.66 Z M3626.4,257.456 L3626.4,233.076 L3623.856,231.804 L3623.856,257.456 L3598.204,257.456 L3598.204,233.076 L3595.66,231.804 L3595.66,257.456 L3569.584,257.456 L3569.584,233.076 L3567.676,231.804 L3567.676,257.456 L3541.6,257.456 L3541.6,233.076 L3539.056,231.804 L3539.056,257.456 L3513.404,257.456 L3513.404,233.076 L3510.86,231.804 L3510.86,257.456 L3484.996,257.456 L3484.996,233.076 L3482.452,231.804 L3482.452,257.456 L3456.8,257.456 L3456.8,233.076 L3454.256,231.804 L3454.256,257.456 L3428.816,257.456 L3428.816,233.076 L3426.272,231.804 L3426.272,257.456 L3400.196,257.456 L3400.196,233.076 L3397.652,231.804 L3397.652,257.456 L3372,257.456 L3372,260 L3654.596,260 L3654.596,233.076 L3652.052,231.804 L3652.052,257.456 L3626.4,257.456 Z" id="u" sketch:type="MSShapeGroup"></path>
        </g>
    </g>
</svg>