<?xml version="1.0" encoding="UTF-8" standalone="no"?>
<svg width="332px" height="255px" viewBox="0 0 332 255" version="1.1" xmlns="http://www.w3.org/2000/svg" xmlns:xlink="http://www.w3.org/1999/xlink" xmlns:sketch="http://www.bohemiancoding.com/sketch/ns">
    <!-- Generator: Sketch 3.4.2 (15857) - http://www.bohemiancoding.com/sketch -->
    <title>v </title>
    <desc>Created with Sketch.</desc>
    <defs></defs>
    <g id="Page-1" stroke="none" stroke-width="1" fill="none" fill-rule="evenodd" sketch:type="MSPage">
        <g id="Group" sketch:type="MSLayerGroup" transform="translate(-3351.000000, -653.000000)" fill="#212121">
            <path d="M3682.14,908 L3673.236,908 L3673.236,653.6 L3682.14,653.6 L3682.14,908 Z M3388.096,906.092 L3351.632,887.648 L3351.632,673.952 L3388.096,655.296 L3424.348,673.952 L3424.348,887.648 L3388.096,906.092 Z M3468.444,906.092 L3431.98,887.648 L3431.98,673.952 L3468.444,655.296 L3504.484,673.952 L3504.484,887.648 L3468.444,906.092 Z M3548.58,906.092 L3512.116,887.648 L3512.116,673.952 L3548.58,655.296 L3584.832,673.952 L3584.832,887.648 L3548.58,906.092 Z M3628.928,906.092 L3592.464,887.648 L3592.464,673.952 L3628.928,655.296 L3665.392,673.952 L3665.392,887.648 L3628.928,906.092 Z" id="v" sketch:type="MSShapeGroup"></path>
        </g>
    </g>
</svg>