<?xml version="1.0" encoding="UTF-8" standalone="no"?>
<svg width="245px" height="244px" viewBox="0 0 245 244" version="1.1" xmlns="http://www.w3.org/2000/svg" xmlns:xlink="http://www.w3.org/1999/xlink" xmlns:sketch="http://www.bohemiancoding.com/sketch/ns">
    <!-- Generator: Sketch 3.4.2 (15857) - http://www.bohemiancoding.com/sketch -->
    <title>Versalien_F_ALT</title>
    <desc>Created with Sketch.</desc>
    <defs></defs>
    <g id="Page-1" stroke="none" stroke-width="1" fill="none" fill-rule="evenodd" sketch:type="MSPage">
        <path d="M120.001178,119.474272 L0.554006969,119.474272 L0.554006969,114.496178 L115.015557,0 L120.001178,1.65936489 L120.001178,119.474272 Z M0.554006969,0.207420612 L58.0963832,0.207420612 L0.554006969,57.2480888 L0.554006969,0.207420612 Z M244.018501,119.474272 L124.986799,119.474272 L124.986799,114.496178 L182.321441,114.496178 L124.986799,57.2480888 L124.986799,0.207420612 L239.03288,114.496178 L239.03288,57.2480888 L182.321441,0.207420612 L239.03288,0.207420612 L244.018501,2.28162673 L244.018501,119.474272 Z M115.015557,57.4555094 L57.888649,114.496178 L115.015557,114.496178 L115.015557,57.4555094 Z M57.888649,124.659788 L115.015557,124.659788 L120.001178,126.111732 L120.001178,243.926639 L0.554006969,243.926639 L0.554006969,238.948545 L57.888649,238.948545 L0.554006969,181.700456 L0.554006969,124.659788 L115.015557,238.948545 L115.015557,181.907876 L57.888649,124.659788 Z M124.986799,124.659788 L181.698238,124.659788 L124.986799,181.907876 L124.986799,124.659788 Z M124.986799,238.948545 L239.03288,124.659788 L244.018501,126.733994 L244.018501,243.926639 L124.986799,243.926639 L124.986799,238.948545 Z M182.321441,238.948545 L239.03288,238.948545 L239.03288,181.700456 L182.321441,238.948545 Z" id="Versalien_F" fill="#000000" sketch:type="MSShapeGroup"></path>
    </g>
</svg>