<?xml version="1.0" encoding="UTF-8" standalone="no"?>
<svg width="244px" height="244px" viewBox="0 0 244 244" version="1.1" xmlns="http://www.w3.org/2000/svg" xmlns:xlink="http://www.w3.org/1999/xlink" xmlns:sketch="http://www.bohemiancoding.com/sketch/ns">
    <!-- Generator: Sketch 3.4.2 (15857) - http://www.bohemiancoding.com/sketch -->
    <title>Versalien_C_ALT</title>
    <desc>Created with Sketch.</desc>
    <defs></defs>
    <g id="Page-1" stroke="none" stroke-width="1" fill="none" fill-rule="evenodd" sketch:type="MSPage">
        <path d="M57.5485106,0 L0.421602787,0 L0.421602787,57.0406682 L8.31550277,47.7067407 C18.9099475,35.261504 40.7220396,13.0674985 57.5485106,0 L57.5485106,0 Z M51.7319527,21.5717436 C34.282279,31.527933 13.3011238,46.462217 7.48456593,51.2328911 C4.36855278,53.7219384 2.08347647,55.5887239 0.421602787,57.0406682 L8.73097119,53.929359 C19.7408843,49.7809468 42.3839132,44.5954315 60.0413211,44.5954315 C80.8147421,44.5954315 102.626834,50.8180498 108.443392,53.5145178 C111.143937,54.9664621 113.429013,56.0035651 114.883153,57.0406682 L114.883153,117.607487 L57.7562448,114.496178 C58.7949158,97.6951081 66.6888158,82.9682446 77.4909947,73.8417377 C88.2931737,64.7152308 101.380429,58.9074537 114.883153,57.0406682 L112.598076,57.0406682 C70.2202974,55.3813033 32.8281396,74.4639996 0.421602787,114.288757 L0.421602787,119.266852 L119.868774,119.266852 L119.868774,1.45194428 L114.883153,0 C94.9406684,1.45194428 69.1816263,11.6155542 51.7319527,21.5717436 L51.7319527,21.5717436 Z M238.900476,0 L182.189037,0 C199.015508,13.0674985 222.904942,38.1653925 230.383373,46.6696376 C233.914855,51.0254704 236.823134,54.3442002 238.900476,57.0406682 L238.900476,114.288757 C212.725966,82.1385622 183.643176,63.4707071 151.652108,58.2851919 C145.420081,57.2480888 136.48751,56.8332476 125.062129,57.0406682 C138.357118,58.9074537 151.444374,64.7152308 162.454287,73.8417377 C173.256466,82.9682446 181.150366,97.6951081 182.189037,114.496178 L124.854395,117.607487 L124.854395,119.266852 L243.886097,119.266852 L243.886097,1.24452367 L238.900476,0 Z M188.005595,21.7791642 C169.51725,10.9932924 144.589145,1.45194428 124.854395,0 L124.854395,57.0406682 L130.670953,53.929359 C138.357118,49.7809468 158.922805,44.5954315 179.90396,44.5954315 C197.561368,44.5954315 222.281739,50.8180498 229.967905,53.5145178 C233.707121,54.9664621 236.6154,56.0035651 238.900476,57.0406682 L232.252981,51.6477323 C223.32041,44.1805903 206.493939,32.7724566 188.005595,21.7791642 L188.005595,21.7791642 Z M60.0413211,193.938272 C74.1672474,193.938272 88.0854395,191.864066 95.7716052,189.582439 C103.250037,187.300812 110.936203,183.774662 112.80581,182.530138 L114.883153,181.285615 C69.804829,180.663353 40.0988369,168.218116 0.421602787,124.452367 L0.421602787,181.493035 L7.27683172,184.604344 C16.417137,188.752757 38.6446975,193.938272 60.0413211,193.938272 L60.0413211,193.938272 Z M57.7562448,125.696891 C59.2103843,153.906094 82.2688816,178.174305 114.883153,181.285615 L114.883153,238.741124 C93.0710605,236.459497 66.6888158,226.088467 49.4468764,216.132277 C32.2049369,206.383509 12.470187,191.864066 6.8613633,187.093392 C4.16081857,184.811765 1.87574226,182.944979 0.421602787,181.493035 L2.29121068,185.226606 C4.7840212,190.412121 10.8083133,199.746049 18.2867449,209.494818 C25.7651764,219.243586 38.0214948,231.066561 50.4855474,238.741124 L0.421602787,238.741124 L0.421602787,243.719219 L119.868774,243.719219 L119.868774,125.904311 L115.090887,124.452367 L57.7562448,125.696891 Z M124.854395,181.493035 L131.709624,183.982082 C140.642195,187.300812 163.285224,191.656645 186.343721,191.656645 C207.117142,191.656645 226.436423,187.300812 233.083918,184.604344 C239.523679,181.907876 237.654071,182.944979 231.422044,188.130495 C225.190018,193.31601 205.455268,207.628032 188.628797,217.16938 C171.802326,226.710728 146.251018,236.874338 124.854395,238.741124 L124.854395,243.719219 L243.886097,243.719219 L243.886097,125.904311 L238.900476,124.452367 C199.63871,168.218116 169.724984,180.663353 124.854395,181.493035 L124.854395,181.493035 Z M180.942631,125.696891 L124.854395,124.452367 L124.854395,181.493035 C153.106247,180.455932 179.073024,156.602562 180.942631,125.696891 L180.942631,125.696891 Z M238.900476,238.741124 L189.044266,238.741124 C201.300584,231.066561 213.141434,219.451007 220.619866,210.11708 C227.890563,200.990573 234.122589,191.241804 236.823134,186.263709 C238.069539,183.774662 238.692742,182.115297 238.900476,181.493035 L238.900476,238.741124 Z" id="Versalien_C" fill="#000000" sketch:type="MSShapeGroup"></path>
    </g>
</svg>