<?xml version="1.0" encoding="UTF-8" standalone="no"?>
<svg width="244px" height="245px" viewBox="0 0 244 245" version="1.1" xmlns="http://www.w3.org/2000/svg" xmlns:xlink="http://www.w3.org/1999/xlink" xmlns:sketch="http://www.bohemiancoding.com/sketch/ns">
    <!-- Generator: Sketch 3.4.2 (15857) - http://www.bohemiancoding.com/sketch -->
    <title>Versalien_J_ALT</title>
    <desc>Created with Sketch.</desc>
    <defs></defs>
    <g id="Page-1" stroke="none" stroke-width="1" fill="none" fill-rule="evenodd" sketch:type="MSPage">
        <path d="M0.449379202,0.816598032 L0.449379202,57.8572662 L57.7840212,57.8572662 L114.910929,115.105355 L0.449379202,115.105355 L0.449379202,120.08345 L119.89655,120.08345 L119.89655,2.0611217 L114.910929,0.816598032 L0.449379202,0.816598032 Z M124.882171,115.105355 L238.928252,0.816598032 L124.882171,0.816598032 L124.882171,115.105355 Z M239.551455,0.816598032 L238.928252,0.816598032 L182.216813,57.8572662 L238.928252,57.8572662 L238.928252,115.105355 L125.089905,115.105355 L125.089905,120.08345 L243.913873,120.08345 L243.913873,2.26854231 L239.551455,0.816598032 Z M114.910929,239.557722 L0.449379202,239.557722 L0.449379202,244.535817 L119.89655,244.535817 L119.89655,126.720909 L114.910929,125.268965 L114.910929,239.557722 Z M0.449379202,182.309633 L57.7840212,182.309633 L114.910929,125.268965 L0.449379202,125.268965 L0.449379202,182.309633 Z M124.882171,125.268965 L182.216813,182.309633 L238.928252,182.309633 L238.928252,239.557722 L124.882171,239.557722 L124.882171,244.535817 L243.913873,244.535817 L243.913873,126.513489 L238.928252,125.268965 L124.882171,125.268965 Z" id="Versalien_J" fill="#000000" sketch:type="MSShapeGroup"></path>
    </g>
</svg>