<?xml version="1.0" encoding="UTF-8" standalone="no"?>
<svg width="244px" height="244px" viewBox="0 0 244 244" version="1.1" xmlns="http://www.w3.org/2000/svg" xmlns:xlink="http://www.w3.org/1999/xlink" xmlns:sketch="http://www.bohemiancoding.com/sketch/ns">
    <!-- Generator: Sketch 3.4.2 (15857) - http://www.bohemiancoding.com/sketch -->
    <title>Versalien_A_ALT</title>
    <desc>Created with Sketch.</desc>
    <defs></defs>
    <g id="Page-1" stroke="none" stroke-width="1" fill="none" fill-rule="evenodd" sketch:type="MSPage">
        <path d="M57.334642,0 C73.9533788,6.43003896 89.1179761,18.4604344 98.2582814,30.2834093 C106.983118,41.8989635 111.761005,50.195788 114.253816,56.625827 L108.852726,51.2328911 C101.374295,43.765749 86.001963,31.9427742 67.9290867,20.9494818 C49.8562104,10.16361 23.4739657,0.829682446 0,0 L0,57.0406682 L2.0773421,55.7961445 C4.77788683,54.1367796 11.4253816,51.4403117 19.3192815,48.9512643 C27.2131815,46.6696376 40.0927026,44.8028521 52.7644894,44.8028521 C72.0837709,44.8028521 98.0505472,51.0254704 105.736713,53.5145178 C109.268195,54.9664621 112.176473,56.0035651 114.46155,56.8332476 L114.46155,57.0406682 L114.46155,114.496178 C103.451637,97.6951081 88.9102419,84.0053477 74.3688472,75.9159438 C59.8274525,67.82654 46.3247289,62.4336041 32.1988026,59.9445567 C17.8651421,57.66293 9.76350788,57.0406682 0,57.0406682 L7.68616578,58.2851919 C14.3336605,59.7371361 27.8363842,65.3374926 37.8076262,73.0120553 C47.7788683,80.6866179 56.7114394,96.0357432 57.334642,114.288757 L0,114.288757 L0,119.266852 L119.447171,119.266852 L119.447171,2.07420612 L114.669284,0 L57.334642,0 Z M238.478873,0 L181.767434,4.56325345 C184.260244,31.9427742 207.111008,52.0625735 238.478873,57.0406682 L238.478873,114.288757 C195.477892,111.177448 157.462531,92.0947515 124.432792,57.0406682 L125.886931,60.9816598 C127.756539,66.1671751 133.573097,75.7085232 141.674731,85.457292 C149.776366,95.2060607 164.525494,106.821615 181.767434,114.288757 L124.432792,114.288757 L124.432792,119.266852 L243.464494,119.266852 L243.464494,1.45194428 L238.478873,0 Z M185.298915,69.2784843 C207.526476,69.2784843 228.092163,63.0558659 233.077784,60.359398 C235.36286,59.1148743 237.232468,58.0777712 238.478873,57.0406682 L234.324189,57.0406682 C228.507631,57.2480888 217.913186,56.0035651 205.449134,53.7219384 C192.777347,51.4403117 177.61275,45.6325345 163.486823,37.7505513 C149.360897,29.8685681 134.611768,16.5936489 124.432792,0 L124.432792,57.0406682 L132.949894,60.1519774 C144.58301,64.3003896 167.641508,69.2784843 185.298915,69.2784843 L185.298915,69.2784843 Z M57.334642,129.01562 C59.8274525,156.395141 82.8859498,176.51494 114.46155,181.493035 L114.46155,238.741124 C71.0450999,235.629815 33.0297394,216.547118 0,181.493035 L1.45413947,185.434027 C3.32374736,190.619542 9.14030525,200.16089 17.2419394,209.909659 C25.3435736,219.658428 40.0927026,231.273982 57.334642,238.741124 L0,238.741124 L0,243.719219 L119.447171,243.719219 L119.447171,125.904311 L114.669284,124.244946 L57.334642,129.01562 Z M60.8661236,193.730851 C83.0936841,193.730851 103.867105,187.508233 108.852726,184.811765 C111.345537,183.567241 113.215145,182.530138 114.46155,181.493035 L110.099131,181.493035 C104.282573,181.700456 93.895863,180.455932 81.2240762,178.174305 C68.5522893,175.892679 53.1799578,170.084901 39.0540315,162.202918 C24.9281052,154.320935 10.1789763,141.046016 0,124.452367 L0,181.493035 L8.51710262,184.604344 C19.9424842,188.752757 43.2087157,193.730851 60.8661236,193.730851 L60.8661236,193.730851 Z M181.767434,124.452367 C198.593905,130.882406 213.758502,143.120222 222.691073,154.943197 C231.623644,166.766172 236.193797,175.477837 238.478873,181.493035 L238.478873,238.741124 C231.831379,228.577514 224.145213,219.865848 215.420376,212.398706 C197.762968,197.464422 182.806105,190.826963 164.525494,186.263709 C146.244884,181.700456 136.68911,181.493035 124.432792,181.493035 L132.118958,182.737559 C138.766452,184.189503 152.47691,189.78986 162.448152,197.464422 C172.419394,205.138985 181.144231,220.48811 181.767434,238.741124 L124.432792,238.741124 L124.432792,243.719219 L243.464494,243.719219 L243.464494,126.526573 L238.478873,124.452367 L181.767434,124.452367 Z M176.989547,169.255219 C196.724297,169.255219 222.275605,175.477837 229.754036,177.966885 C233.493252,179.418829 236.401531,180.455932 238.478873,181.493035 L232.87005,175.685258 C225.391618,168.218116 210.019286,156.395141 192.154144,145.401849 C174.289002,134.615977 147.906758,125.282049 124.432792,124.452367 L124.432792,181.493035 L130.041616,178.381726 C137.520047,174.233314 156.839329,169.255219 176.989547,169.255219 L176.989547,169.255219 Z" id="Versalien_A" fill="#000000" sketch:type="MSShapeGroup"></path>
    </g>
</svg>