<?xml version="1.0" encoding="UTF-8" standalone="no"?>
<svg width="244px" height="245px" viewBox="0 0 244 245" version="1.1" xmlns="http://www.w3.org/2000/svg" xmlns:xlink="http://www.w3.org/1999/xlink" xmlns:sketch="http://www.bohemiancoding.com/sketch/ns">
    <!-- Generator: Sketch 3.4.2 (15857) - http://www.bohemiancoding.com/sketch -->
    <title>Versalien_H_ALT</title>
    <desc>Created with Sketch.</desc>
    <defs></defs>
    <g id="Page-1" stroke="none" stroke-width="1" fill="none" fill-rule="evenodd" sketch:type="MSPage">
        <path d="M114.46155,57.8572662 L0,57.8572662 L0,0.816598032 L114.46155,0.816598032 L119.447171,2.0611217 L119.447171,120.08345 L0,120.08345 L0,115.105355 L57.334642,58.0646868 L114.46155,115.105355 L114.46155,57.8572662 Z M243.464494,120.08345 L124.432792,120.08345 L124.432792,115.105355 L238.478873,115.105355 L238.478873,57.8572662 L181.767434,57.8572662 L238.478873,0.816598032 L243.464494,2.26854231 L243.464494,120.08345 Z M181.767434,57.8572662 L124.432792,57.8572662 L124.432792,0.816598032 L181.767434,57.8572662 Z M57.334642,182.309633 L114.46155,125.268965 L119.447171,126.720909 L119.447171,244.535817 L0,244.535817 L0,239.557722 L114.46155,239.557722 L114.46155,182.309633 L57.334642,182.309633 Z M57.334642,182.309633 L0,182.309633 L0,125.268965 L57.334642,182.309633 Z M243.464494,244.535817 L124.432792,244.535817 L124.432792,239.557722 L181.767434,182.517054 L238.478873,239.350301 L238.478873,182.309633 L124.432792,182.309633 L124.432792,125.268965 L238.478873,125.268965 L243.464494,126.513489 L243.464494,244.535817 Z" id="Versalien_H" fill="#000000" sketch:type="MSShapeGroup"></path>
    </g>
</svg>