<?xml version="1.0" encoding="UTF-8" standalone="no"?>
<svg width="244px" height="245px" viewBox="0 0 244 245" version="1.1" xmlns="http://www.w3.org/2000/svg" xmlns:xlink="http://www.w3.org/1999/xlink" xmlns:sketch="http://www.bohemiancoding.com/sketch/ns">
    <!-- Generator: Sketch 3.4.2 (15857) - http://www.bohemiancoding.com/sketch -->
    <title>Versalien_K_ALT</title>
    <desc>Created with Sketch.</desc>
    <defs></defs>
    <g id="Page-1" stroke="none" stroke-width="1" fill="none" fill-rule="evenodd" sketch:type="MSPage">
        <path d="M2.83294891,0.816598032 L59.9598567,57.8572662 L114.593954,57.8572662 L114.593954,115.105355 L57.4670462,115.105355 L57.4670462,61.3834166 L0.132404181,4.13532782 L0.132404181,120.08345 L119.579575,120.08345 L119.579575,5.37985149 L114.593954,0.816598032 L2.83294891,0.816598032 Z M236.118467,0.816598032 L124.565196,0.816598032 L124.565196,57.8572662 L179.407028,57.8572662 L236.118467,0.816598032 Z M238.611277,3.92790721 L181.899838,61.175996 L181.899838,115.105355 L124.565196,115.105355 L124.565196,120.08345 L243.596898,120.08345 L243.596898,3.09822476 L238.611277,3.92790721 Z M57.4670462,182.309633 L114.593954,182.309633 L114.593954,239.557722 L0.132404181,239.557722 L0.132404181,244.535817 L119.579575,244.535817 L119.579575,125.268965 L114.593954,125.268965 L57.4670462,182.309633 Z M57.4670462,125.268965 L0.132404181,125.268965 L0.132404181,239.557722 L57.4670462,182.309633 L57.4670462,125.268965 Z M181.899838,182.309633 L238.611277,239.557722 L124.565196,239.557722 L124.565196,244.535817 L243.596898,244.535817 L243.596898,125.268965 L181.899838,125.268965 L181.899838,182.309633 Z M124.565196,182.309633 L181.899838,182.309633 L124.565196,125.268965 L124.565196,182.309633 Z" id="Versalien_K" fill="#000000" sketch:type="MSShapeGroup"></path>
    </g>
</svg>