<?xml version="1.0" encoding="UTF-8" standalone="no"?>
<svg width="244px" height="244px" viewBox="0 0 244 244" version="1.1" xmlns="http://www.w3.org/2000/svg" xmlns:xlink="http://www.w3.org/1999/xlink" xmlns:sketch="http://www.bohemiancoding.com/sketch/ns">
    <!-- Generator: Sketch 3.4.2 (15857) - http://www.bohemiancoding.com/sketch -->
    <title>Versalien_D_ALT</title>
    <desc>Created with Sketch.</desc>
    <defs></defs>
    <g id="Page-1" stroke="none" stroke-width="1" fill="none" fill-rule="evenodd" sketch:type="MSPage">
        <path d="M91.5354566,17.8381726 C78.032733,31.1130917 70.9697698,42.728646 65.5686804,57.4555094 C60.1675909,72.1823728 58.297983,81.1014591 57.4670462,93.3392752 C56.6361093,105.784512 56.8438435,108.273559 57.4670462,114.288757 C59.1289199,101.013838 64.9454777,87.9463393 74.085783,76.9530469 C83.2260882,66.1671751 97.9752172,58.2851919 114.593954,57.2480888 L114.593954,117.607487 L57.4670462,114.288757 L55.3897041,106.821615 C52.6891593,96.8654256 48.9499436,74.0491583 48.9499436,53.0996766 C48.9499436,33.3947185 51.8582225,15.7639665 57.4670462,0 L52.0659567,6.63745957 C44.5875252,15.5565459 32.9544094,32.1501948 22.1522305,50.8180498 C11.1423173,69.4859049 1.58654365,94.3763783 0.132404181,114.288757 L0.132404181,119.266852 L119.579575,119.266852 L119.579575,2.07420612 L114.593954,0 C106.076851,5.18551529 98.3906856,11.200713 91.5354566,17.8381726 L91.5354566,17.8381726 Z M0.132404181,57.0406682 C12.804191,40.2395986 38.3554988,16.1788077 47.0803357,8.71166569 C51.4427541,4.97809468 54.7665014,2.07420612 57.4670462,0 L0.132404181,0 L0.132404181,57.0406682 Z M124.565196,0 L124.565196,57.0406682 C157.594935,61.1890804 176.291014,80.2717767 180.653433,114.288757 C180.653433,113.873916 180.653433,113.044233 180.861167,111.592289 C183.97718,62.0187629 165.073367,24.6830528 124.565196,0 L124.565196,0 Z M239.23448,0 L181.276635,0 L190.624675,6.84488018 C203.088727,16.1788077 225.316288,35.4689246 238.611277,51.0254704 L238.611277,114.288757 C237.157138,94.3763783 226.770427,68.6562224 217.00692,51.2328911 C207.035677,33.8095597 191.87108,12.8600779 187.093193,6.84488018 L181.276635,0 L183.561712,6.84488018 C186.677725,15.7639665 190.416941,35.6763452 190.416941,53.0996766 C190.416941,74.0491583 185.639054,98.9396317 183.353978,105.991933 C182.315306,109.518083 181.276635,112.421971 180.653433,114.288757 L124.77293,117.607487 L124.77293,119.266852 L243.596898,119.266852 L243.596898,2.07420612 L239.23448,0 Z M57.4670462,125.282049 C59.9598567,154.320935 83.6415567,179.83367 114.593954,181.493035 L114.593954,238.741124 C69.1001619,207.835453 54.9742357,179.83367 57.4670462,125.282049 L55.3897041,131.919509 C52.6891593,140.838595 48.9499436,163.032601 48.9499436,185.641447 C48.9499436,206.383509 52.4814251,226.088467 54.7665014,232.518506 C55.8051725,235.629815 56.6361093,237.704021 57.259312,238.741124 L0.132404181,238.741124 L0.132404181,243.719219 L119.579575,243.719219 L119.579575,125.282049 L114.593954,124.244946 L57.4670462,125.282049 Z M124.77293,181.493035 C156.140796,179.83367 179.822496,154.113514 180.445699,125.282049 L124.77293,124.244946 L124.77293,181.493035 Z M22.9831673,188.545336 C13.8428621,172.159108 3.24841733,146.024111 0.132404181,124.452367 L0.132404181,181.493035 C7.40310154,195.597637 18.6207489,209.287397 27.9687883,217.584222 C37.1090936,226.088467 47.4958041,233.140767 52.4814251,236.044656 C54.7665014,237.4966 56.4283751,238.533703 57.259312,238.741124 C55.1819699,236.252077 53.1046278,233.763029 51.0272857,231.066561 C46.8726015,226.088467 31.9157383,205.138985 22.9831673,188.545336 L22.9831673,188.545336 Z M229.055504,161.995498 C224.069883,173.818473 218.045591,185.848868 211.813564,195.597637 C205.581538,205.553826 199.349512,214.472912 193.740688,221.525213 C188.131864,228.577514 183.97718,233.555609 181.276635,236.666918 L179.407028,238.741124 C180.861167,237.911441 182.730775,237.081759 184.600383,236.044656 C188.339599,234.17787 201.011385,225.673625 210.151691,217.584222 C219.291996,209.494818 231.34058,195.597637 238.611277,181.493035 L238.611277,238.741124 L179.407028,238.741124 C180.445699,237.081759 181.48437,234.800132 182.938509,231.688823 C185.43132,225.881046 190.416941,205.761247 190.416941,185.641447 C190.416941,163.032601 185.43132,138.97181 183.146243,132.541771 C182.107572,129.430462 181.068901,126.941414 180.445699,125.282049 C181.068901,150.172523 179.199293,166.35133 171.928596,186.056289 C164.450164,205.968667 148.870099,222.977157 124.565196,238.741124 L124.565196,243.719219 L243.596898,243.719219 L243.596898,124.452367 L238.611277,124.452367 C237.572606,136.897604 233.833391,150.379943 229.055504,161.995498 L229.055504,161.995498 Z" id="Versalien_D" fill="#000000" sketch:type="MSShapeGroup"></path>
    </g>
</svg>