<?xml version="1.0" encoding="UTF-8" standalone="no"?>
<svg width="245px" height="244px" viewBox="0 0 245 244" version="1.1" xmlns="http://www.w3.org/2000/svg" xmlns:xlink="http://www.w3.org/1999/xlink" xmlns:sketch="http://www.bohemiancoding.com/sketch/ns">
    <!-- Generator: Sketch 3.4.2 (15857) - http://www.bohemiancoding.com/sketch -->
    <title>Versalien_B_ALT</title>
    <desc>Created with Sketch.</desc>
    <defs></defs>
    <g id="Page-1" stroke="none" stroke-width="1" fill="none" fill-rule="evenodd" sketch:type="MSPage">
        <path d="M79.442067,38.995075 C71.7559013,52.6848353 65.7316092,69.2784843 63.0310644,80.8940385 C60.3305197,92.5095928 58.4609118,105.369671 58.2531776,109.518083 C58.0454434,111.79971 58.0454434,113.251654 58.0454434,114.288757 C58.2531776,113.251654 58.668646,110.970027 59.7073171,107.651297 C61.576925,101.221258 67.6012171,88.7760218 75.7028513,78.6124118 C83.8044854,68.6562224 98.5536144,58.9074537 115.172351,57.0406682 L115.172351,114.288757 L58.0454434,114.288757 L57.8377092,0 L57.629975,0.207420612 C55.1371645,2.48904734 52.4366197,5.18551529 49.736075,7.88198324 C44.1272513,13.6897604 28.5471856,32.9798772 19.1991461,49.3661056 C9.85110664,65.9597545 0.710801394,91.8873309 0.710801394,114.288757 L0.710801394,119.266852 L120.157972,119.266852 L120.157972,2.07420612 L115.172351,0 C100.007754,10.16361 87.1282328,25.3053146 79.442067,38.995075 L79.442067,38.995075 Z M0.710801394,57.0406682 C6.31962507,43.5583284 17.7450066,29.4537268 27.0930461,21.1569024 C36.2333513,13.0674985 49.1128724,4.77067407 53.2675566,2.48904734 L57.8377092,0 L0.710801394,0 L0.710801394,57.0406682 Z M239.189675,0 C238.98194,2.48904734 238.774206,5.80777712 238.358738,9.74876874 C237.320067,18.0455932 232.126711,37.7505513 224.64828,55.1738827 C217.169848,72.5972141 201.797517,96.2431638 182.478235,114.288757 C184.347843,113.459075 187.463856,111.79971 191.618541,109.103242 C195.565491,106.406774 200.96658,102.673203 207.40634,97.9025287 C220.493596,88.3611805 233.580851,72.5972141 239.189675,57.0406682 L239.189675,114.288757 L182.478235,114.288757 C192.657212,88.3611805 195.980959,60.5668186 194.526819,43.9731697 C193.07268,27.5869413 187.671591,9.74876874 185.386514,5.18551529 C184.140109,2.90388856 183.101438,1.24452367 182.478235,0 L181.855033,8.29682446 C181.024096,19.2901169 176.453943,38.5802338 169.183246,58.2851919 C161.704814,78.1975706 145.70928,101.013838 125.143593,114.288757 L125.143593,119.266852 L244.175296,119.266852 L244.175296,2.07420612 L239.189675,0 Z M125.143593,57.0406682 C132.622025,56.0035651 139.477254,53.7219384 145.917014,50.195788 C158.381067,43.5583284 166.067233,35.261504 172.299259,25.097894 C178.531285,14.934284 180.816362,7.25972141 182.478235,0 L125.143593,0 L125.143593,57.0406682 Z M114.13368,134.408556 C113.095009,140.838595 107.69392,163.240021 100.215488,179.83367 C92.7370565,196.427319 77.1569907,220.695531 58.0454434,238.741124 L63.6542671,235.629815 C68.8476223,232.725926 80.6884723,224.636522 90.0365118,216.339698 C99.3845512,208.042873 110.18673,194.560534 115.172351,181.493035 L115.172351,238.741124 L58.0454434,238.741124 C68.2244197,212.813547 71.5481671,185.019186 70.0940276,168.425537 C68.6398881,152.039308 63.2387986,134.201136 60.9537223,129.637882 C59.7073171,127.356256 58.668646,125.696891 58.0454434,124.452367 L57.4222408,132.749191 C56.5913039,143.742484 52.0211513,163.032601 44.7504539,182.737559 C37.2720224,202.649938 21.2764882,225.466205 0.710801394,238.741124 L0.710801394,243.719219 L120.157972,243.719219 L120.157972,126.526573 L115.172351,124.452367 C114.964617,127.978517 114.549149,131.297247 114.13368,134.408556 L114.13368,134.408556 Z M0.710801394,181.700456 C18.9914119,179.003988 34.3637434,168.840378 42.8808461,156.395141 C51.3979487,144.157325 56.1758355,133.786294 58.0454434,124.452367 L0.710801394,124.452367 L0.710801394,181.700456 Z M195.150022,180.663353 C187.879325,198.916367 183.516906,221.940054 182.893704,229.822038 C182.685969,233.763029 182.478235,236.874338 182.478235,238.741124 C182.685969,237.28918 183.309172,235.214974 184.347843,232.103664 C186.009717,226.295887 192.449477,213.020968 200.135643,203.064779 C207.821809,193.108589 222.570938,183.359821 239.189675,181.493035 L239.189675,238.741124 L182.478235,238.741124 C172.506993,219.451007 169.183246,194.767954 170.429651,177.137202 C171.676056,159.713871 176.661677,140.008913 179.362222,132.541771 C180.608627,129.01562 181.647298,126.319152 182.478235,124.452367 C181.024096,125.696891 178.946754,127.771097 175.830741,130.882406 C169.806448,136.897604 154.849585,154.943197 144.878343,172.159108 C134.699367,189.375018 125.143593,215.510015 125.143593,238.741124 L125.143593,243.719219 L244.175296,243.719219 L244.175296,126.526573 L239.189675,124.452367 C218.416254,138.556969 202.420719,162.410339 195.150022,180.663353 L195.150022,180.663353 Z M125.143593,181.493035 C130.336949,168.010695 141.970064,153.906094 151.318104,145.609269 C160.666143,137.519865 173.753398,129.223041 177.908083,126.941414 L182.478235,124.452367 L125.143593,124.452367 L125.143593,181.493035 Z" id="Versalien_B" fill="#000000" sketch:type="MSShapeGroup"></path>
    </g>
</svg>