<?xml version="1.0" encoding="UTF-8" standalone="no"?>
<svg width="245px" height="244px" viewBox="0 0 245 244" version="1.1" xmlns="http://www.w3.org/2000/svg" xmlns:xlink="http://www.w3.org/1999/xlink" xmlns:sketch="http://www.bohemiancoding.com/sketch/ns">
    <!-- Generator: Sketch 3.4.2 (15857) - http://www.bohemiancoding.com/sketch -->
    <title>Versalien_E_ALT</title>
    <desc>Created with Sketch.</desc>
    <defs></defs>
    <g id="Page-1" stroke="none" stroke-width="1" fill="none" fill-rule="evenodd" sketch:type="MSPage">
        <path d="M58.1778476,57.0406682 L115.304755,57.0406682 L115.304755,114.288757 L58.1778476,57.0406682 L0.843205575,57.0406682 L58.1778476,114.288757 L0.843205575,114.288757 L0.843205575,119.266852 L120.290376,119.266852 L120.290376,1.45194428 L115.304755,0 L58.1778476,57.0406682 Z M0.843205575,0 L0.843205575,57.0406682 L58.1778476,0 L0.843205575,0 Z M239.945281,0 L182.610639,0 L239.322079,57.0406682 L239.322079,114.288757 L182.610639,114.288757 L239.322079,57.0406682 L182.610639,57.0406682 L125.275997,114.288757 L125.275997,119.266852 L244.3077,119.266852 L244.3077,3.11130917 L239.945281,0 Z M125.275997,57.0406682 L182.610639,57.0406682 L125.275997,0 L125.275997,57.0406682 Z M58.1778476,181.493035 L115.304755,181.493035 L115.304755,238.741124 L58.1778476,181.493035 L0.843205575,181.493035 L58.1778476,238.741124 L0.843205575,238.741124 L0.843205575,243.719219 L120.290376,243.719219 L120.290376,125.904311 L115.304755,124.452367 L58.1778476,181.493035 Z M0.843205575,124.452367 L0.843205575,181.493035 L58.1778476,124.452367 L0.843205575,124.452367 Z M182.610639,124.452367 L239.322079,181.493035 L239.322079,238.741124 L182.610639,238.741124 L239.322079,181.493035 L182.610639,181.493035 L125.275997,238.741124 L125.275997,243.719219 L244.3077,243.719219 L244.3077,127.563676 L239.322079,124.452367 L182.610639,124.452367 Z M125.275997,181.493035 L182.610639,181.493035 L125.275997,124.452367 L125.275997,181.493035 Z" id="Versalien_E" fill="#000000" sketch:type="MSShapeGroup"></path>
    </g>
</svg>