<?xml version="1.0" encoding="UTF-8" standalone="no"?>
<svg width="244px" height="244px" viewBox="0 0 244 244" version="1.1" xmlns="http://www.w3.org/2000/svg" xmlns:xlink="http://www.w3.org/1999/xlink" xmlns:sketch="http://www.bohemiancoding.com/sketch/ns">
    <!-- Generator: Sketch 3.4.2 (15857) - http://www.bohemiancoding.com/sketch -->
    <title>Versalien_G_ALT</title>
    <desc>Created with Sketch.</desc>
    <defs></defs>
    <g id="Page-1" stroke="none" stroke-width="1" fill="none" fill-rule="evenodd" sketch:type="MSPage">
        <path d="M57.8701477,0 L114.997056,55.3813033 L114.997056,114.288757 L57.8701477,57.0406682 L0.535505717,114.288757 L0.535505717,119.266852 L119.982677,119.266852 L119.982677,2.07420612 L114.997056,0 L57.8701477,0 Z M0.535505717,55.3813033 L57.8701477,0 L0.535505717,0 L0.535505717,55.3813033 Z M239.014379,0 L182.30294,57.0406682 L124.968298,0 L124.968298,58.7000331 L182.30294,114.288757 L239.014379,58.7000331 L239.014379,114.288757 L124.968298,114.288757 L124.968298,119.266852 L244,119.266852 L244,2.07420612 L239.014379,0 Z M57.8701477,181.493035 L0.535505717,124.452367 L0.535505717,183.1524 L57.8701477,238.741124 L114.997056,183.1524 L114.997056,238.741124 L0.535505717,238.741124 L0.535505717,243.719219 L119.982677,243.719219 L119.982677,126.526573 L114.997056,124.452367 L57.8701477,181.493035 Z M182.30294,124.452367 L239.014379,179.83367 L239.014379,238.741124 L182.30294,181.493035 L124.968298,238.741124 L124.968298,243.719219 L244,243.719219 L244,126.526573 L239.014379,124.452367 L182.30294,124.452367 Z M124.968298,179.83367 L182.30294,124.452367 L124.968298,124.452367 L124.968298,179.83367 Z" id="Versalien_G" fill="#000000" sketch:type="MSShapeGroup"></path>
    </g>
</svg>