<?xml version="1.0" encoding="UTF-8" standalone="no"?>
<svg width="244px" height="245px" viewBox="0 0 244 245" version="1.1" xmlns="http://www.w3.org/2000/svg" xmlns:xlink="http://www.w3.org/1999/xlink" xmlns:sketch="http://www.bohemiancoding.com/sketch/ns">
    <!-- Generator: Sketch 3.4.2 (15857) - http://www.bohemiancoding.com/sketch -->
    <title>Versalien_I_ALT</title>
    <desc>Created with Sketch.</desc>
    <defs></defs>
    <g id="Page-1" stroke="none" stroke-width="1" fill="none" fill-rule="evenodd" sketch:type="MSPage">
        <path d="M57.6309565,57.8572662 L114.757864,57.8572662 L114.757864,115.105355 L57.6309565,57.8572662 L0.296314472,115.105355 L0.296314472,120.08345 L119.743485,120.08345 L119.743485,2.0611217 L114.757864,0.816598032 L57.6309565,57.8572662 Z M0.296314472,57.8572662 L57.6309565,57.8572662 L0.296314472,0.816598032 L0.296314472,57.8572662 Z M238.775188,0.816598032 L182.063748,57.8572662 L238.775188,57.8572662 L238.775188,115.105355 L182.063748,57.8572662 L124.729106,115.105355 L124.729106,120.08345 L243.760809,120.08345 L243.760809,2.26854231 L238.775188,0.816598032 Z M124.729106,57.8572662 L182.063748,57.8572662 L124.729106,0.816598032 L124.729106,57.8572662 Z M57.6309565,182.309633 L114.757864,182.309633 L114.757864,239.557722 L0.296314472,239.557722 L0.296314472,244.535817 L119.743485,244.535817 L119.743485,126.720909 L114.757864,125.268965 L57.6309565,182.309633 Z M0.296314472,182.309633 L57.6309565,182.309633 L0.296314472,125.268965 L0.296314472,182.309633 Z M124.729106,125.268965 L124.729106,182.309633 L238.775188,182.309633 L238.775188,239.557722 L182.063748,182.517054 L124.729106,239.557722 L124.729106,244.535817 L243.760809,244.535817 L243.760809,126.513489 L238.775188,125.268965 L124.729106,125.268965 Z" id="Versalien_I" fill="#000000" sketch:type="MSShapeGroup"></path>
    </g>
</svg>