<?xml version="1.0" encoding="UTF-8" standalone="no"?>
<svg width="231px" height="229px" viewBox="0 0 231 229" version="1.1" xmlns="http://www.w3.org/2000/svg" xmlns:xlink="http://www.w3.org/1999/xlink" xmlns:sketch="http://www.bohemiancoding.com/sketch/ns">
    <!-- Generator: Sketch 3.4.2 (15857) - http://www.bohemiancoding.com/sketch -->
    <title>about</title>
    <desc>Created with Sketch.</desc>
    <defs>
        <filter x="-50%" y="-50%" width="200%" height="200%" filterUnits="objectboundingbox" id="filter-1">
            <feoffset dx="0" dy="3" in="SourceAlpha" result="shadowoffsetouter1"></feoffset>
            <fegaussianblur stdDeviation="3" in="shadowoffsetouter1" result="shadowblurouter1"></fegaussianblur>
            <fecolormatrix values="0 0 0 0 0   0 0 0 0 0   0 0 0 0 0  0 0 0 0.28 0" in="shadowblurouter1" type="matrix" result="shadowmatrixouter1"></fecolormatrix>
            <feoffset dx="0" dy="1" in="SourceAlpha" result="shadowOffsetInner1"></feoffset>
            <fegaussianblur stdDeviation="1" in="shadowOffsetInner1" result="shadowBlurInner1"></fegaussianblur>
            <feComposite in="shadowBlurInner1" in2="SourceAlpha" operator="arithmetic" k2="-1" k3="1" result="shadowInnerInner1"></feComposite>
            <fecolormatrix values="0 0 0 0 1   0 0 0 0 1   0 0 0 0 1  0 0 0 0.56 0" in="shadowInnerInner1" type="matrix" result="shadowMatrixInner1"></fecolormatrix>
            <femerge>
                <femergenode in="shadowmatrixouter1"></femergenode>
                <femergenode in="SourceGraphic"></femergenode>
                <femergenode in="shadowMatrixInner1"></femergenode>
            </femerge>
        </filter>
    </defs>
    <g id="@FlatGuricht_StuckoMoskwa" stroke="none" stroke-width="1" fill="none" fill-rule="evenodd" sketch:type="MSPage">
        <g id="final-buttons" sketch:type="MSArtboardGroup" transform="translate(-553.000000, -27.000000)">
            <g id="about" sketch:type="MSLayerGroup" transform="translate(559.000000, 30.000000)">
                <path d="M109.459577,216.817728 C169.912432,216.817728 218.919154,168.281426 218.919154,108.408864 C218.919154,48.5363017 169.912432,0 109.459577,0 C49.006722,0 0,48.5363017 0,108.408864 C0,168.281426 49.006722,216.817728 109.459577,216.817728 Z" id="BG_about" fill="#448AFF" filter="url(#filter-1)" sketch:type="MSShapeGroup"></path>
                <path d="M71.3705357,147.204882 C71.9106199,144.952208 72.9570172,142.836092 74.5097591,140.85647 C76.0625011,138.876848 77.851503,137.272695 79.8768185,136.043964 C81.9021341,134.815233 84.231212,133.620651 86.8641222,132.460183 C89.4970325,131.299715 91.8936199,130.446442 94.0539565,129.900339 C96.2142931,129.354237 98.4758616,128.808142 100.83873,128.26204 C101.311303,127.511148 101.547587,126.333632 101.547587,124.729455 C101.547587,123.125279 101.277549,120.753181 100.737464,117.61309 L100.028608,116.79394 C98.9484392,118.568774 97.2269468,120.138796 94.8640787,121.504053 C92.5012105,122.869309 90.0708683,123.586058 87.5729791,123.654321 C90.813484,119.558551 92.4337122,115.155664 92.4337122,110.445528 C92.4337122,107.715015 91.9949004,105.906077 91.1172636,105.01866 C90.779711,104.677346 90.4421635,104.609084 90.1046109,104.813873 C89.4970163,105.22345 88.5181284,105.735413 87.1679181,106.349779 C85.8177077,106.964144 84.6025366,107.476108 83.5223683,107.885685 L81.9021239,108.500047 C83.7249079,107.203053 85.1426076,105.325854 86.1552653,102.868391 C87.1679231,100.410929 88.0793014,97.4415405 88.8894277,93.9601358 C89.0919592,92.6631419 89.4970163,90.444633 90.1046109,87.3045425 C90.7122056,84.164452 91.1172626,81.7752886 91.3197942,80.1369805 C91.8598783,78.0890954 93.1763137,76.2118956 95.2691398,74.5053247 C97.767029,72.5257024 100.872466,71.1604662 104.585545,70.409575 C105.935755,70.1365236 107.3197,70 108.737421,70 C111.910415,70 114.71206,70.5802254 117.142438,71.7406936 C122.475769,74.1298929 126.188792,78.6693034 128.281618,85.3590614 C129.969381,90.4787741 130.81325,95.3594937 130.81325,100.001367 C130.81325,105.598919 129.631834,110.240722 127.268966,113.926916 C126.661371,114.882595 126.053785,115.735868 125.446191,116.486759 C124.838596,117.23765 124.332275,117.749614 123.927212,118.022665 L123.31962,118.43224 C124.804851,114.746047 125.547456,111.367087 125.547456,108.29526 L125.446191,106.65696 L123.825946,108.807228 C123.623415,109.489857 123.488396,110.138344 123.420885,110.75271 L123.218355,112.186222 C123.150844,112.527536 122.98207,112.902976 122.712028,113.312553 C122.441986,113.72213 121.96942,114.302356 121.294315,115.053247 C120.619209,115.804138 119.707831,116.691542 118.560152,117.715484 C118.560152,118.261587 118.425133,119.422038 118.155091,121.196871 C117.885049,122.971705 117.75003,124.30281 117.75003,125.190227 C117.75003,126.828535 118.020068,128.057248 118.560152,128.876402 C119.910363,129.149453 121.631855,129.627286 123.724681,130.309914 C135.741553,134.200896 143.235108,139.832496 146.205571,147.204882 L71.3705357,147.204882 Z M97.8007716,98.5678542 C97.8007716,100.888791 98.0033001,103.414478 98.4083632,106.144991 L99.4210159,112.698191 C99.691058,114.336499 99.8935865,115.155641 100.028608,115.155641 L101.750117,116.896334 C102.290201,117.442437 103.539127,118.466364 105.496932,119.968146 C107.454737,121.469929 108.771173,122.186678 109.446278,122.118415 C110.323915,122.118415 111.471576,121.640582 112.889297,120.684903 C114.307018,119.729223 115.758472,118.466379 117.243704,116.896334 L118.560152,115.667609 L120.585458,113.619734 C121.463094,112.732318 121.935661,112.220354 122.003171,112.083828 L122.914559,106.247385 C122.644517,104.472551 121.935667,102.288173 120.787988,99.6941854 C119.640309,97.1001976 118.526403,94.9840814 117.446234,93.3457733 L115.82599,90.9907173 C115.8935,91.3320314 115.96101,91.843995 116.02852,92.5266234 C116.096031,93.2092518 116.568597,94.4379644 117.446234,96.2127981 C118.323871,97.9876319 119.404023,99.6941772 120.686723,101.332485 C117.581239,100.172017 114.779595,98.9433044 112.281705,97.6463105 C109.783816,96.3493166 107.89355,95.120604 106.61085,93.9601358 C105.32815,92.7996676 104.214243,91.7074786 103.269096,90.683536 C102.323949,89.6595935 101.783873,88.8404517 101.648852,88.2260862 C101.513831,87.6117207 101.446321,87.133888 101.446321,86.7925738 C99.0159427,88.4991447 97.8007716,92.4241989 97.8007716,98.5678542 L97.8007716,98.5678542 Z M98.4083632,134.405664 C98.4083632,136.180498 99.52227,137.682258 101.750117,138.910989 C103.977964,140.13972 106.627712,140.754076 109.699441,140.754076 C112.77117,140.754076 115.387163,140.13972 117.547499,138.910989 C119.707836,137.682258 120.821743,136.180498 120.889253,134.405664 C120.889253,133.176933 120.349177,132.084744 119.269009,131.129064 L119.167744,130.924277 C119.100233,130.924277 118.796441,130.719491 118.256356,130.309914 L118.155091,130.207521 C117.547496,129.593155 117.142439,128.978799 116.939908,128.364433 C116.669866,127.408754 116.534847,126.180041 116.534847,124.678259 C116.534847,122.971688 116.669866,121.128619 116.939908,119.148997 C115.85974,120.44599 114.644568,121.435787 113.294358,122.118415 C111.944148,122.801043 110.728977,123.176483 109.648808,123.244746 L109.547543,123.244746 C108.872438,123.244746 107.826041,122.903437 106.40832,122.220809 C104.923088,121.401655 103.539143,120.377728 102.256443,119.148997 C102.593996,121.87951 102.76277,123.824972 102.76277,124.98544 C102.76277,126.145908 102.627751,127.135704 102.357709,127.954858 C102.155177,128.569224 101.75012,129.285973 101.142526,130.105127 L101.04126,130.309914 C100.771218,130.44644 100.467425,130.651226 100.129873,130.924277 L100.028608,131.129064 C98.9484392,132.22127 98.4083632,133.313459 98.4083632,134.405664 L98.4083632,134.405664 Z" fill="#EEEEEE" sketch:type="MSShapeGroup"></path>
            </g>
        </g>
    </g>
</svg>