<?xml version="1.0" encoding="UTF-8" standalone="no"?>
<svg width="52px" height="52px" viewBox="0 0 52 52" version="1.1" xmlns="http://www.w3.org/2000/svg" xmlns:xlink="http://www.w3.org/1999/xlink" xmlns:sketch="http://www.bohemiancoding.com/sketch/ns">
    <!-- Generator: Sketch 3.4.2 (15857) - http://www.bohemiancoding.com/sketch -->
    <title>aboutguricons</title>
    <desc>Created with Sketch.</desc>
    <defs>
        <filter x="-50%" y="-50%" width="200%" height="200%" filterUnits="objectboundingbox" id="filter-1">
            <feoffset dx="0" dy="1" in="SourceAlpha" result="shadowoffsetouter1"></feoffset>
            <fegaussianblur stdDeviation="0.5" in="shadowoffsetouter1" result="shadowblurouter1"></fegaussianblur>
            <fecolormatrix values="0 0 0 0 0   0 0 0 0 0   0 0 0 0 0  0 0 0 0.28 0" in="shadowblurouter1" type="matrix" result="shadowmatrixouter1"></fecolormatrix>
            <femerge>
                <femergenode in="shadowmatrixouter1"></femergenode>
                <femergenode in="SourceGraphic"></femergenode>
            </femerge>
        </filter>
    </defs>
    <g id="Page-1" stroke="none" stroke-width="1" fill="none" fill-rule="evenodd" sketch:type="MSPage">
        <g id="Desktop" sketch:type="MSArtboardGroup" transform="translate(-153.000000, -461.000000)">
            <g id="about" sketch:type="MSLayerGroup" transform="translate(154.000000, 461.000000)">
                <path d="M24.9775442,49.4683281 C38.7722609,49.4683281 49.9550883,38.3944657 49.9550883,24.7341641 C49.9550883,11.0738625 38.7722609,0 24.9775442,0 C11.1828274,0 0,11.0738625 0,24.7341641 C0,38.3944657 11.1828274,49.4683281 24.9775442,49.4683281 Z" id="BG_about" fill="#448AFF" filter="url(#filter-1)" sketch:type="MSShapeGroup"></path>
                <path d="M16.2860186,32.5857196 C16.4092602,32.0717579 16.6480372,31.5889527 17.0023569,31.1372894 C17.3566766,30.6856262 17.7649083,30.3196287 18.2270644,30.0392859 C18.6892205,29.7589432 19.220692,29.4863919 19.8214949,29.2216238 C20.4222978,28.9568556 20.9691743,28.7621761 21.4621407,28.6375794 C21.9551072,28.5129826 22.4711738,28.3883877 23.0103559,28.2637909 C23.1181923,28.0924704 23.1721097,27.8238126 23.1721097,27.4578097 C23.1721097,27.0918067 23.1104898,26.5505976 22.9872482,25.8341662 L22.8254944,25.647272 C22.5790111,26.0522115 22.1861843,26.4104218 21.6470023,26.7219137 C21.1078202,27.0334056 20.5532412,27.1969364 19.9832487,27.212511 C20.7226984,26.2780353 21.0924177,25.2734889 21.0924177,24.1988419 C21.0924177,23.575858 20.9922854,23.1631374 20.7920178,22.9606677 C20.7149918,22.8827947 20.6379669,22.8672204 20.5609409,22.9139442 C20.4222941,23.0073917 20.198922,23.1241994 19.8908179,23.2643708 C19.5827139,23.4045422 19.3054244,23.5213499 19.0589412,23.6147974 L18.6892182,23.7549681 C19.1051586,23.4590508 19.428663,23.0307558 19.6597411,22.4700704 C19.8908191,21.909385 20.0987862,21.2319002 20.2836486,20.4375959 C20.3298642,20.1416786 20.4222941,19.6355118 20.5609409,18.9190804 C20.6995877,18.202649 20.7920176,17.6575464 20.8382332,17.2837561 C20.9614748,16.8165182 21.2618717,16.3882233 21.739433,15.9988584 C22.3094255,15.5471951 23.0180542,15.2357079 23.8653403,15.0643873 C24.1734444,15.0020889 24.4892463,14.9709402 24.8127555,14.9709402 C25.5368001,14.9709402 26.1761064,15.1033223 26.7306937,15.3680904 C27.9477047,15.9132012 28.7949781,16.9488963 29.2725394,18.4752067 C29.6576694,19.6433013 29.8502316,20.7568682 29.8502316,21.8159407 C29.8502316,23.0930575 29.5806446,24.1521141 29.0414625,24.9931422 C28.9028157,25.2111866 28.7641709,25.4058661 28.6255241,25.5771867 C28.4868773,25.7485072 28.37134,25.8653149 28.2789088,25.9276133 L28.1402627,26.0210604 C28.4791771,25.1800323 28.6486318,24.4091013 28.6486318,23.7082446 L28.6255241,23.3344561 L28.2558011,23.8250534 C28.2095855,23.9807994 28.1787755,24.1287558 28.1633703,24.2689272 L28.117155,24.5959921 C28.1017498,24.673865 28.0632373,24.759524 28.0016165,24.8529716 C27.9399957,24.9464192 27.8321609,25.0788012 27.6781089,25.2501218 C27.5240569,25.4214423 27.3160897,25.623909 27.0542013,25.857528 C27.0542013,25.9821247 27.0233914,26.2468889 26.9617706,26.6518284 C26.9001497,27.0567678 26.8693398,27.3604679 26.8693398,27.5629376 C26.8693398,27.9367279 26.9309597,28.2170664 27.0542013,28.4039616 C27.3623054,28.46626 27.7551321,28.5752805 28.2326934,28.7310265 C30.9748195,29.6187784 32.6847713,30.9036632 33.3626002,32.5857196 L16.2860186,32.5857196 Z M22.3171252,21.4888758 C22.3171252,22.018412 22.3633401,22.5946634 22.4557713,23.2176472 L22.6868482,24.7128009 C22.748469,25.0865912 22.7946839,25.2734836 22.8254944,25.2734836 L23.2183251,25.6706338 C23.3415667,25.7952305 23.6265586,26.028846 24.0733095,26.3714871 C24.5200604,26.7141282 24.8204573,26.877659 24.9745094,26.8620844 C25.174777,26.8620844 25.4366615,26.7530638 25.7601708,26.5350195 C26.08368,26.3169752 26.4148869,26.0288495 26.7538014,25.6706338 L27.0542013,25.3902924 L27.5163551,24.9230569 C27.7166227,24.7205872 27.8244575,24.6037795 27.8398627,24.5726303 L28.0478319,23.241009 C27.9862111,22.8360695 27.8244589,22.33769 27.5625704,21.7458553 C27.300682,21.1540207 27.0465,20.6712155 26.8000167,20.2974252 L26.4302937,19.7601044 C26.4456989,19.8379773 26.4611039,19.954785 26.4765091,20.110531 C26.4919143,20.266277 26.5997491,20.5466155 26.8000167,20.9515549 C27.0002844,21.3564944 27.2467639,21.7458535 27.5394628,22.1196438 C26.8308234,21.8548756 26.1915171,21.5745371 25.6215246,21.2786198 C25.0515321,20.9827025 24.6201929,20.702364 24.3274941,20.4375959 C24.0347952,20.1728277 23.7806132,19.923638 23.5649404,19.690019 C23.3492675,19.4564001 23.2260278,19.2695078 23.1952174,19.1293364 C23.164407,18.989165 23.149002,18.8801445 23.149002,18.8022715 C22.5944147,19.1916364 22.3171252,20.0871622 22.3171252,21.4888758 L22.3171252,21.4888758 Z M22.4557713,29.6654975 C22.4557713,30.070437 22.7099534,30.413073 23.2183251,30.6934157 C23.7266967,30.9737584 24.3313419,31.1139276 25.0322786,31.1139276 C25.7332153,31.1139276 26.3301579,30.9737584 26.8231244,30.6934157 C27.3160909,30.413073 27.5702729,30.070437 27.5856781,29.6654975 C27.5856781,29.3851548 27.4624384,29.135965 27.2159551,28.9179207 L27.1928474,28.8711971 C27.1774422,28.8711971 27.1081199,28.824474 26.9848782,28.7310265 L26.9617706,28.7076647 C26.8231237,28.5674933 26.7306939,28.4273241 26.6844783,28.2871527 C26.6228575,28.0691084 26.5920475,27.7887699 26.5920475,27.4461288 C26.5920475,27.0567639 26.6228575,26.6362561 26.6844783,26.1845928 C26.4379951,26.4805102 26.1607056,26.7063384 25.8526015,26.8620844 C25.5444975,27.0178303 25.267208,27.1034893 25.0207247,27.1190639 L24.997617,27.1190639 C24.843565,27.1190639 24.604788,27.0411921 24.2812787,26.8854461 C23.9423643,26.698551 23.6265623,26.4649356 23.3338635,26.1845928 C23.4108895,26.8075767 23.4494019,27.251446 23.4494019,27.5162141 C23.4494019,27.7809822 23.418592,28.0068105 23.3569712,28.1937056 C23.3107556,28.333877 23.2183257,28.4974078 23.0796789,28.6843029 L23.0565712,28.7310265 C22.9949504,28.7621757 22.9256281,28.8088987 22.848602,28.8711971 L22.8254944,28.9179207 C22.5790111,29.1671142 22.4557713,29.416304 22.4557713,29.6654975 L22.4557713,29.6654975 Z" fill="#EEEEEE" sketch:type="MSShapeGroup"></path>
            </g>
        </g>
    </g>
</svg>