<?xml version="1.0" encoding="UTF-8" standalone="no"?>
<svg width="105px" height="38px" viewBox="0 0 105 38" version="1.1" xmlns="http://www.w3.org/2000/svg" xmlns:xlink="http://www.w3.org/1999/xlink" xmlns:sketch="http://www.bohemiancoding.com/sketch/ns">
    <!-- Generator: Sketch 3.4.2 (15857) - http://www.bohemiancoding.com/sketch -->
    <title>bv_alt_1</title>
    <desc>Created with Sketch.</desc>
    <defs></defs>
    <g id="@FlatGuricht" stroke="none" stroke-width="1" fill="none" fill-rule="evenodd" sketch:type="MSPage">
        <g id="bv" sketch:type="MSArtboardGroup" transform="translate(-661.000000, -581.000000)">
            <g id="bv_alt_1" sketch:type="MSLayerGroup" transform="translate(661.000000, 581.000000)">
                <rect id="Rectangle-13" stroke="#979797" fill="#FFECB3" sketch:type="MSShapeGroup" x="0" y="0" width="104.5" height="38"></rect>
                <path d="M17.4749164,7.38888889 L87.3745819,7.38888889 L87.3745819,16.8888889 L17.4749164,16.8888889 L17.4749164,7.38888889 Z M24.5228997,10.4967963 C24.5228997,9.87097495 24.3387724,9.39820355 23.9705176,9.07848148 C23.6022661,8.75876564 23.0059636,8.59890741 22.1816104,8.59890741 L20.7727826,8.59890741 L20.7727826,15.8333333 L22.5870284,15.8333333 C23.3775936,15.8333333 23.9637607,15.6564692 24.3455293,15.3027407 C24.7272978,14.9490123 24.9181823,14.4796419 24.9181823,13.8946296 C24.9181823,13.6157306 24.867505,13.3623387 24.7661505,13.1344537 C24.664796,12.9065709 24.5549952,12.7348087 24.4367483,12.6191667 C24.3185015,12.5035246 24.169848,12.4014876 23.9907885,12.3130556 C23.8117289,12.2246373 23.6934818,12.1719182 23.6360477,12.1548981 C23.5786135,12.1378921 23.5059759,12.1191852 23.4181355,12.0987778 C23.4654326,12.0851727 23.517799,12.0664662 23.5752349,12.0426574 C23.6326691,12.0188487 23.722199,11.9644291 23.8438244,11.8793981 C23.9654498,11.7943672 24.0735612,11.697432 24.1681589,11.5885926 C24.2627565,11.4797532 24.3455293,11.3283981 24.4164774,11.1345278 C24.4874256,10.9406574 24.5228997,10.7280801 24.5228997,10.4967963 Z M22.4451321,12.4661111 C23.6546294,12.4661111 24.2593779,12.9490865 24.2593779,13.915037 C24.2593779,14.4116167 24.1039676,14.7619438 23.7931472,14.9660185 C23.4823267,15.1700926 23.0465023,15.2721296 22.4856739,15.2721296 L21.431587,15.2721296 L21.431587,12.4661111 L22.4451321,12.4661111 Z M21.431587,9.17031481 L22.1410686,9.17031481 C22.8032515,9.17031481 23.2559682,9.28765741 23.4992191,9.52234259 C23.7424699,9.75702778 23.8640953,10.0886481 23.8640953,10.5172037 C23.8640953,11.4423394 23.2863746,11.9049074 22.1309331,11.9049074 L21.431587,11.9049074 L21.431587,9.17031481 Z M26.9493268,12.7212037 C26.9493268,14.870784 27.7973261,15.9455741 29.4933251,15.9455741 C31.17581,15.9455741 32.0170525,14.8673827 32.0170525,12.711 L32.0170525,8.59890741 L31.3683836,8.59890741 L31.3683836,12.5885556 C31.3683836,13.5068889 31.2231087,14.1939382 30.9325592,14.6497037 C30.6420097,15.105469 30.1622649,15.3333519 29.4933251,15.3333519 C28.8243853,15.3333519 28.3429513,15.1003673 28.0490232,14.6343981 C27.7550952,14.168429 27.6081311,13.4864815 27.6081311,12.5885556 L27.6081311,8.59890741 L26.9493268,8.59890741 L26.9493268,12.7212037 Z M35.0921485,12.4150926 L37.7172304,15.8333333 L38.5787438,15.8333333 L35.8624428,12.4150926 L35.9131201,12.4150926 C36.6969284,12.4150926 37.2763383,12.2382283 37.65135,11.8845 C38.0263617,11.5307717 38.2138676,11.071605 38.2138676,10.507 C38.2138676,9.23493806 37.4233024,8.59890741 35.8421719,8.59890741 L34.4333442,8.59890741 L34.4333442,15.8333333 L35.102284,15.8333333 L35.0921485,12.4150926 Z M35.0921485,9.17031481 L35.8016301,9.17031481 C36.463813,9.17031481 36.9215975,9.28935823 37.1749838,9.52744444 C37.4283701,9.76553066 37.5550632,10.0920492 37.5550632,10.507 C37.5550632,10.9491559 37.4182346,11.2841776 37.1445774,11.5120648 C36.8709202,11.7399476 36.4300281,11.8538889 35.821901,11.8538889 L35.0921485,11.8538889 L35.0921485,9.17031481 Z M47.2384736,11.9967407 L42.9511776,11.9967407 L42.9511776,12.5681481 L46.5898047,12.5681481 C46.5898047,12.6769876 46.584737,12.7858273 46.5746015,12.8946667 C46.5644661,13.0035061 46.537438,13.1565616 46.4935179,13.3538333 C46.4495978,13.5511049 46.3938528,13.7313704 46.326283,13.8946296 C46.2587131,14.0578889 46.1539803,14.2313519 46.012084,14.4150185 C45.8701876,14.5986852 45.706331,14.7551421 45.5205146,14.8843889 C45.3346982,15.0136357 45.096515,15.1207746 44.8059652,15.2058056 C44.5154157,15.2908365 44.1910813,15.3333519 43.8329619,15.3333519 C42.9883408,15.3333519 42.2687238,15.044247 41.6741107,14.466037 C41.0794975,13.8878271 40.782191,13.1361542 40.782191,12.2110185 C40.782191,11.2994876 41.0693621,10.5529167 41.6437044,9.97130556 C42.2180465,9.38969444 42.9309067,9.09888889 43.7822846,9.09888889 C44.0795913,9.09888889 44.3650731,9.13630268 44.6387303,9.21112963 C44.9123875,9.28595658 45.133678,9.37098786 45.3026024,9.46622222 C45.4715268,9.56145658 45.6286263,9.6702963 45.7739009,9.79274074 C45.9191513,9.91518519 46.0137487,10.0002158 46.0576935,10.0478333 C46.1016136,10.095363 46.1337094,10.1327768 46.1539803,10.1600741 L46.5999401,9.71111111 L46.4884502,9.58866667 C46.4208871,9.50023436 46.3077077,9.39649712 46.1489126,9.2774537 C45.9901236,9.15841029 45.8076855,9.03936749 45.6015982,8.92032407 C45.3955109,8.80128066 45.1302997,8.69924362 44.8059652,8.61421296 C44.4816308,8.52918231 44.140404,8.48666667 43.7822846,8.48666667 C42.7552254,8.48666667 41.886955,8.84039527 41.1774736,9.54785185 C40.467992,10.2553084 40.1132512,11.1498333 40.1132512,12.2314259 C40.113251,12.9933024 40.2923107,13.6616451 40.6504301,14.2364537 C41.008549,14.8112623 41.4629551,15.239818 42.0136483,15.5221204 C42.5643413,15.8044229 43.1640221,15.9455741 43.812691,15.9455741 C44.4343321,15.9455741 44.9732002,15.843537 45.4292955,15.639463 C45.8853908,15.435389 46.2451993,15.1479847 46.5087211,14.77725 C46.7722428,14.4065158 46.963127,13.9898646 47.0813741,13.5272963 C47.1996212,13.0647283 47.2519873,12.5545431 47.2384736,11.9967407 L47.2384736,11.9967407 Z M53.9623321,15.8333333 L54.6211365,15.8333333 L54.6211365,8.59890741 L53.9623321,8.59890741 L53.9623321,11.9049074 L50.0601833,11.9049074 L50.0601833,8.59890741 L49.4013789,8.59890741 L49.4013789,15.8333333 L50.0601833,15.8333333 L50.0601833,12.4763148 L53.9623321,12.4763148 L53.9623321,15.8333333 Z M62.1152893,15.8333333 L62.8349064,15.8333333 L59.8956254,8.59890741 L59.3888529,8.59890741 L56.4394365,15.8333333 L57.1185117,15.8333333 L58.000296,13.5987222 L61.233505,13.5987222 L62.1152893,15.8333333 Z M59.6118328,9.49683333 L61.0003897,13.0171111 L58.2232759,13.0171111 L59.6118328,9.49683333 Z M65.3120107,12.4150926 L67.9370927,15.8333333 L68.798606,15.8333333 L66.082305,12.4150926 L66.1329823,12.4150926 C66.9167907,12.4150926 67.4962005,12.2382283 67.8712122,11.8845 C68.2462239,11.5307717 68.4337298,11.071605 68.4337298,10.507 C68.4337298,9.23493806 67.6431646,8.59890741 66.0620341,8.59890741 L64.6532064,8.59890741 L64.6532064,15.8333333 L65.3221462,15.8333333 L65.3120107,12.4150926 Z M65.3120107,9.17031481 L66.0214923,9.17031481 C66.6836753,9.17031481 67.1414597,9.28935823 67.394846,9.52744444 C67.6482323,9.76553066 67.7749254,10.0920492 67.7749254,10.507 C67.7749254,10.9491559 67.6380969,11.2841776 67.3644397,11.5120648 C67.0907825,11.7399476 66.6498903,11.8538889 66.0417632,11.8538889 L65.3120107,11.8538889 L65.3120107,9.17031481 Z M72.1574947,15.8333333 C73.3264502,15.8333333 74.2386408,15.5170185 74.8940666,14.8843889 C75.5494927,14.2517594 75.8772054,13.360636 75.8772054,12.2110185 C75.8772054,11.0205865 75.5444249,10.1209601 74.8788634,9.51213889 C74.2133022,8.90331769 73.2791512,8.59890741 72.0764111,8.59890741 L70.8196151,8.59890741 L70.8196151,15.8333333 L72.1574947,15.8333333 Z M75.2082656,12.2110185 C75.2082656,13.176969 74.9481224,13.9269414 74.4278358,14.4609352 C73.9075492,14.994929 73.1507689,15.2619259 72.1574947,15.2619259 L71.4784194,15.2619259 L71.4784194,9.17031481 L72.0764111,9.17031481 C73.1102271,9.17031481 73.8906569,9.43050926 74.4177004,9.95089815 C74.9447438,10.471287 75.2082656,11.2246606 75.2082656,12.2110185 L75.2082656,12.2110185 Z" id="Rectangle-11" fill="#727272" sketch:type="MSShapeGroup"></path>
                <g id="vogel" transform="translate(18.872910, 11.962963)" fill="#FFFFFF" sketch:type="MSShapeGroup">
                    <path d="M13.4626756,5.27496296 L9.51194649,5.27496296 L8.02727759,9.4042963 C7.62465552,10.518963 7.22203344,11.8616296 6.81941137,13.4322963 L6.64326421,12.8242963 C6.5426087,12.4020739 6.39162542,11.8531853 6.19031438,11.1776296 C5.98900334,10.5020759 5.79608014,9.90252058 5.61154515,9.37896296 L4.12687625,5.27496296 L0.0503277592,5.27496296 L5.33474247,18.2962963 L8.12793311,18.2962963 L13.4626756,5.27496296 Z M14.418903,11.7602963 C14.418903,13.8038516 15.0647757,15.4547406 16.3565217,16.712963 C17.6482663,17.9711853 19.3090823,18.6002963 21.3389699,18.6002963 C23.3520803,18.6002963 25.0128963,17.9585186 26.3214181,16.674963 C27.6299398,15.3914077 28.2842007,13.7531853 28.2842007,11.7602963 C28.2842007,9.75051826 27.6425217,8.1122963 26.3591639,6.84562963 C25.075806,5.57896296 23.402408,4.94562963 21.3389699,4.94562963 C19.3258595,4.94562963 17.6692376,5.58318493 16.3691037,6.8582963 C15.0689698,8.13340767 14.418903,9.76740767 14.418903,11.7602963 L14.418903,11.7602963 Z M18.2689766,11.7602963 C18.2689766,10.6962963 18.5415852,9.84340767 19.0868027,9.20162963 C19.6320202,8.55985159 20.3827425,8.23896296 21.3389699,8.23896296 C22.2951973,8.23896296 23.0501137,8.55562963 23.6037191,9.18896296 C24.1573244,9.8222963 24.4341271,10.6794077 24.4341271,11.7602963 C24.4341271,12.8411853 24.1573244,13.7025186 23.6037191,14.3442963 C23.0501137,14.9860739 22.2951973,15.306963 21.3389699,15.306963 C20.3827425,15.3069661 19.6320202,14.986077 19.0868027,14.3442963 C18.5415852,13.7025186 18.2689766,12.8411853 18.2689766,11.7602963 L18.2689766,11.7602963 Z M43.8103144,5.27496296 L39.9602408,5.27496296 L39.9602408,6.6682963 L39.6079465,6.2882963 C39.3731026,6.01812149 38.9369284,5.74789953 38.2994247,5.47762963 C37.6619395,5.20740689 36.9405753,5.0722963 36.1353311,5.0722963 C34.4241873,5.0722963 32.9730701,5.66340767 31.7819799,6.84562963 C30.5908894,8.02785159 29.9953445,9.6322963 29.9953445,11.658963 C29.9953445,13.786963 30.5699196,15.3702963 31.7190702,16.408963 C32.8682209,17.4476296 34.3235318,17.966963 36.0850033,17.966963 C36.5882809,17.966963 37.0705884,17.907852 37.5319264,17.7896296 C37.9932645,17.6714073 38.3581407,17.5362963 38.6265552,17.3842963 C38.8949696,17.2322963 39.1466084,17.0591853 39.3814716,16.864963 C39.6163347,16.670741 39.7631235,16.5356296 39.8218395,16.4596296 C39.8805554,16.3836296 39.9266887,16.3202963 39.9602408,16.2696296 L39.9602408,17.130963 C39.9602408,18.1274073 39.7002138,18.840963 39.1801605,19.2716296 C38.6601073,19.7022963 37.7961472,19.9176296 36.5882809,19.9176296 C35.9340201,19.9176296 35.2671773,19.790963 34.5877525,19.5376296 C33.9083278,19.2842963 33.4553779,19.0816296 33.228903,18.9296296 C33.0024281,18.7776296 32.8220868,18.650963 32.6878796,18.5496296 L31.2032107,21.6402963 L31.8826355,22.0456296 C32.3355853,22.3327406 33.0527559,22.6156296 34.0341472,22.8942963 C35.0155385,23.172963 36.0262874,23.3122963 37.0663946,23.3122963 C41.5623416,23.3122963 43.8103144,21.0914073 43.8103144,16.6496296 L43.8103144,5.27496296 Z M33.8454181,11.5322963 C33.8454181,10.6202963 34.1180266,9.868741 34.6632441,9.27762963 C35.2084617,8.68651826 35.9340201,8.39096296 36.8399197,8.39096296 C37.7961472,8.39096296 38.5678392,8.67385159 39.1549967,9.23962963 C39.7421541,9.80540767 40.0357324,10.5696296 40.0357324,11.5322963 C40.0357324,12.511852 39.754736,13.2802963 39.1927425,13.8376296 C38.6307489,14.394963 37.8632506,14.6736296 36.8902475,14.6736296 C35.9508019,14.6736296 35.2084674,14.3822963 34.6632441,13.7996296 C34.1180266,13.216963 33.8454181,12.4611853 33.8454181,11.5322963 L33.8454181,11.5322963 Z M56.7445485,13.8376296 L56.3670903,14.2176296 C56.0986758,14.470963 55.6708899,14.7200739 55.0837324,14.964963 C54.4965927,15.2098516 53.8842713,15.3322963 53.2467692,15.3322963 C52.6763882,15.3322963 52.1773043,15.2520743 51.7495184,15.0916296 C51.3217324,14.9311853 51.0029898,14.7496296 50.793291,14.546963 C50.5835921,14.3442963 50.4116387,14.1162963 50.2774314,13.862963 C50.1432242,13.6096296 50.0635385,13.4322963 50.0383746,13.330963 C50.0132107,13.2296296 50.0006288,13.1451853 50.0006288,13.0776296 L59.5125753,13.0776296 L59.5125753,12.418963 C59.5125753,10.1051849 58.9128366,8.28962963 57.7133579,6.9722963 C56.5138799,5.65496296 54.8572575,4.9962963 52.7434916,4.9962963 C50.7974858,4.9962963 49.1869976,5.62540767 47.9120268,6.88362963 C46.6370567,8.14185159 45.9995719,9.76740767 45.9995719,11.7602963 C45.9995719,13.8714061 46.6244748,15.5307395 47.8742809,16.7382963 C49.1240871,17.945852 50.8981402,18.5496296 53.1964415,18.5496296 C53.9178058,18.5496296 54.6056187,18.4694073 55.2598796,18.308963 C55.9141405,18.1485186 56.4383882,17.966963 56.8326221,17.7642963 C57.2268329,17.5616296 57.5959029,17.3294077 57.9398328,17.0676296 C58.2837396,16.805852 58.5018256,16.6242963 58.5940936,16.522963 C58.6863617,16.4216296 58.7576589,16.3371849 58.8079866,16.2696296 L56.7445485,13.8376296 Z M50.0257926,10.4176296 L50.0761204,10.1896296 C50.0928964,10.0376296 50.1599999,9.85185159 50.2774314,9.6322963 C50.394863,9.41277502 50.5458463,9.19321972 50.7303813,8.97362963 C50.9149163,8.75407433 51.1833311,8.5682963 51.5356254,8.4162963 C51.8879197,8.2642963 52.2905418,8.1882963 52.7434916,8.1882963 C53.1964415,8.1882963 53.5990635,8.26851826 53.9513579,8.42896296 C54.3036522,8.58940767 54.5720666,8.766741 54.756602,8.96096296 C54.9411374,9.15518493 55.0963144,9.38318493 55.2221338,9.64496296 C55.3479532,9.906741 55.4192511,10.0840743 55.4360268,10.176963 C55.4527832,10.2698516 55.4695589,10.3500743 55.4863545,10.4176296 L50.0257926,10.4176296 Z M65.4512508,0.334962963 L61.6263411,0.334962963 L61.6263411,18.2962963 L65.4512508,18.2962963 L65.4512508,0.334962963 Z"></path>
                </g>
            </g>
        </g>
    </g>
</svg>