<?xml version="1.0" encoding="UTF-8" standalone="no"?>
<svg width="95px" height="38px" viewBox="0 0 95 38" version="1.1" xmlns="http://www.w3.org/2000/svg" xmlns:xlink="http://www.w3.org/1999/xlink" xmlns:sketch="http://www.bohemiancoding.com/sketch/ns">
    <!-- Generator: Sketch 3.4.2 (15857) - http://www.bohemiancoding.com/sketch -->
    <title>bv_blau</title>
    <desc>Created with Sketch.</desc>
    <defs></defs>
    <g id="@FlatGuricht" stroke="none" stroke-width="1" fill="none" fill-rule="evenodd" sketch:type="MSPage">
        <g id="bv" sketch:type="MSArtboardGroup" transform="translate(-661.000000, -165.000000)">
            <g id="bv_blau" sketch:type="MSLayerGroup" transform="translate(661.000000, 165.000000)">
                <g id="Rectangle-11-+-vogel-+-BURGHARD" sketch:type="MSShapeGroup">
                    <rect id="Rectangle-11" fill="#000000" x="0" y="0" width="95" height="12.825"></rect>
                    <g id="vogel" transform="translate(2.800000, 6.175000)" fill="#2979FF">
                        <path d="M18.297,7.1212 L12.9276,7.1212 L10.9098,12.6958 C10.3626,14.2006 9.8154,16.0132 9.2682,18.1336 L9.0288,17.3128 C8.892,16.7427998 8.6868,16.0018002 8.4132,15.0898 C8.1396,14.1778024 7.87739983,13.3684028 7.6266,12.6616 L5.6088,7.1212 L0.0684,7.1212 L7.2504,24.7 L11.0466,24.7 L18.297,7.1212 Z M19.5966,15.8764 C19.5966,18.6351997 20.4743997,20.8638998 22.23,22.5625 C23.9855983,24.2611002 26.2427983,25.1104 29.0016,25.1104 C31.7376,25.1104 33.9948,24.2440002 35.7732,22.5112 C37.5516,20.7784003 38.4408,18.5668002 38.4408,15.8764 C38.4408,13.1631997 37.5687,10.9516 35.8245,9.2416 C34.0803,7.5316 31.806,6.6766 29.0016,6.6766 C26.2656,6.6766 24.0141002,7.53729965 22.2471,9.2587 C20.4800998,10.9801003 19.5966,13.1860003 19.5966,15.8764 L19.5966,15.8764 Z M24.8292,15.8764 C24.8292,14.44 25.1996998,13.2886003 25.9407,12.4222 C26.6817002,11.5557997 27.702,11.1226 29.0016,11.1226 C30.3012,11.1226 31.3272,11.5501 32.0796,12.4051 C32.832,13.2601 33.2082,14.4172003 33.2082,15.8764 C33.2082,17.3356002 32.832,18.4984002 32.0796,19.3648 C31.3272,20.2311998 30.3012,20.6644 29.0016,20.6644 C27.702,20.6644042 26.6817002,20.231204 25.9407,19.3648 C25.1996998,18.4984002 24.8292,17.3356002 24.8292,15.8764 L24.8292,15.8764 Z M59.5422,7.1212 L54.3096,7.1212 L54.3096,9.0022 L53.8308,8.4892 C53.5116257,8.12446401 52.9188254,7.75966436 52.0524,7.3948 C51.1859997,7.0299993 50.2056,6.8476 49.1112,6.8476 C46.7856,6.8476 44.8133998,7.64560035 43.1946,9.2416 C41.5757997,10.8375997 40.7664,13.0036 40.7664,15.7396 C40.7664,18.6124 41.5472998,20.7499 43.1091,22.1521 C44.6709002,23.5543 46.6488,24.2554 49.0428,24.2554 C49.7268,24.2554 50.3822997,24.1756002 51.0093,24.016 C51.6363003,23.8563998 52.1322003,23.674 52.497,23.4688 C52.8617997,23.2636 53.2037997,23.0299002 53.523,22.7677 C53.8422003,22.5055003 54.0416997,22.3231 54.1215,22.2205 C54.2013003,22.1179 54.2639997,22.0324 54.3096,21.964 L54.3096,23.1268 C54.3096,24.4719998 53.9561997,25.4353 53.2494,26.0167 C52.5426003,26.5981 51.3684,26.8888 49.7268,26.8888 C48.8376,26.8888 47.9313,26.7178 47.0079,26.3758 C46.0845,26.0338 45.4689,25.7602 45.1611,25.555 C44.8533,25.3498 44.6081998,25.1788 44.4258,25.042 L42.408,29.2144 L43.3314,29.7616 C43.947,30.1491998 44.9217,30.5311 46.2555,30.9073 C47.5893,31.2835 48.9629997,31.4716 50.3766,31.4716 C56.4870007,31.4716 59.5422,28.4733998 59.5422,22.477 L59.5422,7.1212 Z M45.999,15.5686 C45.999,14.3374 46.3694998,13.3228003 47.1105,12.5248 C47.8515002,11.7267997 48.8376,11.3278 50.0688,11.3278 C51.3684,11.3278 52.4171997,11.7096997 53.2152,12.4735 C54.0132003,13.2373003 54.4122,14.269 54.4122,15.5686 C54.4122,16.8910002 54.0303003,17.9284 53.2665,18.6808 C52.5026997,19.4332 51.4595997,19.8094 50.1372,19.8094 C48.860408,19.8094 47.851508,19.4161 47.1105,18.6295 C46.3694998,17.8429 45.999,16.8226002 45.999,15.5686 L45.999,15.5686 Z M77.121,18.6808 L76.608,19.1938 C76.2432003,19.5358 75.6618003,19.8720998 74.8638,20.2027 C74.0658237,20.5332997 73.2336233,20.6986 72.3672,20.6986 C71.5920003,20.6986 70.9137,20.5903003 70.3323,20.3737 C69.7509,20.1571002 69.3176998,19.912 69.0327,19.6384 C68.7477002,19.3648 68.5139998,19.057 68.3316,18.715 C68.1492002,18.373 68.0409,18.1336 68.0067,17.9968 C67.9725,17.86 67.9554,17.7460002 67.9554,17.6548 L80.883,17.6548 L80.883,16.7656 C80.883,13.6419997 80.0679007,11.191 78.4377,9.4126 C76.8075003,7.6342 74.556,6.745 71.6832,6.745 C69.0384012,6.745 66.8496012,7.59430035 65.1168,9.2929 C63.3839998,10.9914997 62.5176,13.1860003 62.5176,15.8764 C62.5176,18.7263983 63.3668998,20.9664983 65.0655,22.5967 C66.7641002,24.2269002 69.1751997,25.042 72.2988,25.042 C73.2791997,25.042 74.214,24.9336998 75.1032,24.7171 C75.9924,24.5005002 76.7049003,24.2554 77.2407,23.9818 C77.7764683,23.7082 78.278068,23.3947003 78.7455,23.0413 C79.2129007,22.6879002 79.5092993,22.4428 79.6347,22.306 C79.7601007,22.1692 79.857,22.0551997 79.9254,21.964 L77.121,18.6808 Z M67.9896,14.0638 L68.058,13.756 C68.0808002,13.5508 68.1719998,13.2999997 68.3316,13.0036 C68.4912002,12.7072463 68.6964002,12.4108466 68.9472,12.1144 C69.1979998,11.8180003 69.5628,11.5672 70.0416,11.362 C70.5204,11.1568 71.0676,11.0542 71.6832,11.0542 C72.2988,11.0542 72.846,11.1624997 73.3248,11.3791 C73.8036,11.5957003 74.1683997,11.8351003 74.4192,12.0973 C74.6700003,12.3594997 74.8809,12.6672997 75.0519,13.0207 C75.2229,13.3741003 75.3198003,13.6135003 75.3426,13.7389 C75.3653736,13.8642997 75.3881732,13.9726003 75.411,14.0638 L67.9896,14.0638 Z M88.9542,0.4522 L83.7558,0.4522 L83.7558,24.7 L88.9542,24.7 L88.9542,0.4522 Z"></path>
                    </g>
                    <path d="M8.57885,4.195675 C8.57885,3.35081618 8.32860431,2.71257479 7.8281125,2.28095 C7.32762532,1.84933361 6.51719601,1.633525 5.396825,1.633525 L3.4821,1.633525 L3.4821,11.4 L5.947825,11.4 C7.022275,11.4 7.81892931,11.1612334 8.3377875,10.6837 C8.85664569,10.2061666 9.116075,9.5725166 9.116075,8.78275 C9.116075,8.40623635 9.0472,8.06415725 8.90945,7.7565125 C8.7717,7.44887069 8.62247069,7.21699181 8.4617625,7.060875 C8.30105431,6.90475819 8.09902069,6.76700819 7.8556625,6.647625 C7.61230431,6.5282603 7.45159569,6.45708961 7.3735375,6.4341125 C7.29547931,6.41115431 7.19675819,6.3859 7.077375,6.35835 C7.14165609,6.33998319 7.21282678,6.31472931 7.2908875,6.2825875 C7.36894569,6.25044569 7.490625,6.17697931 7.655925,6.0621875 C7.821225,5.94739569 7.96815819,5.81653319 8.096725,5.6696 C8.22529181,5.52266681 8.3377875,5.3183375 8.4342125,5.0566125 C8.5306375,4.7948875 8.57885,4.50790819 8.57885,4.195675 L8.57885,4.195675 Z M5.754975,6.85425 C7.39879181,6.85425 8.2207,7.50626681 8.2207,8.8103 C8.2207,9.48068256 8.00948319,9.95362416 7.58705,10.229125 C7.16461681,10.504625 6.57229181,10.642375 5.810075,10.642375 L4.377475,10.642375 L4.377475,6.85425 L5.754975,6.85425 Z M4.377475,2.404925 L5.341725,2.404925 C6.24169181,2.404925 6.856975,2.5633375 7.187575,2.8801625 C7.518175,3.1969875 7.683475,3.644675 7.683475,4.223225 C7.683475,5.47215819 6.8983,6.096625 5.32795,6.096625 L4.377475,6.096625 L4.377475,2.404925 Z M11.876585,7.198625 C11.876585,10.1005584 13.0290932,11.551525 15.33411,11.551525 C17.62076,11.551525 18.764085,10.0959666 18.764085,7.18485 L18.764085,1.633525 L17.882485,1.633525 L17.882485,7.01955 C17.882485,8.2593 17.6850432,9.1868166 17.29016,9.8021 C16.8952768,10.4173832 16.24326,10.725025 15.33411,10.725025 C14.42496,10.725025 13.7706475,10.4104959 13.3711725,9.7814375 C12.9716975,9.1523791 12.77196,8.23175 12.77196,7.01955 L12.77196,1.633525 L11.876585,1.633525 L11.876585,7.198625 Z M22.94342,6.785375 L26.511145,11.4 L27.68202,11.4 L23.99032,6.785375 L24.059195,6.785375 C25.1244618,6.785375 25.9119325,6.54660819 26.4216075,6.069075 C26.9312825,5.59154181 27.18612,4.97166681 27.18612,4.20945 C27.18612,2.49216639 26.11167,1.633525 23.96277,1.633525 L22.048045,1.633525 L22.048045,11.4 L22.957195,11.4 L22.94342,6.785375 Z M22.94342,2.404925 L23.90767,2.404925 C24.8076368,2.404925 25.4298075,2.56563361 25.7741825,2.88705 C26.1185575,3.20846639 26.290745,3.64926639 26.290745,4.20945 C26.290745,4.8063605 26.1047825,5.25863981 25.7328575,5.5662875 C25.3609325,5.87392931 24.76172,6.02775 23.93522,6.02775 L22.94342,6.02775 L22.94342,2.404925 Z M39.45138,6.2206 L33.624555,6.2206 L33.624555,6.992 L38.56978,6.992 C38.56978,7.13893319 38.5628925,7.28586681 38.5491175,7.4328 C38.5353425,7.57973319 38.4986089,7.78635819 38.4389175,8.052675 C38.3792261,8.3189916 38.3034636,8.56235 38.21163,8.78275 C38.1197964,9.00315 37.977455,9.237325 37.784605,9.485275 C37.591755,9.733225 37.3690589,9.94444181 37.1165175,10.118925 C36.8639761,10.2934082 36.5402636,10.4380457 36.14538,10.5528375 C35.7504968,10.6676293 35.3096968,10.725025 34.82298,10.725025 C33.6750632,10.725025 32.6970382,10.3347334 31.888905,9.55415 C31.0807716,8.7735666 30.676705,7.75880819 30.676705,6.509875 C30.676705,5.27930819 31.0669966,4.2714375 31.84758,3.4862625 C32.6281632,2.7010875 33.597005,2.3085 34.754105,2.3085 C35.1581718,2.3085 35.5461675,2.35900861 35.9180925,2.460025 C36.2900175,2.56104139 36.5907714,2.67583361 36.820355,2.8044 C37.0499386,2.93296639 37.2634511,3.0799 37.4608925,3.2452 C37.6583011,3.4105 37.7868675,3.52529139 37.8465925,3.589575 C37.9062839,3.65374007 37.949905,3.70424868 37.977455,3.7411 L38.583555,3.135 L38.43203,2.9697 C38.3402057,2.85031639 38.1863845,2.71027111 37.9705675,2.5495625 C37.7547589,2.38885389 37.5068089,2.22814611 37.2267175,2.0674375 C36.9466261,1.90672889 36.58618,1.76897889 36.14538,1.6541875 C35.70458,1.53939611 35.2408218,1.482 34.754105,1.482 C33.3582382,1.482 32.1781798,1.95953361 31.21393,2.9146 C30.24968,3.86966639 29.767555,5.077275 29.767555,6.537425 C29.7675548,7.56595819 30.0109132,8.4682209 30.49763,9.2442125 C30.9843462,10.0202041 31.6019253,10.5987543 32.3503675,10.9798625 C33.0988093,11.3609709 33.91383,11.551525 34.79543,11.551525 C35.6402968,11.551525 36.3726675,11.413775 36.9925425,11.138275 C37.6124175,10.8627752 38.10143,10.4747793 38.45958,9.9742875 C38.81773,9.47379632 39.0771589,8.91131723 39.2378675,8.28685 C39.3985761,7.66238319 39.4697464,6.97363319 39.45138,6.2206 L39.45138,6.2206 Z M48.589715,11.4 L49.48509,11.4 L49.48509,1.633525 L48.589715,1.633525 L48.589715,6.096625 L43.28634,6.096625 L43.28634,1.633525 L42.390965,1.633525 L42.390965,11.4 L43.28634,11.4 L43.28634,6.868025 L48.589715,6.868025 L48.589715,11.4 Z M59.670325,11.4 L60.64835,11.4 L56.6536,1.633525 L55.96485,1.633525 L51.956325,11.4 L52.87925,11.4 L54.077675,8.383275 L58.4719,8.383275 L59.670325,11.4 Z M56.2679,2.845725 L58.155075,7.5981 L54.380725,7.5981 L56.2679,2.845725 Z M64.01496,6.785375 L67.582685,11.4 L68.75356,11.4 L65.06186,6.785375 L65.130735,6.785375 C66.1960018,6.785375 66.9834725,6.54660819 67.4931475,6.069075 C68.0028225,5.59154181 68.25766,4.97166681 68.25766,4.20945 C68.25766,2.49216639 67.18321,1.633525 65.03431,1.633525 L63.119585,1.633525 L63.119585,11.4 L64.028735,11.4 L64.01496,6.785375 Z M64.01496,2.404925 L64.97921,2.404925 C65.8791768,2.404925 66.5013475,2.56563361 66.8457225,2.88705 C67.1900975,3.20846639 67.362285,3.64926639 67.362285,4.20945 C67.362285,4.8063605 67.1763225,5.25863981 66.8043975,5.5662875 C66.4324725,5.87392931 65.83326,6.02775 65.00676,6.02775 L64.01496,6.02775 L64.01496,2.404925 Z M73.318595,11.4 C74.9073119,11.4 76.1470619,10.972975 77.037845,10.118925 C77.9286287,9.26487521 78.37402,8.06185861 78.37402,6.509875 C78.37402,4.90279181 77.9217412,3.68829611 77.0171825,2.8663875 C76.1126244,2.04447889 74.8430282,1.633525 73.208395,1.633525 L71.500295,1.633525 L71.500295,11.4 L73.318595,11.4 Z M77.46487,6.509875 C77.46487,7.81390819 77.1113119,8.8263709 76.404195,9.5472625 C75.6970782,10.2681541 74.668545,10.6286 73.318595,10.6286 L72.39567,10.6286 L72.39567,2.404925 L73.208395,2.404925 C74.613445,2.404925 75.67412,2.7561875 76.39042,3.4587125 C77.10672,4.1612375 77.46487,5.17829181 77.46487,6.509875 L77.46487,6.509875 Z" id="BURGHARD" fill="#FFFFFF"></path>
                </g>
            </g>
        </g>
    </g>
</svg>