<?xml version="1.0" encoding="UTF-8" standalone="no"?>
<svg width="97px" height="38px" viewBox="0 0 97 38" version="1.1" xmlns="http://www.w3.org/2000/svg" xmlns:xlink="http://www.w3.org/1999/xlink" xmlns:sketch="http://www.bohemiancoding.com/sketch/ns">
    <!-- Generator: Sketch 3.4.2 (15857) - http://www.bohemiancoding.com/sketch -->
    <title>bv_black</title>
    <desc>Created with Sketch.</desc>
    <defs></defs>
    <g id="@FlatGuricht" stroke="none" stroke-width="1" fill="none" fill-rule="evenodd" sketch:type="MSPage">
        <g id="bv" sketch:type="MSArtboardGroup" transform="translate(-661.000000, -330.000000)" fill="#1F1F1F">
            <g id="bv_black" sketch:type="MSLayerGroup" transform="translate(661.000000, 330.000000)">
                <g sketch:type="MSShapeGroup">
                    <path d="M19.7805405,11.2931892 L13.9757838,11.2931892 L11.7943784,17.3197838 C11.2028108,18.9465946 10.6112432,20.9061622 10.0196757,23.1984865 L9.76086486,22.3111351 C9.61297297,21.6949187 9.39113514,20.893838 9.09535135,19.9078919 C8.79956757,18.9219486 8.51610792,18.0469219 8.24497297,17.2828108 L6.06356757,11.2931892 L0.0739459459,11.2931892 L7.83827027,30.2972973 L11.9422703,30.2972973 L19.7805405,11.2931892 Z M21.1855135,20.7582703 C21.1855135,23.7407564 22.1344861,26.150162 24.0324324,27.9864865 C25.9303765,29.822811 28.3705927,30.740973 31.3530811,30.740973 C34.3109189,30.740973 36.7511351,29.8043245 38.6737297,27.931027 C40.5963243,26.0577301 41.5576216,23.666811 41.5576216,20.7582703 C41.5576216,17.8250807 40.6148108,15.4341622 38.7291892,13.5855135 C36.8435676,11.7368649 34.3848649,10.8125405 31.3530811,10.8125405 C28.3952432,10.8125405 25.9611894,11.7430267 24.0509189,13.604 C22.1406485,15.4649733 21.1855135,17.8497301 21.1855135,20.7582703 L21.1855135,20.7582703 Z M26.8423784,20.7582703 C26.8423784,19.2054054 27.2429187,17.960649 28.044,17.024 C28.8450813,16.087351 29.9481081,15.619027 31.3530811,15.619027 C32.7580541,15.619027 33.8672432,16.0811892 34.6806486,17.0055135 C35.4940541,17.9298378 35.9007568,19.1807571 35.9007568,20.7582703 C35.9007568,22.335784 35.4940541,23.5928651 34.6806486,24.5295135 C33.8672432,25.466162 32.7580541,25.9344865 31.3530811,25.9344865 C29.9481081,25.934491 28.8450813,25.4661665 28.044,24.5295135 C27.2429187,23.5928651 26.8423784,22.335784 26.8423784,20.7582703 L26.8423784,20.7582703 Z M64.3699459,11.2931892 L58.7130811,11.2931892 L58.7130811,13.3267027 L58.1954595,12.7721081 C57.8504062,12.3777989 57.209541,11.9834209 56.2728649,11.588973 C55.3362158,11.1945938 54.2763243,10.9974054 53.0931892,10.9974054 C50.579027,10.9974054 48.4469187,11.8601085 46.6968649,13.5855135 C44.9468104,15.3109185 44.0717838,17.6525405 44.0717838,20.6103784 C44.0717838,23.7161081 44.9159998,26.0269189 46.6044324,27.5428108 C48.2928651,29.0587027 50.4311351,29.8166486 53.0192432,29.8166486 C53.7587027,29.8166486 54.467351,29.7303786 55.1451892,29.5578378 C55.8230274,29.3852971 56.3591355,29.1881081 56.7535135,28.9662703 C57.1478915,28.7444324 57.5176212,28.491784 57.8627027,28.2083243 C58.2077842,27.9248652 58.4234591,27.7276757 58.5097297,27.6167568 C58.5960004,27.5058378 58.6637834,27.4134054 58.7130811,27.3394595 L58.7130811,28.5965405 C58.7130811,30.0508106 58.3310267,31.0922162 57.5669189,31.7207568 C56.8028112,32.3492973 55.5334054,32.6635676 53.7587027,32.6635676 C52.7974054,32.6635676 51.8176216,32.4787027 50.8193514,32.108973 C49.8210811,31.7392432 49.1555676,31.4434595 48.8228108,31.2216216 C48.4900541,30.9997838 48.2250809,30.8149189 48.0278919,30.667027 L45.8464865,35.1777297 L46.8447568,35.7692973 C47.5102703,36.1883241 48.564,36.6011892 50.0059459,37.0078919 C51.4478919,37.4145946 52.9329726,37.6179459 54.4611892,37.6179459 C61.0670278,37.6179459 64.3699459,34.3766485 64.3699459,27.8940541 L64.3699459,11.2931892 Z M49.7286486,20.4255135 C49.7286486,19.0944865 50.129189,17.997622 50.9302703,17.1349189 C51.7313515,16.2722158 52.7974054,15.8408649 54.1284324,15.8408649 C55.5334054,15.8408649 56.6672429,16.2537294 57.5299459,17.0794595 C58.392649,17.9051896 58.824,19.0205405 58.824,20.4255135 C58.824,21.8551353 58.4111355,22.9766486 57.5854054,23.7900541 C56.7596753,24.6034595 55.6319996,25.0101622 54.2023784,25.0101622 C52.8220627,25.0101622 51.73136,24.584973 50.9302703,23.7345946 C50.129189,22.8842162 49.7286486,21.7811894 49.7286486,20.4255135 L49.7286486,20.4255135 Z M83.3740541,23.7900541 L82.8194595,24.3446486 C82.4250815,24.7143784 81.7965409,25.0779458 80.9338378,25.4353514 C80.0711607,25.7927564 79.1714847,25.9714595 78.2348108,25.9714595 C77.3967571,25.9714595 76.6634595,25.8543788 76.0349189,25.6202162 C75.4063784,25.3860542 74.9380539,25.1210811 74.6299459,24.8252973 C74.321838,24.5295135 74.069189,24.1967568 73.872,23.827027 C73.674811,23.4572973 73.5577297,23.1984865 73.5207568,23.0505946 C73.4837838,22.9027027 73.4652973,22.7794596 73.4652973,22.6808649 L87.4410811,22.6808649 L87.4410811,21.7195676 C87.4410811,18.3427023 86.5598926,15.692973 84.7975135,13.7703784 C83.0351355,11.8477838 80.6010811,10.8864865 77.4953514,10.8864865 C74.6361094,10.8864865 72.2698392,11.804649 70.3965405,13.640973 C68.5232431,15.4772969 67.5865946,17.8497301 67.5865946,20.7582703 C67.5865946,23.8393495 68.5047566,26.2610792 70.3410811,28.0234595 C72.1774056,29.785838 74.7839996,30.667027 78.1608649,30.667027 C79.2207564,30.667027 80.2313514,30.5499458 81.1926486,30.3157838 C82.1539459,30.0816218 82.9242166,29.8166486 83.5034595,29.5208649 C84.0826685,29.2250811 84.6249384,28.8861625 85.1302703,28.5041081 C85.6355683,28.1220542 85.9559992,27.8570811 86.0915676,27.7091892 C86.2271359,27.5612973 86.3318919,27.4380537 86.4058378,27.3394595 L83.3740541,23.7900541 Z M73.5022703,18.7987027 L73.5762162,18.4659459 C73.6008651,18.2441081 73.6994593,17.9729726 73.872,17.6525405 C74.0445407,17.3321581 74.2663786,17.0117261 74.5375135,16.6912432 C74.8086485,16.3708112 75.203027,16.0996757 75.7206486,15.8778378 C76.2382703,15.656 76.8298378,15.5450811 77.4953514,15.5450811 C78.1608649,15.5450811 78.7524324,15.6621618 79.2700541,15.8963243 C79.7876757,16.1304869 80.1820537,16.3892977 80.4531892,16.6727568 C80.7243247,16.9562158 80.9523243,17.2889726 81.1371892,17.671027 C81.3220541,18.0530815 81.4268112,18.3118923 81.4514595,18.4474595 C81.4760795,18.5830267 81.5007278,18.7001085 81.5254054,18.7987027 L73.5022703,18.7987027 Z M96.1667027,4.08345946 L90.5468108,4.08345946 L90.5468108,30.2972973 L96.1667027,30.2972973 L96.1667027,4.08345946 Z" id="vogel"></path>
                    <path d="M5.50743243,2.55472973 C5.50743243,1.75022496 5.27421184,1.14684659 4.80777027,0.744594595 C4.3413287,0.342342604 3.57747735,0.141216216 2.51621622,0.141216216 L0.487837838,0.141216216 L0.487837838,9.24324324 L3.00405405,9.24324324 C4.03108108,9.24324324 4.786374,9.01002246 5.26993243,8.54358108 C5.75349086,8.0771399 5.99527027,7.47590123 5.99527027,6.73986486 C5.99527027,6.38896677 5.93108108,6.07016053 5.8027027,5.78344595 C5.67432432,5.4967341 5.5309686,5.28063076 5.37263514,5.13513514 C5.21430167,4.98963951 5.03243243,4.86554054 4.82702703,4.76283784 C4.62162162,4.66013514 4.48040541,4.59808545 4.40337838,4.57668919 C4.32635135,4.55543592 4.26216216,4.54045858 4.21081081,4.53175676 L4.33918919,4.46756757 C4.43333346,4.43337029 4.54245509,4.36704159 4.66655405,4.26858108 C4.79065302,4.17015779 4.91689189,4.05033784 5.04527027,3.90912162 C5.17364865,3.76790541 5.28277027,3.57747735 5.37263514,3.33783784 C5.4625,3.09819833 5.50743243,2.83716216 5.50743243,2.55472973 L5.50743243,2.55472973 Z M2.86283784,5.13513514 C4.19797297,5.13513514 4.86554054,5.68288275 4.86554054,6.77837838 C4.86554054,7.34324324 4.69436924,7.73907671 4.35202703,7.96587838 C4.00968482,8.19268005 3.52184698,8.30608108 2.88851351,8.30608108 L1.60472973,8.30608108 L1.60472973,5.13513514 L2.86283784,5.13513514 Z M1.60472973,1.10405405 L2.46486486,1.10405405 C3.21801789,1.10405405 3.72511248,1.23243243 3.98614865,1.48918919 C4.24718482,1.74594595 4.3777027,2.11824324 4.3777027,2.60608108 C4.3777027,3.18805732 4.2065314,3.59672862 3.86418919,3.83209459 C3.52184698,4.06745509 3.03400914,4.18513514 2.40067568,4.18513514 L1.60472973,4.18513514 L1.60472973,1.10405405 Z M8.4139189,5.31486486 C8.4139189,8.02792786 9.51369374,9.38445946 11.7132432,9.38445946 C13.9127921,9.38445946 15.0125668,8.02364865 15.0125676,5.30202703 L15.0125676,0.141216216 L13.8956757,0.141216216 L13.8956757,5.14797297 C13.8956757,7.29617111 13.1681983,8.37027027 11.7132432,8.37027027 C10.2582887,8.37027027 9.53081119,7.2961713 9.53081079,5.14797297 L9.53081079,0.141216216 L8.4139189,0.141216216 L8.4139189,5.31486486 Z M19.0359459,5.1222973 L22.0143243,9.24324324 L23.4778378,9.24324324 L20.3325675,5.10945946 C21.2055405,5.04954968 21.8581307,4.78851351 22.2903378,4.32635135 C22.7225449,3.86418919 22.9386486,3.30360373 22.9386486,2.64459459 C22.9386486,0.975675676 21.9116216,0.141216216 19.8575675,0.141216216 L17.919054,0.141216216 L17.919054,9.24324324 L19.0487837,9.24324324 L19.0359459,5.1222973 Z M19.0359459,1.10405405 L19.8062162,1.10405405 C20.567928,1.10405405 21.0921395,1.23885135 21.3788513,1.50844595 C21.6655632,1.77804054 21.8089189,2.15675676 21.8089189,2.64459459 C21.8089189,3.12386813 21.6634233,3.50044483 21.3724324,3.77432432 C21.0814415,4.04819833 20.567928,4.18513514 19.8318919,4.18513514 L19.0359459,4.18513514 L19.0359459,1.10405405 Z M34.2154054,4.30067568 L28.7978378,4.30067568 L28.7978378,5.27635135 L33.0985135,5.27635135 C33.0985135,5.45608108 33.0835357,5.64864865 33.053581,5.85405405 C33.0236263,6.05945946 32.9465993,6.32049543 32.8224999,6.63716216 C32.6984319,6.95382674 32.5294001,7.23197996 32.3154054,7.47162162 C32.1014411,7.71126113 31.7869141,7.91880644 31.3718243,8.09425676 C30.9567403,8.26970708 30.471042,8.35743243 29.9147297,8.35743243 C28.9133783,8.35743243 28.0618016,8.01722973 27.3599999,7.33682432 C26.6581981,6.65641951 26.3072972,5.7727484 26.3072972,4.68581081 C26.3072972,3.60743243 26.6453602,2.72804054 27.3214864,2.04763514 C27.9976124,1.36722973 28.8363513,1.02702703 29.8377027,1.02702703 C30.1800449,1.02702703 30.5116891,1.07195946 30.8326351,1.16182432 C31.153581,1.25168919 31.4146168,1.35225199 31.6157432,1.46351351 C31.8168696,1.57477504 32.0072972,1.70101351 32.187027,1.84222973 C32.3667567,1.98344595 32.4822972,2.08186963 32.5336486,2.1375 C32.5849999,2.19313037 32.6235135,2.2380628 32.6491891,2.2722973 L33.4066216,1.5277027 L33.2654054,1.36081081 C33.1798853,1.25810811 33.0365292,1.13400875 32.8353378,0.988513514 C32.6342114,0.843018279 32.4031303,0.695383144 32.1420945,0.545608108 C31.8810588,0.395833072 31.5451351,0.267454694 31.1343243,0.160472973 C30.7235135,0.0534912522 30.2913064,0 29.8377027,0 C28.5282432,0 27.4220494,0.447184423 26.5191216,1.34155405 C25.6161935,2.23592055 25.1647297,3.35923136 25.1647297,4.71148649 C25.1647297,5.43040541 25.2952476,6.08941435 25.5562837,6.68851351 C25.8173199,7.28761268 26.1682207,7.78186943 26.6089864,8.17128378 C27.0497521,8.56069813 27.5504278,8.86024762 28.1110135,9.06993243 C28.6715989,9.27961705 29.2599999,9.38445946 29.8762162,9.38445946 C30.5352253,9.38445946 31.1214864,9.29031538 31.6349999,9.10202703 C32.1485135,8.91373867 32.5657432,8.66768025 32.8866891,8.36385135 C33.2076351,8.06002285 33.4708108,7.70056339 33.6762162,7.28547297 C33.8816216,6.87038295 34.0249777,6.45315322 34.1062837,6.03378378 C34.1875898,5.61441455 34.2282432,5.17364865 34.2282432,4.71148649 C34.2282432,4.66869356 34.2261033,4.60022536 34.2218243,4.50608108 C34.2175453,4.41193681 34.2154054,4.3434686 34.2154054,4.30067568 L34.2154054,4.30067568 Z M42.6293243,9.24324324 L43.7462161,9.24324324 L43.7462161,0.141216216 L42.6293243,0.141216216 L42.6293243,4.18513514 L37.9435134,4.18513514 L37.9435134,0.141216216 L36.8266216,0.141216216 L36.8266216,9.24324324 L37.9435134,9.24324324 L37.9435134,5.14797297 L42.6293243,5.14797297 L42.6293243,9.24324324 Z M53.1358107,9.24324324 L54.3554053,9.24324324 L50.581081,0.141216216 L49.7337837,0.141216216 L45.9594594,9.24324324 L47.1020269,9.24324324 L48.1547296,6.61148649 L52.083108,6.61148649 L53.1358107,9.24324324 Z M50.1189188,1.68175676 L51.6979729,5.63581081 L48.5398648,5.63581081 L50.1189188,1.68175676 Z M57.6855404,5.1222973 L60.6639188,9.24324324 L62.1274323,9.24324324 L58.9821621,5.10945946 C59.855135,5.04954968 60.5077253,4.78851351 60.9399323,4.32635135 C61.3721394,3.86418919 61.5882431,3.30360373 61.5882431,2.64459459 C61.5882431,0.975675676 60.5612161,0.141216216 58.5071621,0.141216216 L56.5686485,0.141216216 L56.5686485,9.24324324 L57.6983783,9.24324324 L57.6855404,5.1222973 Z M57.6855404,1.10405405 L58.4558107,1.10405405 C59.2175226,1.10405405 59.741734,1.23885135 60.0284458,1.50844595 C60.3151577,1.77804054 60.4585134,2.15675676 60.4585134,2.64459459 C60.4585134,3.12386813 60.3130178,3.50044483 60.0220269,3.77432432 C59.7310361,4.04819833 59.2175226,4.18513514 58.4814864,4.18513514 L57.6855404,4.18513514 L57.6855404,1.10405405 Z M66.3562161,9.24324324 C67.8454053,9.24324324 69.022207,8.84313057 69.8866215,8.04290541 C70.7510357,7.24268025 71.1832431,6.12364865 71.1832431,4.68581081 C71.1832431,3.19662162 70.7510357,2.06689189 69.8866215,1.29662162 C69.022207,0.526351351 67.8240086,0.141216216 66.2920269,0.141216216 L64.546081,0.141216216 L64.546081,9.24324324 L66.3562161,9.24324324 Z M70.0406756,4.68581081 C70.0406756,5.82409897 69.7261485,6.70777027 69.0970945,7.33682432 C68.4680404,7.96587838 67.5672523,8.28040541 66.3947296,8.28040541 L65.6629729,8.28040541 L65.6629729,1.10405405 L66.2920269,1.10405405 C67.4816664,1.10405405 68.4038512,1.41430206 69.058581,2.0347973 C69.7133107,2.65529253 70.0406756,3.53896383 70.0406756,4.68581081 L70.0406756,4.68581081 Z" id="BURGHARD"></path>
                </g>
            </g>
        </g>
    </g>
</svg>