<?xml version="1.0" encoding="UTF-8" standalone="no"?>
<svg width="463px" height="463px" viewBox="0 0 463 463" version="1.1" xmlns="http://www.w3.org/2000/svg" xmlns:xlink="http://www.w3.org/1999/xlink">
    <!-- Generator: Sketch 3.7.1 (28215) - http://www.bohemiancoding.com/sketch -->
    <title>Icon_stencil_Praxis</title>
    <desc>Created with Sketch.</desc>
    <defs>
        <path d="M150,306 C150,304.385839 150.385524,303.315073 151,302 L200,252 C200.118627,251.305933 200.81257,251 202,251 C201.892054,251 202.431787,251.22945 203,252 L214,262 C214.691581,262.625574 215,263.275681 215,264 C215,264.652401 214.84579,265.226025 215,266 L167,316 C166.037954,317.464617 164.84283,318 164,318 C162.221227,318 161.103207,317.617584 160,317 L152,309 C150.539734,308.133557 150,306.986308 150,306 L150,306 Z M150,173 C152.144155,167.03922 153.905399,163.199668 155,161 C155.896399,160.588733 156.509006,159.897614 157,159 C158.806315,157.747433 161.103589,155.213328 164,152 C166.923438,148.148447 168.990985,145.921506 170,145 L252,222 C247.099075,226.092171 244.648649,231.16038 245,237 C244.648649,238.071677 244.725224,239.185147 245,240 C245.031532,241.796082 245.414411,243.370298 246,245 L246,247 C246.409911,247.133107 246.486486,247.593854 246,248 C246.486486,250.511957 245.797304,252.508524 244,254 L242,257 L239,259 C236.914402,261.877146 235.689189,264.871997 236,268 C235.689189,271.015372 236.837826,273.703059 239,276 L230,280 C230.711713,278.617741 231.247744,276.928338 232,275 L234,270 L230,272 C228.108099,272.474407 226.576583,273.011944 225,273 C225.810813,272.244022 226.42342,270.63141 227,268 C227.954959,266.331047 228.490989,264.718435 229,264 L226,265 L221,267 L224,257 C222.671166,257.653586 221.216225,258.191123 219,259 L215,260 L218,250 C217.540536,250.358363 216.162171,250.895901 214,252 C212.486477,252.431744 211.031537,252.892491 210,253 L212,248 C212.563067,246.44197 213.099098,244.829358 213,244 L210,245 C207.662153,245.597273 206.207213,246.13481 205,247 L208,237 L200,240 L203,230 L195,233 L198,224 L190,227 L193,217 L185,220 C186.527034,215.955611 187.522519,212.807178 188,211 L180,213 L181,209 C182.238743,206.894187 182.851349,205.281575 183,204 C180.860348,205.127991 177.873891,206.126274 174,207 L178,196 L170,199 L173,190 L165,192 C165.23874,191.843 165.774771,190.460762 167,188 L168,183 L160,186 L164,177 L155,180 L158,170 L150,173 Z M168,151 C175.097178,157.648573 187.594196,169.358425 205,186 C223.388661,203.034324 237.274236,215.968736 247,225 L249,223 L170,149 C169.928571,149.306145 169.620002,149.688819 169,150 C168.694283,150.607253 168.308573,150.913393 168,151 L168,151 Z M232,162 C232,161.133908 232.385353,160.211913 233,159 L245,145 C245.56455,144.384165 246.29672,144 247,144 C247.992297,144 248.724467,144.307332 249,145 L252,148 C254.042398,149.608868 255.121385,150.607696 256,151 C256.508675,151.683373 257.125239,153.296864 257,156 C257.741813,158.214245 258.897871,160.211901 261,162 C262.905598,163.285264 265.371854,164.130427 268,164 C271.229302,164.437763 273.078994,164.821928 274,165 L275,166 C275.005783,166.204939 275.622347,166.742769 276,168 C277.16378,168.279451 278.011556,168.970947 279,170 C279.861276,170.200292 281.017334,171.352786 282,173 C283.791914,174.733485 285.179184,176.193311 287,177 C294.273642,185.720737 299.591508,192.097869 303,197 C305.448955,201.010622 307.375718,205.005934 308,209 L312,236 C312,236.584605 311.306365,235.893108 310,233 C309.456645,232.819745 308.76301,231.744084 308,230 C300.901699,218.221287 294.967269,210.15383 290,206 C286.181098,202.777759 282.712925,201.164267 280,201 C276.547191,201.164267 273.695582,202.470427 271,205 C270.150284,206.004794 267.838169,208.00245 264,211 C260.439288,214.149177 258.435454,215.916334 258,216 C257.818881,216.838343 257.433528,217.068842 257,217 C256.508668,217.068842 256.046245,216.838343 256,216 C253.734095,214.840657 249.264005,210.538013 242,203 C240.631977,202.086265 240.246624,201.087437 241,200 C245.179212,195.555383 248.339103,191.483238 250,188 C252.655117,185.029176 253.734104,181.994275 254,179 C253.734104,176.308553 252.732187,173.965149 251,172 C249.495177,170.738118 247.414273,170.046622 244,170 C243.868976,170.046622 243.098271,170.123455 242,170 C241.24855,170.430791 240.709057,170.430791 241,170 C240.40077,170.123455 240.092488,170.123455 240,170 L233,165 C232.385353,163.976756 232,163.131594 232,162 L232,162 Z M239,268 C239,265.657755 240.157545,263.428813 242,261 L244,260 L245,259 C248.106125,255.588982 249.649518,252.360859 250,249 L250,247 L249,244 L248,241 C248.106109,239.755657 248.028939,238.756476 248,238 C248.028939,231.377799 250.729877,226.612474 256,224 C256.903541,223.23058 257.443728,223 258,223 L258,223 C258.755631,223 259.450158,223.30744 260,224 L280,245 C286.228326,251.74599 292.633407,257.817936 299,263 C303.282977,265.965226 306.601272,269.193349 309,273 C310.305471,273.6513 310.845658,274.804201 311,276 L311,278 C310.691317,278.954696 309.533772,279.415856 308,280 L306,280 L303,280 C297.186464,280.876218 293.019303,283.643181 291,288 C289.623788,290.560691 287.00002,294.634275 283,300 C278.974256,306.317181 276.350488,311.082506 275,315 L275,315 C273.726683,317.077679 272.414799,318 271,318 C269.019284,318 267.63023,317.308259 267,316 C266.241156,315.46359 265.855308,314.694989 265,314 C264.929258,312.542875 264.46624,311.774274 264,311 C261.688091,308.39238 259.681681,306.086578 258,304 C257.057873,303.319574 254.202596,301.090632 249,298 C247.102882,295.864068 245.713829,293.558266 245,291 C245.096462,290.02265 245.019293,289.330909 245,289 L245,284 C244.401926,280.49189 243.167212,277.340627 241,275 C240.852088,274.419901 240.427655,273.68973 240,273 C239.655947,271.691338 239.385853,270.576867 239,269 C239.07717,269.039642 239,268.578482 239,268 L239,268 Z M247,270 C249.08001,270.55556 250.279998,271 251,271 C250.920002,271 251.239998,270.925927 252,271 C251.880002,270.629629 252.119999,270.259262 252,270 C252.440001,269.074071 252.679998,268.777778 253,269 C251.559993,267.592587 250.560003,267 250,267 C249.439997,267 248.440007,267.88888 247,270 L247,270 Z M256,291 C257.066672,294.941195 259.047605,297.623877 262,299 C263.161911,299.770056 264.152377,300 265,300 C265.676194,300 266.666661,299.463463 268,298 C269.25715,296.85739 270.857134,294.86454 273,292 L285,274 L285,274 C287.161913,271.409971 288,269.187177 288,267 C288,262.901941 285.714309,259.836018 281,258 C279.923803,257.229944 279.009527,257 278,257 C277.180946,257 275.961911,257.536537 275,259 C272.609513,260.602506 271.161909,262.212115 270,263 L259,280 C257.142846,284.05706 256,287.506224 256,291 L256,291 Z M260,245 C262.441873,246.318189 263.82558,247 264,247 C264.476746,247 264.883718,246.744321 265,246 C265.860467,245.721588 266.063954,245.21023 266,245 C265.901162,244.187498 265.534887,243.590913 265,243 C264.232555,242.22727 263.744188,241.928977 263,242 C263.093021,242.099432 261.953498,243.079536 260,245 L260,245 Z M0,30.0030998 C0,13.4328453 13.4231667,0 30.0030998,0 L430.9969,0 C447.567155,0 461,13.4231667 461,30.0030998 L461,430.9969 C461,447.567155 447.576833,461 430.9969,461 L30.0030998,461 C13.4328453,461 0,447.576833 0,430.9969 L0,30.0030998 Z M9,41.0018111 C9,24.4322683 22.4392449,11 39.0004714,11 L420.999529,11 C437.568331,11 451,24.4346914 451,41.0018111 L451,414.998189 C451,431.567732 437.560755,445 420.999529,445 L39.0004714,445 C22.4316686,445 9,431.565309 9,414.998189 L9,41.0018111 Z" id="path-1"></path>
    </defs>
    <g id="@FlatGuricht_StuckoMoskwa" stroke="none" stroke-width="1" fill="none" fill-rule="evenodd" opacity="0.9">
        <g id="Icon_stencil_Praxis" transform="translate(1.000000, 1.000000)">
            <mask id="mask-2" fill="white">
                <use xlink:href="#path-1"></use>
            </mask>
            <use id="Mask" stroke="#212121" fill="#212121" xlink:href="#path-1"></use>
        </g>
    </g>
</svg>