<?xml version="1.0" encoding="UTF-8" standalone="no"?>
<svg width="71px" height="71px" viewBox="0 0 71 71" version="1.1" xmlns="http://www.w3.org/2000/svg" xmlns:xlink="http://www.w3.org/1999/xlink" xmlns:sketch="http://www.bohemiancoding.com/sketch/ns">
    <!-- Generator: Sketch 3.4.2 (15857) - http://www.bohemiancoding.com/sketch -->
    <title>Icon_stencil_About</title>
    <desc>Created with Sketch.</desc>
    <defs>
        <path d="M23,47 C23.1732079,46.2705534 23.5087932,45.5853259 24.0067659,44.9442971 C24.5047386,44.3032682 25.0784812,43.7838216 25.7280108,43.3859416 C26.3775405,42.9880617 27.1244883,42.6012397 27.9688769,42.2254642 C28.8132654,41.8496887 29.5818639,41.5733873 30.2746955,41.3965517 C30.9675271,41.2197162 31.6928244,41.0428833 32.4506089,40.8660477 C32.6021658,40.6228989 32.6779432,40.241603 32.6779432,39.7221485 C32.6779432,39.2026941 32.5913405,38.4345763 32.4181326,37.4177719 L32.1907984,37.1525199 C31.8443826,37.7272354 31.2922907,38.23563 30.5345061,38.6777188 C29.7767215,39.1198077 28.9972976,39.3519009 28.1962111,39.3740053 C29.2354585,38.0477387 29.7550744,36.6220235 29.7550744,35.096817 C29.7550744,34.2126393 29.6143451,33.6268803 29.3328823,33.3395225 C29.2246273,33.2290003 29.116374,33.2068962 29.0081191,33.2732095 C28.8132602,33.4058362 28.4993256,33.571617 28.0663058,33.770557 C27.6332861,33.969497 27.2435741,34.1352779 26.8971583,34.2679045 L26.3775372,34.4668435 C26.9621139,34.0468591 27.4167778,33.438996 27.7415426,32.6432361 C28.0663074,31.8474761 28.3585914,30.8859473 28.6184032,29.7586207 C28.6833562,29.3386363 28.8132602,28.6202527 29.0081191,27.6034483 C29.202978,26.5866439 29.3328819,25.813 29.3978349,25.2824934 C29.5710428,24.6193601 29.9932307,24.011497 30.6644114,23.4588859 C31.4654979,22.8178571 32.4614284,22.3757749 33.6522327,22.132626 C34.0852525,22.0442082 34.5290911,22 34.9837618,22 C36.0013583,22 36.8998608,22.1878849 37.6792963,22.5636605 C39.3897244,23.337316 40.5805109,24.8072394 41.2516915,26.9734748 C41.7929662,28.631308 42.0635995,30.211752 42.0635995,31.7148541 C42.0635995,33.5274184 41.6847129,35.030498 40.9269283,36.2241379 C40.7320694,36.5336001 40.5372134,36.8099015 40.3423545,37.0530504 C40.1474956,37.2961993 39.9851157,37.4619801 39.8552097,37.5503979 L39.6603518,37.6830239 C40.1366736,36.489384 40.3748309,35.3952304 40.3748309,34.4005305 L40.3423545,33.8700265 L39.8227334,34.566313 C39.7577805,34.7873574 39.7144791,34.9973465 39.6928281,35.1962865 L39.6278755,35.6604775 C39.6062245,35.7709997 39.5520979,35.8925723 39.4654939,36.0251989 C39.37889,36.1578256 39.2273353,36.3457105 39.0108254,36.5888594 C38.7943156,36.8320083 38.5020316,37.1193617 38.1339648,37.4509284 C38.1339648,37.6277639 38.0906635,38.0035338 38.0040595,38.5782493 C37.9174556,39.1529649 37.8741543,39.583995 37.8741543,39.8713528 C37.8741543,40.4018594 37.9607569,40.7997334 38.1339648,41.0649867 C38.5669846,41.1534045 39.1190765,41.3081333 39.7902571,41.5291777 C43.6441329,42.789131 46.0473565,44.6127202 47,47 L23,47 Z M31.4763194,31.2506631 C31.4763194,32.0022142 31.5412713,32.8200663 31.6711773,33.704244 L31.9959405,35.8262599 C32.0825444,36.3567666 32.1474964,36.6220159 32.1907984,36.6220159 L32.7428958,37.1856764 C32.9161037,37.3625119 33.316641,37.6940736 33.9445196,38.1803714 C34.5723983,38.6666691 34.9945862,38.8987623 35.2110961,38.8766578 C35.4925589,38.8766578 35.8606202,38.721929 36.3152909,38.4124668 C36.7699617,38.1030046 37.2354509,37.6940786 37.7117727,37.1856764 L38.1339648,36.7877984 L38.7834912,36.1246684 C39.064954,35.8373107 39.2165087,35.6715298 39.2381597,35.627321 L39.5304465,33.7374005 C39.4438426,33.162685 39.2165106,32.4553534 38.8484438,31.6153846 C38.4803771,30.7754158 38.1231411,30.0901883 37.7767253,29.5596817 L37.2571042,28.7970822 C37.2787552,28.9076044 37.3004058,29.0733853 37.3220568,29.2944297 C37.3437078,29.5154741 37.4952625,29.9133481 37.7767253,30.4880637 C38.0581881,31.0627792 38.4045988,31.615382 38.8159675,32.1458886 C37.8200221,31.7701131 36.9215196,31.3722391 36.120433,30.9522546 C35.3193465,30.5322702 34.7131279,30.1343962 34.3017591,29.7586207 C33.8903904,29.3828452 33.5331544,29.0291794 33.2300406,28.6976127 C32.9269268,28.3660461 32.7537215,28.1007968 32.7104195,27.9018568 C32.6671175,27.7029168 32.6454668,27.548188 32.6454668,27.4376658 C31.8660313,27.9902769 31.4763194,29.2612633 31.4763194,31.2506631 L31.4763194,31.2506631 Z M31.6711773,42.8554377 C31.6711773,43.4301532 32.0284132,43.9164436 32.7428958,44.3143236 C33.4573784,44.7122036 34.3071669,44.9111406 35.2922869,44.9111406 C36.2774068,44.9111406 37.11637,44.7122036 37.8092016,44.3143236 C38.5020332,43.9164436 38.8592692,43.4301532 38.8809202,42.8554377 C38.8809202,42.4575577 38.7077149,42.1038919 38.3612991,41.7944297 L38.3288227,41.7281167 C38.3071717,41.7281167 38.2097438,41.6618044 38.0365359,41.5291777 L38.0040595,41.4960212 C37.8092006,41.2970812 37.6792967,41.0981442 37.6143437,40.8992042 C37.5277398,40.589742 37.4844384,40.191868 37.4844384,39.7055703 C37.4844384,39.1529592 37.5277398,38.5561482 37.6143437,37.9151194 C37.2679279,38.3351038 36.878216,38.6556134 36.4451962,38.8766578 C36.0121765,39.0977023 35.6224645,39.2192749 35.2760487,39.2413793 L35.2435724,39.2413793 C35.0270625,39.2413793 34.6914772,39.1308588 34.2368065,38.9098143 C33.7604848,38.644561 33.3166462,38.3129993 32.9052774,37.9151194 C33.0135323,38.7992971 33.067659,39.4292643 33.067659,39.8050398 C33.067659,40.1808153 33.0243577,40.5013249 32.9377537,40.7665782 C32.8728008,40.9655182 32.7428968,41.1976114 32.5480379,41.4628647 L32.5155616,41.5291777 C32.4289576,41.5733866 32.3315296,41.6396989 32.2232747,41.7281167 L32.1907984,41.7944297 C31.8443826,42.1481008 31.6711773,42.5017666 31.6711773,42.8554377 L31.6711773,42.8554377 Z M35.1042775,70.2085549 C54.4918345,70.2085549 70.2085549,54.4918345 70.2085549,35.1042775 C70.2085549,15.7167204 54.4918345,0 35.1042775,0 C15.7167204,0 0,15.7167204 0,35.1042775 C0,54.4918345 15.7167204,70.2085549 35.1042775,70.2085549 Z" id="path-1"></path>
    </defs>
    <g id="@FlatGuricht" stroke="none" stroke-width="1" fill="none" fill-rule="evenodd" sketch:type="MSPage">
        <g id="Icons_Master" sketch:type="MSArtboardGroup" transform="translate(-282.000000, -123.000000)">
            <g id="02_stencil_set" sketch:type="MSLayerGroup" transform="translate(83.000000, 123.000000)">
                <g id="Icon_stencil_About" transform="translate(199.000000, 0.000000)">
                    <mask id="mask-2" sketch:name="Mask" fill="white">
                        <use xlink:href="#path-1"></use>
                    </mask>
                    <use id="Mask" fill="#212121" sketch:type="MSShapeGroup" xlink:href="#path-1"></use>
                </g>
            </g>
        </g>
    </g>
</svg>