<?xml version="1.0" encoding="UTF-8" standalone="no"?>
<svg width="43px" height="43px" viewBox="0 0 43 43" version="1.1" xmlns="http://www.w3.org/2000/svg" xmlns:xlink="http://www.w3.org/1999/xlink" xmlns:sketch="http://www.bohemiancoding.com/sketch/ns">
    <!-- Generator: Sketch 3.4.2 (15857) - http://www.bohemiancoding.com/sketch -->
    <title>Icon_Kontakt</title>
    <desc>Created with Sketch.</desc>
    <defs></defs>
    <g id="@FlatGuricht" stroke="none" stroke-width="1" fill="none" fill-rule="evenodd" sketch:type="MSPage">
        <g id="Icons_Master" sketch:type="MSArtboardGroup" transform="translate(-383.000000, -106.000000)">
            <g id="01_default_set" sketch:type="MSLayerGroup" transform="translate(83.000000, 78.000000)">
                <g id="Icon_Kontakt" transform="translate(300.000000, 28.000000)" sketch:type="MSShapeGroup">
                    <rect id="Rectangle-42" fill="#FFECB3" x="0" y="0" width="43" height="43" rx="9"></rect>
                    <path d="M16.62,20.79 C18.06,23.62 20.38,25.93 23.21,27.38 L25.41,25.18 C25.68,24.91 26.08,24.82 26.43,24.94 C27.55,25.31 28.76,25.51 30,25.51 C30.55,25.51 31,25.96 31,26.51 L31,30 C31,30.55 30.55,31 30,31 C20.61,31 13,23.39 13,14 C13,13.45 13.45,13 14,13 L17.5,13 C18.05,13 18.5,13.45 18.5,14 C18.5,15.25 18.7,16.45 19.07,17.57 C19.18,17.92 19.1,18.31 18.82,18.59 L16.62,20.79 L16.62,20.79 Z" id="Shape" fill="#448AFF"></path>
                </g>
            </g>
        </g>
    </g>
</svg>