<?xml version="1.0" encoding="UTF-8" standalone="no"?>
<svg width="461px" height="461px" viewBox="0 0 461 461" version="1.1" xmlns="http://www.w3.org/2000/svg" xmlns:xlink="http://www.w3.org/1999/xlink">
    <!-- Generator: Sketch 3.7.1 (28215) - http://www.bohemiancoding.com/sketch -->
    <title>Icon_stencil_Theorie</title>
    <desc>Created with Sketch.</desc>
    <defs>
        <path d="M172.875,333.346743 L179.759403,299.349693 L178.484513,283.767711 L197.097898,227.955887 L186.13385,227.955887 L186.13385,237.021767 L181.28927,237.021767 L181.28927,213.507141 L186.13385,213.507141 L186.13385,222.573021 L198.882743,222.573021 L209.591814,190.275824 C207.042023,185.742861 205.767146,181.021096 205.767146,176.110386 C205.767146,169.499815 207.636965,163.833697 211.376659,159.111861 C215.116354,154.390025 219.960885,151.556966 225.910398,150.612598 L225.910398,119.731944 L232.029867,119.731944 L232.029867,150.612598 C237.809395,151.556966 242.653926,154.390025 246.563606,159.111861 C250.473287,163.833697 252.428097,169.499815 252.428097,176.110386 C252.428097,179.132361 251.748163,182.532032 250.388274,186.309501 L262.117257,222.573021 L274.101217,222.573021 L274.101217,213.507141 L279.200774,213.507141 L279.200774,237.021767 L274.101217,237.021767 L274.101217,227.955887 L263.902102,227.955887 L282.515487,283.767711 L281.240597,299.349693 L288.125,333.346743 L272.57135,303.316015 L261.607301,291.700356 L230.5,203.308026 L199.392699,291.700356 L188.42865,303.316015 L172.875,333.346743 Z M213.416482,176.110386 C213.416482,181.021096 214.946334,185.176249 218.006084,188.575971 C221.065834,191.975693 224.847968,193.722746 229.3526,193.817183 C233.857231,193.91162 237.639365,192.164566 240.699115,188.575971 C243.758865,184.987376 245.331213,180.785004 245.416206,175.968732 C245.501199,171.152459 243.928851,167.044523 240.699115,163.644801 C237.469379,160.245079 233.729741,158.450808 229.480088,158.261935 C224.890464,158.261935 221.065834,160.056205 218.006084,163.644801 C214.946334,167.233396 213.416482,171.38855 213.416482,176.110386 L213.416482,176.110386 Z M221.320796,176.393695 C221.320796,173.93834 222.170714,171.860763 223.870575,170.160902 C225.570436,168.461041 227.440255,167.516688 229.480088,167.327815 C231.519922,167.138941 233.304749,168.083294 234.834624,170.160902 C236.364499,172.23851 237.129425,174.316087 237.129425,176.393695 C237.129425,178.471303 236.364499,180.548879 234.834624,182.626487 C233.304749,184.704095 231.519922,185.554013 229.480088,185.176266 C227.440255,184.798519 225.570436,183.948601 223.870575,182.626487 C222.170714,181.304373 221.320796,179.226796 221.320796,176.393695 L221.320796,176.393695 Z M0,30.0030998 C0,13.4328453 13.4231667,0 30.0030998,0 L430.9969,0 C447.567155,0 461,13.4231667 461,30.0030998 L461,430.9969 C461,447.567155 447.576833,461 430.9969,461 L30.0030998,461 C13.4328453,461 0,447.576833 0,430.9969 L0,30.0030998 Z M57.625,230.5 C57.625,135.023774 135.029679,57.625 230.5,57.625 L230.5,57.625 C325.976226,57.625 403.375,135.029679 403.375,230.5 L403.375,230.5 C403.375,325.976226 325.970321,403.375 230.5,403.375 L230.5,403.375 C135.023774,403.375 57.625,325.970321 57.625,230.5 L57.625,230.5 Z" id="path-1"></path>
    </defs>
    <g id="@FlatGuricht_StuckoMoskwa" stroke="none" stroke-width="1" fill="none" fill-rule="evenodd">
        <g id="Icon_stencil_Theorie">
            <mask id="mask-2" fill="white">
                <use xlink:href="#path-1"></use>
            </mask>
            <use id="Mask" fill="#212121" xlink:href="#path-1"></use>
        </g>
    </g>
</svg>