<?xml version="1.0" encoding="UTF-8" standalone="no"?>
<svg width="463px" height="463px" viewBox="0 0 463 463" version="1.1" xmlns="http://www.w3.org/2000/svg" xmlns:xlink="http://www.w3.org/1999/xlink">
    <!-- Generator: Sketch 3.7.1 (28215) - http://www.bohemiancoding.com/sketch -->
    <title>Icon_stencil_About</title>
    <desc>Created with Sketch.</desc>
    <defs>
        <path d="M136.493583,325.763702 C137.854979,320.030327 140.492644,314.644511 144.406658,309.606092 C148.320671,304.567672 152.830228,300.484876 157.935463,297.357581 C163.040698,294.230286 168.91163,291.189906 175.548435,288.23635 C182.185241,285.282793 188.226345,283.111093 193.671929,281.721184 C199.117513,280.331275 204.818273,278.941387 210.774381,277.551478 C211.965602,275.640354 212.561204,272.643408 212.561204,268.56055 C212.561204,264.477693 211.880516,258.440367 210.51912,250.448391 L208.732297,248.363538 C206.009505,252.880742 201.67012,256.87667 195.714013,260.351442 C189.757905,263.826214 183.631715,265.650442 177.335259,265.824181 C185.503635,255.399864 189.587761,244.193892 189.587761,232.205928 C189.587761,225.256384 188.481644,220.652379 186.269375,218.393778 C185.418503,217.525085 184.567643,217.351349 183.716771,217.872564 C182.1852,218.914996 179.717707,220.218016 176.314217,221.781664 C172.910727,223.345311 169.847632,224.648331 167.12484,225.690763 L163.040672,227.254402 C167.635384,223.953369 171.208995,219.175629 173.761612,212.921039 C176.31423,206.666449 178.611551,199.108933 180.653645,190.248263 C181.164168,186.94723 182.1852,181.30081 183.716771,173.308834 C185.248341,165.316858 186.269373,159.236098 186.779896,155.066371 C188.141292,149.854213 191.459645,145.076473 196.735055,140.733007 C203.031511,135.694588 210.859421,132.219868 220.219018,130.308743 C223.622508,129.613788 227.111033,129.266316 230.684698,129.266316 C238.682899,129.266316 245.745035,130.743072 251.871317,133.696629 C265.315102,139.77748 274.67456,151.330924 279.949969,168.357308 C284.204332,181.387704 286.331481,193.809828 286.331481,205.624054 C286.331481,219.87062 283.353472,231.684668 277.397364,241.066553 C275.865794,243.498893 274.334246,245.670593 272.802676,247.581718 C271.271105,249.492843 269.994816,250.795863 268.973769,251.490817 L267.442206,252.533244 C271.186045,243.151359 273.057936,234.551427 273.057936,226.733189 L272.802676,222.563483 L268.718508,228.036222 C268.207985,229.773608 267.867641,231.4241 267.697466,232.987748 L267.186945,236.63624 C267.016771,237.504933 266.591341,238.460481 265.910643,239.502913 C265.229945,240.545345 264.038741,242.022101 262.336996,243.933226 C260.635251,245.84435 258.33793,248.102918 255.444964,250.708997 C255.444964,252.098906 255.10462,255.052418 254.423922,259.569622 C253.743224,264.086826 253.40288,267.474678 253.40288,269.73328 C253.40288,273.903007 254.083568,277.030255 255.444964,279.115118 C258.848454,279.810073 263.187838,281.026225 268.463248,282.763611 C298.754309,292.666711 317.643395,306.999932 325.131073,325.763702 L136.493583,325.763702 Z M204.648129,221.26045 L207.200734,237.939273 C207.881432,242.109 208.391948,244.193832 208.732297,244.193832 L213.071725,248.624145 C214.433121,250.014053 217.581302,252.620093 222.516363,256.442343 C227.451423,260.264592 230.769776,262.08882 232.471521,261.915082 C234.68379,261.915082 237.576713,260.69893 241.150377,258.266589 C244.724042,255.834249 248.382738,252.620133 252.126577,248.624145 L255.444964,245.496865 L260.550173,240.284733 C262.762442,238.026131 263.953645,236.723111 264.12382,236.375634 L266.421164,221.521057 C265.740466,217.003853 263.953661,211.444301 261.060694,204.842234 C258.167728,198.240167 255.35989,192.85435 252.637098,188.684624 L248.552931,182.690672 C248.723105,183.559365 248.893277,184.862385 249.063452,186.599771 C249.233626,188.337157 250.42483,191.464405 252.637098,195.981609 C254.849367,200.498813 257.572118,204.842213 260.805434,209.01194 C252.977407,206.058383 245.915271,202.931135 239.618814,199.630102 C233.322358,196.329068 228.557543,193.20182 225.324228,190.248263 C222.090912,187.294707 219.283075,184.514931 216.900632,181.908852 C214.518189,179.302773 213.156814,177.217941 212.816465,175.654293 C212.476116,174.090646 212.305944,172.874494 212.305944,172.005801 C206.179662,176.349266 203.116567,186.339086 203.116567,201.975561 C203.116567,207.882674 203.627082,214.310906 204.648129,221.26045 Z M204.648129,293.187875 C204.648129,297.705079 207.455967,301.527271 213.071725,304.654566 C218.687484,307.781861 225.366732,309.345485 233.109672,309.345485 C240.852612,309.345485 247.446775,307.781861 252.892359,304.654566 C258.337943,301.527271 261.14578,297.705079 261.315955,293.187875 C261.315955,290.06058 259.954579,287.280804 257.231787,284.848464 L256.976526,284.32725 C256.806352,284.32725 256.040578,283.806042 254.679182,282.763611 L254.423922,282.503004 C252.892351,280.939357 251.87132,279.375733 251.360796,277.812085 C250.680098,275.379744 250.339754,272.252496 250.339754,268.430247 C250.339754,264.086782 250.680098,259.39591 251.360796,254.35749 C248.638004,257.658524 245.574909,260.177696 242.171419,261.915082 C238.767929,263.652468 235.704834,264.608016 232.982042,264.781754 L232.726781,264.781754 C231.025036,264.781754 228.387371,263.913074 224.813707,262.175688 C221.069868,260.090825 217.581343,257.484785 214.348027,254.35749 C215.1989,261.307034 215.62433,266.25851 215.62433,269.212067 C215.62433,272.165623 215.283986,274.684795 214.603288,276.769659 C214.092764,278.333306 213.071733,280.157534 211.540162,282.242397 L211.284902,282.763611 C210.604204,283.111088 209.83843,283.632296 208.987557,284.32725 L208.732297,284.848464 C206.009505,287.628281 204.648129,290.408057 204.648129,293.187875 L204.648129,293.187875 Z M231.5,463 C359.35392,463 463,359.35392 463,231.5 C463,103.64608 359.35392,0 231.5,0 C103.64608,0 0,103.64608 0,231.5 C0,359.35392 103.64608,463 231.5,463 Z" id="path-1"></path>
    </defs>
    <g id="@FlatGuricht_StuckoMoskwa" stroke="none" stroke-width="1" fill="none" fill-rule="evenodd">
        <g id="Icon_stencil_About">
            <mask id="mask-2" fill="white">
                <use xlink:href="#path-1"></use>
            </mask>
            <use id="Mask_about" fill="#212121" xlink:href="#path-1"></use>
        </g>
    </g>
</svg>