<?xml version="1.0" encoding="UTF-8" standalone="no"?>
<svg width="59px" height="49px" viewBox="0 0 59 49" version="1.1" xmlns="http://www.w3.org/2000/svg" xmlns:xlink="http://www.w3.org/1999/xlink" xmlns:sketch="http://www.bohemiancoding.com/sketch/ns">
    <!-- Generator: Sketch 3.4.2 (15857) - http://www.bohemiancoding.com/sketch -->
    <title>Icon_stencil_Praxis</title>
    <desc>Created with Sketch.</desc>
    <defs>
        <path d="M16,36.9999999 C16,36.7866655 16.066666,36.6000007 16.2,36.4399999 L24.56,27.6399999 C24.6666672,27.5333327 24.786666,27.4799999 24.92,27.4799999 C24.9733336,27.4799999 25.066666,27.5199995 25.2,27.5999999 L27.0799999,29.3999999 C27.1866671,29.5066671 27.2399999,29.6199993 27.2399999,29.7399999 C27.2399999,29.8600005 27.2133335,29.9599995 27.1599999,30.0399999 L18.96,38.8799998 C18.7733324,39.0666674 18.5666678,39.1599998 18.34,39.1599998 C18.1133322,39.1599998 17.9200008,39.0933338 17.76,38.9599998 L16.28,37.5999999 C16.0933324,37.4399991 16,37.2400011 16,36.9999999 L16,36.9999999 Z M16.04,14.04 C16.4133352,13.0266616 16.7199988,12.3600016 16.96,12.04 C17.0666672,11.906666 17.1733328,11.7866672 17.28,11.68 C17.5733348,11.413332 17.9733308,10.9733364 18.48,10.36 C18.9866692,9.7466636 19.3466656,9.3600008 19.56,9.2 L33.7999999,22.5599999 C32.9466623,23.2800035 32.5199999,24.1599947 32.5199999,25.1999999 C32.5199999,25.3600007 32.5333331,25.5533321 32.5599999,25.7799999 C32.5866667,26.0066677 32.6533327,26.2799983 32.7599999,26.5999999 L32.7999999,26.8799999 C32.8266667,26.9333335 32.8399999,27.0133327 32.8399999,27.1199999 C32.8399999,27.5200019 32.7200011,27.8666651 32.4799999,28.1599999 L32.0399999,28.5599999 L31.5999999,29.0399999 C31.1733311,29.4933355 30.9599999,30.0133303 30.9599999,30.5999999 C30.9599999,31.0800023 31.1599979,31.5466643 31.5599999,31.9999999 L30.0399999,32.6399999 C30.0933335,32.3999987 30.1866659,32.1066683 30.3199999,31.7599999 L30.6399999,30.9199999 L29.9599999,31.1999999 C29.6399983,31.3333339 29.3733343,31.4266663 29.1599999,31.4799999 C29.2400003,31.2933323 29.3466659,31.0133351 29.4799999,30.6399999 C29.6133339,30.2666647 29.7066663,29.9866675 29.7599999,29.7999999 L29.2799999,29.9599999 L28.3199999,30.3199999 L28.8799999,28.6799999 C28.6933323,28.7600003 28.4400015,28.8533327 28.1199999,28.9599999 L27.3199999,29.1999999 L27.9599999,27.4399999 C27.7999991,27.4933335 27.5600015,27.5866659 27.2399999,27.7199999 C26.9199983,27.8533339 26.6666675,27.9333331 26.4799999,27.9599999 L26.7999999,27.1599999 C26.9333339,26.8133315 27.0266663,26.5333343 27.0799999,26.3199999 L26.3999999,26.5599999 C26.0799983,26.6666671 25.8266676,26.7599995 25.64,26.8399999 L26.1999999,25.1999999 L24.76,25.6799999 L25.32,24.0399999 L23.84,24.5599999 L24.44,22.8799999 L22.96,23.3999999 L23.56,21.7599999 L22.16,22.2399999 C22.4000012,21.5199963 22.5733328,20.9733351 22.68,20.5999999 L21.24,21.0799999 L21.52,20.3199999 C21.653334,19.9466647 21.7599996,19.6666675 21.84,19.4799999 C21.4133312,19.6400007 20.8933364,19.8133323 20.28,19.9999999 L20.96,18.12 L19.52,18.64 L20.12,17 L18.64,17.44 C18.6933336,17.3333328 18.786666,17.0933352 18.92,16.72 L19.24,15.84 L17.8,16.32 L18.4,14.68 L16.88,15.2 L17.48,13.52 L16.04,14.04 Z M19.16,10.16 C20.3866728,11.3066724 22.5466512,13.346652 25.64,16.28 C28.7333487,19.2133479 31.1333247,21.4666587 32.8399999,23.0399999 L33.1599999,22.6399999 L19.52,9.8 C19.4933332,9.8533336 19.4400004,9.9199996 19.36,9.99999999 C19.2799996,10.0800004 19.2133336,10.1333332 19.16,10.16 L19.16,10.16 Z M30.3199999,12.16 C30.3199999,11.9733324 30.3866659,11.813334 30.5199999,11.68 L32.5599999,9.2 C32.6666671,9.066666 32.7933325,9 32.9399999,9 C33.0866673,9 33.2133327,9.0533328 33.3199999,9.16 L33.8399999,9.68 C34.1333347,9.9733348 34.3199995,10.1466664 34.3999999,10.2 C34.5600007,10.333334 34.6666663,10.6133312 34.7199999,11.04 C34.7733335,11.4666688 34.9733315,11.813332 35.3199999,12.08 C35.6666683,12.346668 36.0933307,12.4933332 36.5999999,12.52 C37.1066691,12.5466668 37.4266659,12.6133328 37.5599999,12.72 L37.6799999,12.8 C37.7600003,12.8533336 37.8666659,12.946666 37.9999999,13.08 C38.1333339,13.213334 38.2799991,13.3333328 38.4399999,13.44 C38.6000007,13.5466672 38.7999987,13.7466652 39.0399999,14.04 C39.2800011,14.3333348 39.5199987,14.5866656 39.7599999,14.8 C41.0933399,16.2400072 42.0133307,17.3466628 42.5199999,18.12 C43.0266691,18.8933371 43.3599991,19.5866635 43.5199999,20.1999999 L44.1599999,24.8799999 C44.1599999,25.0666675 44.0400011,24.9466687 43.7999999,24.5199999 C43.7199995,24.4133327 43.6000007,24.2266679 43.4399999,23.9599999 C42.2399939,21.8799895 41.2133375,20.4800035 40.3599999,19.7599999 C39.6933299,19.1999971 39.0933359,18.9199999 38.5599999,18.9199999 C38.0266639,18.9199999 37.5333355,19.1466643 37.0799999,19.5999999 C36.9199991,19.7600007 36.5200031,20.1066639 35.8799999,20.6399999 C35.2399967,21.1733359 34.8933335,21.4799995 34.8399999,21.5599999 C34.7866663,21.6400003 34.7200003,21.6799999 34.6399999,21.6799999 C34.5599995,21.6799999 34.4800003,21.6400003 34.3999999,21.5599999 C34.0799983,21.2933319 33.3066727,20.5466727 32.0799999,19.3199999 C31.8133319,19.0799987 31.7466659,18.9066671 31.8799999,18.8 C32.6000035,17.9466624 33.1466647,17.2400028 33.5199999,16.68 C33.8933351,16.1199972 34.0799999,15.5933358 34.0799999,15.1 C34.0799999,14.6066642 33.9066683,14.2000016 33.5599999,13.88 C33.3466655,13.6399988 32.9866691,13.52 32.4799999,13.52 C32.3733327,13.52 32.2400007,13.5333332 32.0799999,13.56 C31.9199991,13.5866668 31.8266667,13.5866668 31.7999999,13.56 C31.7733331,13.5333332 31.7200003,13.5333332 31.6399999,13.56 L30.5199999,12.6 C30.3866659,12.466666 30.3199999,12.3200008 30.3199999,12.16 L30.3199999,12.16 Z M31.4399999,30.4399999 C31.4399999,30.0399979 31.6399979,29.6533351 32.0399999,29.2799999 L32.2799999,29.0399999 L32.4799999,28.7999999 C33.0133359,28.2933307 33.2799999,27.7333363 33.2799999,27.1199999 L33.2799999,26.7599999 L33.1599999,26.3599999 L33.0399999,25.7599999 C33.0133331,25.5466655 32.9999999,25.3733339 32.9999999,25.2399999 C32.9999999,24.0933275 33.4666619,23.2666691 34.3999999,22.7599999 C34.5333339,22.6799995 34.6266663,22.6399999 34.6799999,22.6399999 L34.7199999,22.6399999 C34.8533339,22.6399999 34.9733327,22.6933327 35.0799999,22.7999999 L38.5599999,26.3999999 C39.6000051,27.6266727 40.7066607,28.6799955 41.8799999,29.5599999 C42.5466699,30.0933359 43.1199975,30.6533303 43.5999999,31.2399999 C43.7600007,31.4266675 43.8533331,31.6266655 43.8799999,31.8399999 L43.8799999,32.2399999 C43.8266663,32.3466671 43.6266683,32.4266663 43.2799999,32.4799999 L42.9999999,32.4799999 L42.5599999,32.5199999 C41.4933279,32.6800007 40.7733351,33.1599959 40.3999999,33.9599999 C40.1866655,34.3600019 39.7333367,35.0666615 39.0399999,36.0799999 C38.3466631,37.0933383 37.8933343,37.9199967 37.6799999,38.5599999 L37.5999999,38.6399999 C37.4399991,38.9600014 37.2133347,39.1199998 36.9199999,39.1199998 C36.6266651,39.1199998 36.3866675,39.000001 36.1999999,38.7599998 C36.1466663,38.6799994 36.0800003,38.5466675 35.9999999,38.3599999 C35.9199995,38.1733323 35.8400003,38.0400003 35.7599999,37.9599999 C35.3599979,37.4533307 35.0133347,37.0533347 34.7199999,36.7599999 C34.5599991,36.5733323 34.0666707,36.1866695 33.2399999,35.5999999 C32.8399979,35.2799983 32.6000003,34.8800023 32.5199999,34.3999999 C32.4933331,34.2666659 32.4799999,34.1466671 32.4799999,34.0399999 L32.4799999,33.2799999 C32.3733327,32.6133299 32.1600015,32.0666687 31.8399999,31.6399999 C31.7599995,31.5599995 31.6866669,31.4333341 31.6199999,31.2599999 C31.5533329,31.0866657 31.5066667,30.8933343 31.4799999,30.6799999 C31.4533331,30.6266663 31.4399999,30.5466671 31.4399999,30.4399999 L31.4399999,30.4399999 Z M32.8399999,30.7599999 C33.1866683,30.9200007 33.3866663,30.9999999 33.4399999,30.9999999 C33.4933335,30.9999999 33.5466663,30.9866667 33.5999999,30.9599999 C33.6533335,30.9333331 33.6933331,30.8666671 33.7199999,30.7599999 C33.7466667,30.6533327 33.7866663,30.5999999 33.8399999,30.5999999 C33.5999987,30.3866655 33.4333337,30.2799999 33.3399999,30.2799999 C33.2466661,30.2799999 33.0800011,30.4399983 32.8399999,30.7599999 L32.8399999,30.7599999 Z M34.3999999,34.4799999 C34.5866675,35.1200031 34.9333307,35.5866651 35.4399999,35.8799999 C35.6533343,35.9600003 35.8266659,35.9999999 35.9599999,35.9999999 C36.0933339,35.9999999 36.2666655,35.9066675 36.4799999,35.7199999 C36.7200011,35.4533319 36.9999983,35.1066687 37.3199999,34.6799999 L39.5199999,31.4799999 L39.5599999,31.3999999 C39.8533347,31.0266647 39.9999999,30.6400019 39.9999999,30.2399999 C39.9999999,29.5466631 39.6000039,29.0133351 38.7999999,28.6399999 C38.5866655,28.5599995 38.4266671,28.5199999 38.3199999,28.5199999 C38.1066655,28.5199999 37.8933343,28.6133323 37.6799999,28.7999999 C37.3066647,29.1466683 37.0533339,29.4266655 36.9199999,29.6399999 L34.9999999,32.5599999 C34.5999979,33.2266699 34.3999999,33.8266639 34.3999999,34.3599999 L34.3999999,34.4799999 Z M35.0799999,26.5199999 C35.4800019,26.7333343 35.7066663,26.8399999 35.7599999,26.8399999 C35.8133335,26.8399999 35.8799995,26.8000003 35.9599999,26.7199999 C36.0400003,26.6399995 36.0733333,26.5600003 36.0599999,26.4799999 C36.0466665,26.3999995 35.9866671,26.3066671 35.8799999,26.1999999 C35.7733327,26.0933327 35.6933335,26.0466665 35.6399999,26.0599999 C35.5866663,26.0733333 35.4000015,26.2266651 35.0799999,26.5199999 L35.0799999,26.5199999 Z M0,1.9968516 C0,0.894020915 0.903139589,0 1.99684302,0 L57.003157,0 C58.1059829,0 59,0.892315254 59,1.9968516 L59,47.0031484 C59,48.1059791 58.0968604,49 57.003157,49 L1.99684302,49 C0.894017072,49 0,48.1076847 0,47.0031484 L0,1.9968516 Z" id="path-1"></path>
    </defs>
    <g id="@FlatGuricht" stroke="none" stroke-width="1" fill="none" fill-rule="evenodd" sketch:type="MSPage">
        <g id="Icons_Master" sketch:type="MSArtboardGroup" transform="translate(-193.000000, -145.000000)">
            <g id="02_stencil_set" sketch:type="MSLayerGroup" transform="translate(83.000000, 123.000000)">
                <g id="Icon_stencil_Praxis" transform="translate(110.000000, 22.000000)">
                    <mask id="mask-2" sketch:name="Mask" fill="white">
                        <use xlink:href="#path-1"></use>
                    </mask>
                    <use id="Mask" fill="#212121" sketch:type="MSShapeGroup" xlink:href="#path-1"></use>
                </g>
            </g>
        </g>
    </g>
</svg>