<?xml version="1.0" encoding="UTF-8" standalone="no"?>
<svg width="80px" height="67px" viewBox="0 0 80 67" version="1.1" xmlns="http://www.w3.org/2000/svg" xmlns:xlink="http://www.w3.org/1999/xlink" xmlns:sketch="http://www.bohemiancoding.com/sketch/ns">
    <!-- Generator: Sketch 3.4.2 (15857) - http://www.bohemiancoding.com/sketch -->
    <title>Icon_Theorie</title>
    <desc>Created with Sketch.</desc>
    <defs></defs>
    <g id="@FlatGuricht" stroke="none" stroke-width="1" fill="none" fill-rule="evenodd" sketch:type="MSPage">
        <g id="Icons_Master" sketch:type="MSArtboardGroup" transform="translate(-83.000000, -82.000000)">
            <g id="01_default_set" sketch:type="MSLayerGroup" transform="translate(83.000000, 78.000000)">
                <g id="Icon_Theorie" transform="translate(0.000000, 4.000000)" sketch:type="MSShapeGroup">
                    <rect id="Bg_Theorie" fill="#FFA000" x="0" y="0" width="80" height="67"></rect>
                    <path d="M30,49.3628319 L31.1946903,44.0530973 L30.9734513,41.619469 L34.2035398,32.9026549 L32.300885,32.9026549 L32.300885,34.3185841 L31.460177,34.3185841 L31.460177,30.6460177 L32.300885,30.6460177 L32.300885,32.0619469 L34.5132743,32.0619469 L36.3716814,27.0176991 C35.9292013,26.309731 35.7079646,25.5722752 35.7079646,24.8053097 C35.7079646,23.7728562 36.0324451,22.8879093 36.6814159,22.1504425 C37.3303867,21.4129757 38.1710863,20.9705022 39.2035398,20.8230088 L39.2035398,16 L40.2654867,16 L40.2654867,20.8230088 C41.2684416,20.9705022 42.1091412,21.4129757 42.7876106,22.1504425 C43.4660801,22.8879093 43.8053097,23.7728562 43.8053097,24.8053097 C43.8053097,25.2772885 43.6873168,25.8082566 43.4513274,26.3982301 L45.4867257,32.0619469 L47.5663717,32.0619469 L47.5663717,30.6460177 L48.4513274,30.6460177 L48.4513274,34.3185841 L47.5663717,34.3185841 L47.5663717,32.9026549 L45.7964602,32.9026549 L49.0265487,41.619469 L48.8053097,44.0530973 L50,49.3628319 L47.300885,44.6725664 L45.3982301,42.8584071 L40,29.0530973 L34.6017699,42.8584071 L32.699115,44.6725664 L30,49.3628319 Z M37.0353982,24.8053097 C37.0353982,25.5722752 37.3008823,26.2212363 37.8318584,26.7522124 C38.3628345,27.2831885 39.0191701,27.5560471 39.800885,27.5707965 C40.5825998,27.5855458 41.2389354,27.3126872 41.7699115,26.7522124 C42.3008876,26.1917376 42.5737462,25.535402 42.5884956,24.7831858 C42.6032449,24.0309697 42.3303863,23.3893832 41.7699115,22.8584071 C41.2094367,22.327431 40.5604757,22.0471978 39.8230088,22.0176991 C39.0265447,22.0176991 38.3628345,22.2979323 37.8318584,22.8584071 C37.3008823,23.4188819 37.0353982,24.0678429 37.0353982,24.8053097 L37.0353982,24.8053097 Z M38.4070796,24.8495575 C38.4070796,24.4660748 38.5545708,24.1415942 38.8495575,23.8761062 C39.1445442,23.6106181 39.4690248,23.463127 39.8230088,23.4336283 C40.1769929,23.4041296 40.4867243,23.5516208 40.7522124,23.8761062 C41.0177004,24.2005916 41.1504425,24.5250721 41.1504425,24.8495575 C41.1504425,25.1740429 41.0177004,25.4985235 40.7522124,25.8230088 C40.4867243,26.1474942 40.1769929,26.2802363 39.8230088,26.2212389 C39.4690248,26.1622416 39.1445442,26.0294996 38.8495575,25.8230088 C38.5545708,25.6165181 38.4070796,25.2920376 38.4070796,24.8495575 L38.4070796,24.8495575 Z" id="Theorie" fill="#448AFF"></path>
                </g>
            </g>
        </g>
    </g>
</svg>