<?xml version="1.0" encoding="UTF-8" standalone="no"?>
<svg width="150px" height="146px" viewBox="0 0 150 146" version="1.1" xmlns="http://www.w3.org/2000/svg" xmlns:xlink="http://www.w3.org/1999/xlink" xmlns:sketch="http://www.bohemiancoding.com/sketch/ns">
    <!-- Generator: Sketch 3.4.2 (15857) - http://www.bohemiancoding.com/sketch -->
    <title>kontakt</title>
    <desc>Created with Sketch.</desc>
    <defs>
        <filter x="-50%" y="-50%" width="200%" height="200%" filterUnits="objectboundingbox" id="filter-1">
            <feoffset dx="0" dy="1" in="SourceAlpha" result="shadowoffsetouter1"></feoffset>
            <fegaussianblur stdDeviation="0.5" in="shadowoffsetouter1" result="shadowblurouter1"></fegaussianblur>
            <fecolormatrix values="0 0 0 0 0   0 0 0 0 0   0 0 0 0 0  0 0 0 0.35 0" in="shadowblurouter1" type="matrix" result="shadowmatrixouter1"></fecolormatrix>
            <femerge>
                <femergenode in="shadowmatrixouter1"></femergenode>
                <femergenode in="SourceGraphic"></femergenode>
            </femerge>
        </filter>
    </defs>
    <g id="@FlatGuricht_StuckoMoskwa" stroke="none" stroke-width="1" fill="none" fill-rule="evenodd" sketch:type="MSPage">
        <g id="final-buttons" sketch:type="MSArtboardGroup" transform="translate(-782.000000, -96.000000)">
            <g id="kontakt" sketch:type="MSLayerGroup" transform="translate(788.000000, 99.000000)">
                <g id="Icon_Kontakt" sketch:type="MSShapeGroup">
                    <rect id="Rectangle-42" fill="#EEEEEE" filter="url(#filter-1)" x="0" y="0" width="137.140613" height="132.792397" rx="9"></rect>
                    <path d="M53.0064416,64.2035799 C57.5990575,72.9431725 64.998272,80.0769036 74.0240379,84.5547868 L81.0405344,77.7607572 C81.9016499,76.9269444 83.1773765,76.6490069 84.2936373,77.0195903 C87.8656719,78.1622226 91.724745,78.7798616 95.6794975,78.7798616 C97.4336217,78.7798616 98.8688141,80.1695495 98.8688141,81.8680569 L98.8688141,92.6458584 C98.8688141,94.3443658 97.4336217,95.7340537 95.6794975,95.7340537 C65.7318148,95.7340537 41.4611156,72.2328876 41.4611156,43.2347339 C41.4611156,41.5362265 42.8963081,40.1465387 44.6504322,40.1465387 L55.8130402,40.1465387 C57.5671644,40.1465387 59.0023568,41.5362265 59.0023568,43.2347339 C59.0023568,47.094978 59.6402201,50.8008124 60.8202673,54.2595911 C61.1710921,55.3404594 60.9159468,56.5448556 60.0229381,57.4095503 L53.0064416,64.2035799 L53.0064416,64.2035799 Z" id="Shape" fill="#FFA000"></path>
                </g>
            </g>
        </g>
    </g>
</svg>