<?xml version="1.0" encoding="UTF-8" standalone="no"?>
<svg width="480px" height="380px" viewbox="0 0 480 380" version="1.1" xmlns="http://www.w3.org/2000/svg" xmlns:xlink="http://www.w3.org/1999/xlink" xmlns:sketch="http://www.bohemiancoding.com/sketch/ns">
    <!-- Generator: Sketch 3.4.2 (15857) - http://www.bohemiancoding.com/sketch -->
    <title>LOGO 02 Stencil</title>
    <desc>Created with Sketch.</desc>
    <defs></defs>
    <g id="@FlatGuricht" stroke="none" stroke-width="1" fill="none" fill-rule="evenodd" sketch:type="MSPage">
        <g id="StuckoMoskwa" sketch:type="MSArtboardGroup">
            <g id="LOGO-02-Stencil" sketch:type="MSLayerGroup">
                <g sketch:type="MSShapeGroup">
                    <rect id="Rectangle-1" fill="#FFA000" x="0" y="0" width="480" height="380"></rect>
                    <g id="Group" transform="translate(78.545455, 95.283582)">
                        <g>
                            <g fill="#FFECB3">
                                <rect id="Rectangle-2" x="46.1818182" y="133.472637" width="268" height="45.3731343"></rect>
                                <path d="M69.0356364,133.472637 L71.9272727,133.472637 L60.1163636,103.447721 L58.08,103.447721 L46.2283636,133.472637 L48.9570909,133.472637 L52.5003636,124.198368 L65.4923636,124.198368 L69.0356364,133.472637 Z M58.976,107.174368 L64.5556364,121.784517 L53.3963636,121.784517 L58.976,107.174368 Z M78.7694545,119.582408 L90.336,119.582408 L90.336,117.210905 L78.7694545,117.210905 L78.7694545,105.819224 L90.784,105.819224 L90.784,103.447721 L76.1221818,103.447721 L76.1221818,133.472637 L78.7694545,133.472637 L78.7694545,119.582408 Z M93.7570909,105.819224 L101.943273,105.819224 L101.943273,133.472637 L104.590545,133.472637 L104.590545,105.819224 L112.695273,105.819224 L112.695273,103.447721 L93.7570909,103.447721 L93.7570909,105.819224 Z M119.496727,119.582408 L131.389091,119.582408 L131.389091,117.210905 L119.496727,117.210905 L119.496727,105.819224 L131.796364,105.819224 L131.796364,103.447721 L116.849455,103.447721 L116.849455,133.472637 L131.796364,133.472637 L131.796364,131.101134 L119.496727,131.101134 L119.496727,119.582408 Z M140.186182,119.28597 L150.734545,133.472637 L154.196364,133.472637 L143.281455,119.28597 L143.485091,119.28597 C146.634667,119.28597 148.962909,118.551933 150.469818,117.083861 C151.976727,115.615788 152.730182,113.710117 152.730182,111.366846 C152.730182,106.087429 149.553455,103.447721 143.2,103.447721 L137.538909,103.447721 L137.538909,133.472637 L140.226909,133.472637 L140.186182,119.28597 Z M140.186182,105.819224 L143.037091,105.819224 C145.69794,105.819224 147.537455,106.313288 148.555636,107.301413 C149.573818,108.289538 150.082909,109.644682 150.082909,111.366846 C150.082909,113.201918 149.533091,114.592353 148.433455,115.538149 C147.333818,116.483927 145.562182,116.956816 143.118545,116.956816 L140.186182,116.956816 L140.186182,105.819224 Z M170.528,119.582408 L182.420364,119.582408 L182.420364,117.210905 L170.528,117.210905 L170.528,105.819224 L182.827636,105.819224 L182.827636,103.447721 L167.880727,103.447721 L167.880727,133.472637 L182.827636,133.472637 L182.827636,131.101134 L170.528,131.101134 L170.528,119.582408 Z M191.217455,119.582408 L202.784,119.582408 L202.784,117.210905 L191.217455,117.210905 L191.217455,105.819224 L203.232,105.819224 L203.232,103.447721 L188.570182,103.447721 L188.570182,133.472637 L191.217455,133.472637 L191.217455,119.582408 Z M211.540364,119.582408 L223.106909,119.582408 L223.106909,117.210905 L211.540364,117.210905 L211.540364,105.819224 L223.554909,105.819224 L223.554909,103.447721 L208.893091,103.447721 L208.893091,133.472637 L211.540364,133.472637 L211.540364,119.582408 Z M231.863273,119.582408 L243.755636,119.582408 L243.755636,117.210905 L231.863273,117.210905 L231.863273,105.819224 L244.162909,105.819224 L244.162909,103.447721 L229.216,103.447721 L229.216,133.472637 L244.162909,133.472637 L244.162909,131.101134 L231.863273,131.101134 L231.863273,119.582408 Z M272.794182,126.866308 L272.468364,127.332139 C272.251152,127.642693 271.884607,128.023827 271.368727,128.475542 C270.85294,128.927257 270.255605,129.371913 269.576727,129.809512 C268.898023,130.24711 268.015598,130.621186 266.929455,130.931741 C265.843394,131.242296 264.703031,131.397572 263.508364,131.397572 C260.032975,131.397572 257.148127,130.197705 254.853818,127.79797 C252.559515,125.398235 251.412364,122.27858 251.412364,118.439005 C251.412364,114.627662 252.573091,111.522124 254.894545,109.122388 C257.216,106.722653 260.073697,105.522786 263.467636,105.522786 C264.553697,105.522786 265.605818,105.663946 266.624,105.946269 C267.642182,106.228591 268.470302,106.539144 269.108364,106.87793 C269.746425,107.216716 270.336971,107.611966 270.88,108.063682 C271.423029,108.515397 271.776,108.82595 271.938909,108.995343 C272.101818,109.164736 272.224,109.305896 272.305455,109.418826 L274.016,107.597851 L273.608727,107.13202 C273.337211,106.821467 272.909575,106.433274 272.325818,105.967443 C271.742061,105.501612 271.056484,105.04284 270.269091,104.591124 C269.481698,104.139409 268.48388,103.758274 267.275636,103.447721 C266.067394,103.137168 264.79806,102.981891 263.467636,102.981891 C259.340606,102.981891 255.851636,104.449964 253.000727,107.386109 C250.149818,110.322255 248.724364,114.034786 248.724364,118.523701 C248.724364,123.238475 250.136242,126.986296 252.96,129.767164 C255.783758,132.548033 259.299878,133.938468 263.508364,133.938468 C264.947394,133.938468 266.318545,133.7479 267.621818,133.366766 C268.925091,132.985632 269.970425,132.562149 270.757818,132.096318 C271.545164,131.630488 272.271466,131.087018 272.936727,130.46591 C273.601939,129.844806 274.029575,129.414265 274.219636,129.174289 C274.409698,128.934316 274.545455,128.743748 274.626909,128.602587 L272.794182,126.866308 Z M276.866909,105.819224 L285.053091,105.819224 L285.053091,133.472637 L287.700364,133.472637 L287.700364,105.819224 L295.805091,105.819224 L295.805091,103.447721 L276.866909,103.447721 L276.866909,105.819224 Z M297.841455,127.755622 L298.045091,128.390846 C298.180848,128.814328 298.45915,129.329565 298.88,129.936557 C299.300849,130.543549 299.80994,131.150541 300.407273,131.757532 C301.004606,132.364524 301.846303,132.879761 302.932364,133.303244 C304.018424,133.726726 305.213091,133.938468 306.516364,133.938468 C308.66133,133.938468 310.460118,133.275011 311.912727,131.9481 C313.365333,130.621187 314.091636,128.616703 314.091636,125.934647 C314.091636,124.15602 313.670787,122.659715 312.829091,121.445731 C311.987394,120.231774 310.962424,119.293055 309.754182,118.629572 C308.54594,117.966117 307.337697,117.330893 306.129455,116.7239 C304.921212,116.116908 303.896242,115.305234 303.054545,114.288876 C302.212848,113.272517 301.792,112.016186 301.792,110.519881 C301.792,108.93888 302.233212,107.703721 303.115636,106.814408 C303.998061,105.925095 305.158788,105.480438 306.597818,105.480438 C307.330909,105.480438 308.009697,105.628657 308.634182,105.925095 C309.258667,106.221532 309.747394,106.55326 310.100364,106.920279 C310.453333,107.287298 310.772364,107.71078 311.057455,108.190726 C311.342545,108.670672 311.525818,109.002402 311.607273,109.18591 C311.688727,109.369419 311.743031,109.517638 311.770182,109.630567 L314.050909,108.614209 L313.888,108.063682 C313.752242,107.66853 313.501091,107.188584 313.134545,106.623841 C312.768,106.059198 312.326787,105.501612 311.810909,104.951085 C311.295031,104.400557 310.582303,103.934726 309.672727,103.553592 C308.763157,103.172458 307.751763,102.981891 306.638545,102.981891 C304.439273,102.981891 302.647273,103.673578 301.262545,105.056955 C299.877818,106.440281 299.185455,108.331837 299.185455,110.731622 C299.185455,112.114998 299.409455,113.328982 299.857455,114.373572 C300.305455,115.418162 300.889213,116.251012 301.608727,116.872119 C302.328243,117.493227 303.122424,118.050813 303.991273,118.544876 C304.860113,119.038938 305.728961,119.497711 306.597818,119.921194 C307.466667,120.344677 308.260849,120.810507 308.980364,121.318687 C309.699878,121.826866 310.283636,122.49738 310.731636,123.330229 C311.179636,124.163078 311.403636,125.13003 311.403636,126.231085 C311.403636,127.783854 310.982787,129.040186 310.141091,130.00008 C309.299394,130.959973 308.077576,131.43992 306.475636,131.43992 C305.552485,131.43992 304.704,131.26347 303.930182,130.910567 C303.156364,130.557665 302.552243,130.169473 302.117818,129.74599 C301.683394,129.322507 301.296485,128.835502 300.957091,128.284975 C300.617705,127.734448 300.400493,127.353313 300.305455,127.141572 C300.210424,126.929831 300.149333,126.75338 300.122182,126.612219 L297.841455,127.755622 Z" id="AFTER-EFFECTS"></path>
                                <path d="M55.9683636,90.3681592 C63.174666,90.3681592 68.852666,88.4106866 73.0023636,84.4957413 C77.1520594,80.580797 79.2269091,75.066197 79.2269091,67.9519403 C79.2269091,60.5851084 77.1520594,55.0178885 73.0023636,51.2502786 C68.852666,47.4826687 63.0734545,45.5988657 55.6647273,45.5988657 L45.7054545,45.5988657 L45.7054545,90.3681592 L55.9683636,90.3681592 Z M69.4498182,67.9519403 C69.4498182,72.4562328 68.3769703,75.9186438 66.2312727,78.3391741 C64.0855751,80.7597045 60.8872727,81.9699701 56.6363636,81.9699701 L55.4218182,81.9699701 L55.4218182,53.9970547 L56.272,53.9970547 C60.5229091,53.9970547 63.7819388,55.1862707 66.0490909,57.5647065 C68.316243,59.9431403 69.4498182,63.4055522 69.4498182,67.9519403 L69.4498182,67.9519403 Z M95.5018182,71.9931741 L108.618909,71.9931741 L108.618909,63.7212736 L95.5018182,63.7212736 L95.5018182,53.8076219 L109.165455,53.8076219 L109.165455,45.5988657 L85.7854545,45.5988657 L85.7854545,90.3681592 L109.165455,90.3681592 L109.165455,82.159403 L95.5018182,82.159403 L95.5018182,71.9931741 Z M112.930545,80.8965174 L113.294909,81.9699701 C113.537818,82.6856059 114.013515,83.5485771 114.722,84.5588856 C115.430484,85.569194 116.300909,86.5689791 117.333273,87.5582388 C118.365636,88.5474995 119.782607,89.3999473 121.584182,90.1155821 C123.385758,90.8312169 125.359394,91.1890348 127.505091,91.1890348 C131.189212,91.1890348 134.286302,90.1050577 136.796364,87.9371045 C139.306425,85.7691522 140.561455,82.3909333 140.561455,77.8024478 C140.561455,75.1082916 139.984545,72.8350985 138.830727,70.9828657 C137.676909,69.1306329 136.290302,67.7204119 134.670909,66.752199 C133.051516,65.7839861 131.422,64.9210149 129.782364,64.1632836 C128.142727,63.4055522 126.746,62.4794368 125.592182,61.3849353 C124.438364,60.2904339 123.861455,58.9854527 123.861455,57.46999 C123.861455,56.0808159 124.23594,55.02841 124.984909,54.3127761 C125.733878,53.5971422 126.654909,53.2393234 127.748,53.2393234 C128.557698,53.2393234 129.316788,53.4287562 130.025273,53.8076219 C130.733757,54.1864876 131.300545,54.5969254 131.725636,55.0389353 C132.150727,55.4809453 132.555575,56.0071463 132.940182,56.6175423 C133.324788,57.2274334 133.567698,57.6483965 133.668909,57.8804279 C133.769466,58.1119562 133.840314,58.2908657 133.881455,58.4171542 L140.804364,54.5653532 L140.500727,53.5550448 C140.257818,52.8815045 139.822607,52.0711542 139.195091,51.12399 C138.567625,50.1768259 137.788291,49.2191364 136.857091,48.2509254 C135.925983,47.2827144 134.630467,46.4618388 132.970545,45.7882985 C131.310685,45.1147583 129.468623,44.77799 127.444364,44.77799 C123.598303,44.77799 120.450606,45.9356339 118.001273,48.2509254 C115.551939,50.5661783 114.327273,53.7023455 114.327273,57.6594229 C114.327273,60.101001 114.742242,62.2268597 115.572182,64.036995 C116.402121,65.8471304 117.424364,67.2257811 118.638909,68.1729453 C119.853455,69.1201095 121.189455,70.0041294 122.646909,70.825005 C124.104364,71.6458806 125.440364,72.3404677 126.654909,72.9087662 C127.869454,73.4770647 128.891696,74.234796 129.721636,75.1819602 C130.551575,76.1291244 130.966545,77.255197 130.966545,78.5601791 C130.966545,81.3385274 129.650788,82.7277015 127.019273,82.7277015 C126.128606,82.7277015 125.288545,82.5066965 124.499091,82.0646866 C123.709636,81.6226766 123.061878,81.1385702 122.555818,80.6123682 C122.049758,80.0861662 121.584182,79.4862955 121.159091,78.8127562 C120.734,78.1392169 120.470849,77.6656348 120.369636,77.39201 C120.268424,77.1183851 120.177333,76.8973801 120.096364,76.728995 L112.930545,80.8965174 Z M155.864727,45.5988657 L146.209091,45.5988657 L146.209091,90.3681592 L155.864727,90.3681592 L155.864727,45.5988657 Z M206.146909,64.8578706 L180.337818,64.8578706 L180.337818,72.8140498 L196.369818,72.8140498 C196.167395,75.4661095 195.236241,77.7393035 193.576364,79.6336318 C191.916486,81.5279602 189.183757,82.4751244 185.378182,82.4751244 C181.572607,82.4751244 178.43503,81.2017154 175.965455,78.6548955 C173.495878,76.1080834 172.261091,72.5404316 172.261091,67.9519403 C172.261091,63.4055522 173.465515,59.8589492 175.874364,57.3121294 C178.283212,54.7653114 181.349939,53.4919005 185.074545,53.4919005 C186.532,53.4919005 187.94897,53.7339523 189.325455,54.2180597 C190.701881,54.7021671 191.825336,55.2388935 192.695818,55.8282388 C193.566241,56.4175841 194.396182,57.1016497 195.185636,57.8804279 C195.975091,58.6592079 196.48115,59.2064577 196.703818,59.5221791 C196.926486,59.8379005 197.098545,60.0799542 197.22,60.2483383 L203.414182,53.8707662 L202.746182,52.923602 C202.341332,52.2921592 201.642968,51.5344279 200.651091,50.650408 C199.659213,49.7663881 198.495273,48.8823682 197.159273,47.9983483 C195.823273,47.1143284 194.082423,46.356597 191.936727,45.7251542 C189.79103,45.0937114 187.503636,44.77799 185.074545,44.77799 C178.677939,44.77799 173.303575,46.9354209 168.951455,51.2502786 C164.599334,55.5651364 162.423273,61.1744538 162.423273,68.0782289 C162.423273,75.3187722 164.599333,80.9807104 168.951455,85.0640398 C173.303572,89.1473692 178.718421,91.1890348 185.196,91.1890348 C188.718182,91.1890348 191.815273,90.6312607 194.487273,89.5157114 C197.159273,88.4001632 199.254364,86.9688935 200.772545,85.2219005 C202.290727,83.4749123 203.485032,81.3911511 204.355455,78.9706169 C205.225878,76.5500866 205.782545,74.2137482 206.025455,71.961602 C206.268364,69.7094567 206.30885,67.3415462 206.146909,64.8578706 L206.146909,64.8578706 Z M238.636,45.5988657 L238.636,60.0589055 C238.636,66.2470448 238.838425,71.2985871 239.243273,75.2135323 L238.575273,73.6980697 C238.129939,72.7298567 237.340484,71.1933472 236.206909,69.0885373 C235.073334,66.9837274 233.818302,64.8368219 232.441818,62.6478209 L221.936,45.5988657 L212.766182,45.5988657 L212.766182,90.3681592 L222.482545,90.3681592 L222.482545,75.7186866 C222.482545,74.3716089 222.462303,72.9719104 222.421818,71.519592 C222.381333,70.0672736 222.330727,68.7517672 222.27,67.5730746 C222.209273,66.3943821 222.148545,65.3314527 222.087818,64.3842886 C222.027091,63.4371244 221.976485,62.6688696 221.936,62.0795224 C221.895515,61.4901751 221.875273,61.1744538 221.875273,61.1323582 C222.76594,63.5739363 224.769939,67.2994488 227.887273,72.3088955 L239.061091,90.3681592 L248.352364,90.3681592 L248.352364,45.5988657 L238.636,45.5988657 Z M251.388727,97.5034627 L254.121455,97.5034627 L272.096727,44.3359801 L269.364,44.3359801 L251.388727,97.5034627 Z" id="DESIGN/"></path>
                                <path d="M16.0203636,41.2139303 L20.1643636,41.2139303 L22.8552727,25.3212338 C23.2858182,22.7470647 24.1917565,20.6299032 25.5730909,18.9697512 C26.9544253,17.3095992 28.7214545,16.4795224 30.8741818,16.4795224 C32.7756152,16.4795224 34.0313717,17.0950846 34.6414545,18.326209 C35.2513928,19.5573333 35.3590292,21.3667137 34.9643636,23.7543483 L32.0043636,41.2139303 L36.0945455,41.2139303 L39.2698182,22.4672637 C39.7721201,19.5200271 39.3953928,17.1976788 38.1396364,15.5002189 C36.8838799,13.802759 34.8926072,12.9540299 32.1658182,12.9540299 C31.0894545,12.9540299 30.04,13.1405644 29.0174545,13.5136318 C27.9949091,13.8866993 27.1696981,14.3064008 26.5418182,14.7727363 C25.9139383,15.2390719 25.3219383,15.7706938 24.7658182,16.367602 C24.2096981,16.9645102 23.8509091,17.3748856 23.6894545,17.5987264 C23.528,17.8225672 23.4113945,18.0091017 23.3396364,18.1583284 C22.5861818,14.688796 20.2181818,12.9540299 16.2356364,12.9540299 C15.195151,12.9540299 14.1995146,13.1219104 13.2487273,13.4576716 C12.2979399,13.7934328 11.5444854,14.1571741 10.9883636,14.5488955 C10.4322419,14.9406169 9.912,15.4069525 9.42763636,15.9479005 C8.94327273,16.4888485 8.63830276,16.8619177 8.51272727,17.0671045 C8.38715179,17.2722913 8.28848457,17.4308458 8.21672727,17.5427662 L8.91636364,13.289791 L4.82618182,13.289791 L0.0901818182,41.2139303 L4.23418182,41.2139303 L6.92509091,25.3212338 C7.35563636,22.7470647 8.26157548,20.6299032 9.64290909,18.9697512 C11.0242419,17.3095992 12.7912727,16.4795224 14.944,16.4795224 C16.8814545,16.4795224 18.1372127,17.1323908 18.7112727,18.4381294 C19.2853328,19.7438679 19.339151,21.7584351 18.8727273,24.4818308 L16.0203636,41.2139303 Z M44.7054545,28.3430846 C44.7054545,32.5214455 45.9163636,35.8137711 48.3381818,38.2200597 C50.7599975,40.6263483 53.9263003,41.8294925 57.8370909,41.8294925 C61.9990309,41.8294925 65.4164854,40.3652004 68.0894545,37.4366169 C70.7624253,34.5080352 72.0989091,30.6747615 72.0989091,25.936796 C72.0989091,21.7957413 70.8610909,18.5500498 68.3854545,16.1997214 C65.9098182,13.849393 62.8601218,12.6742289 59.2363636,12.6742289 C54.7873945,12.6742289 51.2533336,14.2131343 48.6341818,17.2909453 C46.01503,20.3687562 44.7054545,24.0528032 44.7054545,28.3430846 L44.7054545,28.3430846 Z M67.9549091,25.9927562 C67.9549091,29.574209 67.0938182,32.4748123 65.3716364,34.6945672 C63.6494545,36.9143229 61.1379399,38.0241999 57.8370909,38.024199 C54.9667939,38.024199 52.7512785,37.1381628 51.1905455,35.3660896 C49.6298182,33.5940163 48.8494545,31.2530149 48.8494545,28.3430846 C48.8494545,24.8735522 49.7643636,22.0289082 51.5941818,19.8091542 C53.424,17.5894002 55.9355146,16.4795224 59.1287273,16.4795224 C61.8913945,16.4795224 64.0530909,17.3842117 65.6138182,19.193592 C67.1745455,21.0029724 67.9549091,23.2693604 67.9549091,25.9927562 L67.9549091,25.9927562 Z M76.5658182,16.9831642 L80.2254545,16.9831642 L77.104,35.8417512 C76.4581818,39.7589652 77.8036364,41.7175721 81.1403636,41.7175721 C82.6831518,41.7175721 84.1362427,41.4750782 85.4996364,40.9900896 L86.0916364,37.3526766 L85.7149091,37.5205572 C85.4637581,37.5951577 85.096,37.679098 84.6116364,37.7723781 C84.1272727,37.8656454 83.6698182,37.9122786 83.2392727,37.9122786 C82.3064245,37.9122786 81.7054545,37.6884378 81.4363636,37.2407562 C81.1672727,36.7930746 81.1224245,35.9909779 81.3018182,34.8344677 L84.3156364,16.9831642 L89.1592727,16.9831642 L89.8050909,13.289791 L84.9614545,13.289791 L86.4145455,4.89576119 L82.0552727,6.40668657 L80.8712727,13.289791 L77.2116364,13.289791 L76.5658182,16.9831642 Z M100.891636,13.289791 L96.7476364,13.289791 L92.0654545,41.2139303 L96.1556364,41.2139303 L100.891636,13.289791 Z M96.9629091,3.66463682 C96.9629091,4.6719204 97.2678791,5.49267112 97.8778182,6.12688557 C98.4877573,6.76110002 99.2412118,7.07820896 100.138182,7.07820896 C101.035152,7.07820896 101.788606,6.76110002 102.398545,6.12688557 C103.008485,5.49267112 103.313455,4.6719204 103.313455,3.66463682 C103.313455,2.65735323 103.008485,1.83660251 102.398545,1.20238806 C101.788619,0.568173609 101.035164,0.251064677 100.138182,0.251064677 C99.2412118,0.251064677 98.4877573,0.568173609 97.8778182,1.20238806 C97.2678791,1.83660251 96.9629091,2.65735323 96.9629091,3.66463682 L96.9629091,3.66463682 Z M104.981818,28.3430846 C104.981818,32.5214455 106.192727,35.8137711 108.614545,38.2200597 C111.036361,40.6263483 114.202664,41.8294925 118.113455,41.8294925 C122.275394,41.8294925 125.692849,40.3652004 128.365818,37.4366169 C131.038789,34.5080352 132.375273,30.6747615 132.375273,25.936796 C132.375273,21.7957413 131.137455,18.5500498 128.661818,16.1997214 C126.186182,13.849393 123.136485,12.6742289 119.512727,12.6742289 C115.063758,12.6742289 111.529697,14.2131343 108.910545,17.2909453 C106.291394,20.3687562 104.981818,24.0528032 104.981818,28.3430846 L104.981818,28.3430846 Z M128.231273,25.9927562 C128.231273,29.574209 127.370182,32.4748123 125.648,34.6945672 C123.925818,36.9143229 121.414304,38.0241999 118.113455,38.024199 C115.243158,38.024199 113.027642,37.1381628 111.466909,35.3660896 C109.906182,33.5940163 109.125818,31.2530149 109.125818,28.3430846 C109.125818,24.8735522 110.040727,22.0289082 111.870545,19.8091542 C113.700364,17.5894002 116.211878,16.4795224 119.405091,16.4795224 C122.167758,16.4795224 124.329455,17.3842117 125.890182,19.193592 C127.450909,21.0029724 128.231273,23.2693604 128.231273,25.9927562 L128.231273,25.9927562 Z M136.411636,41.2139303 L140.501818,41.2139303 L143.192727,25.3212338 C143.623273,22.7470647 144.565091,20.6299032 146.018182,18.9697512 C147.471273,17.3095992 149.292122,16.4795224 151.480727,16.4795224 C155.140364,16.4795224 156.575515,18.9044649 155.786182,23.7543483 L152.826182,41.2139303 L156.916364,41.2139303 L160.091636,22.4672637 C160.593938,19.5200271 160.190302,17.1976788 158.880727,15.5002189 C157.571176,13.802759 155.535054,12.9540299 152.772364,12.9540299 C151.731878,12.9540299 150.727273,13.1219104 149.758545,13.4576716 C148.789818,13.7934328 148.018424,14.1571741 147.444364,14.5488955 C146.870304,14.9406169 146.323151,15.4069525 145.802909,15.9479005 C145.282716,16.4888485 144.950837,16.8619177 144.807273,17.0671045 C144.663757,17.2722913 144.556121,17.4308458 144.484364,17.5427662 L145.184,13.289791 L141.093818,13.289791 L136.411636,41.2139303 Z" id="motion"></path>
                            </g>
                            <g id="TRAININGS" transform="translate(50.545455, 140.278607)" fill="#FFA000">
                                <path d="M0.228727273,7.69868657 L8.12472727,7.69868657 L8.12472727,38.5671642 L16.3283636,38.5671642 L16.3283636,7.69868657 L24.1730909,7.69868657 L24.1730909,0.767940299 L0.228727273,0.767940299 L0.228727273,7.69868657 Z M50.5272727,11.9104478 C50.5272727,8.49838806 49.4505455,5.78828964 47.2970909,3.78014925 C45.1436364,1.77200887 41.7938177,0.767940299 37.2476364,0.767940299 L28.1210909,0.767940299 L28.1210909,38.5671642 L36.376,38.5671642 L36.376,23.7993433 L43.8618182,38.5671642 L53.3985455,38.5671642 L43.8105455,22.6797612 C46.0665455,21.7912045 47.7500005,20.4050553 48.8609091,18.5213134 C49.9718177,16.6375716 50.5272727,14.4339508 50.5272727,11.9104478 L50.5272727,11.9104478 Z M36.3247273,7.48543284 L37.0425455,7.48543284 C39.0250622,7.48543284 40.3923344,7.88528358 41.1443636,8.68498507 C41.8963631,9.48468657 42.2723636,10.5598419 42.2723636,11.9104478 C42.2723636,13.5098507 41.9049096,14.7271747 41.17,15.5624179 C40.4350904,16.3976611 39.0934545,16.8152836 37.1450909,16.8152836 L36.3247273,16.8152836 L36.3247273,7.48543284 Z M80.7781818,38.5671642 L89.4945455,38.5671642 L74.4203636,0.767940299 L68.3189091,0.767940299 L53.1934545,38.5671642 L61.6534545,38.5671642 L64.5247273,30.7300896 L77.8556364,30.7300896 L80.7781818,38.5671642 Z M67.396,23.0529552 C67.8061818,21.9511448 68.2163636,20.813791 68.6265455,19.6408955 C69.0367273,18.468 69.3870914,17.4283881 69.6776364,16.5220597 C69.9680561,15.6157313 70.2329647,14.7982582 70.4723636,14.0696418 C70.7115044,13.3410254 70.8995039,12.7545777 71.0363636,12.3102985 C71.1730904,11.8660194 71.2414545,11.6261089 71.2414545,11.5905672 C72.2669091,15.1803275 73.5316358,18.9833529 75.0356364,22.9996418 L75.292,23.7460299 L67.1396364,23.7460299 L67.396,23.0529552 Z M100.877091,0.767940299 L92.7247273,0.767940299 L92.7247273,38.5671642 L100.877091,38.5671642 L100.877091,0.767940299 Z M129.897455,0.767940299 L129.897455,12.9767164 C129.897455,18.2014328 130.068364,22.4665075 130.410182,25.7719403 L129.846182,24.4924179 C129.470181,23.6749447 128.803636,22.3776523 127.846545,20.6005373 C126.889455,18.8234223 125.829818,17.0107656 124.667636,15.1625672 L115.797455,0.767940299 L108.055273,0.767940299 L108.055273,38.5671642 L116.258909,38.5671642 L116.258909,26.1984478 C116.258909,25.0610948 116.241818,23.8793134 116.207636,22.6531045 C116.173454,21.4268955 116.130727,20.3161985 116.079455,19.3210149 C116.028182,18.3258314 115.976909,17.4283881 115.925636,16.6286866 C115.874364,15.8289851 115.831637,15.1803389 115.797455,14.6827463 C115.763272,14.1851537 115.746182,13.9185865 115.746182,13.8830448 C116.498182,15.944497 118.190181,19.0899895 120.822182,23.3195224 L130.256364,38.5671642 L138.101091,38.5671642 L138.101091,0.767940299 L129.897455,0.767940299 Z M153.431636,0.767940299 L145.279273,0.767940299 L145.279273,38.5671642 L153.431636,38.5671642 L153.431636,0.767940299 Z M182.452,0.767940299 L182.452,12.9767164 C182.452,18.2014328 182.62291,22.4665075 182.964727,25.7719403 L182.400727,24.4924179 C182.024727,23.6749447 181.358181,22.3776523 180.401091,20.6005373 C179.444001,18.8234223 178.384363,17.0107656 177.222182,15.1625672 L168.352,0.767940299 L160.609818,0.767940299 L160.609818,38.5671642 L168.813455,38.5671642 L168.813455,26.1984478 C168.813455,25.0610948 168.796364,23.8793134 168.762182,22.6531045 C168.728,21.4268955 168.685273,20.3161985 168.634,19.3210149 C168.582727,18.3258314 168.531455,17.4283881 168.480182,16.6286866 C168.428909,15.8289851 168.386182,15.1803389 168.352,14.6827463 C168.317818,14.1851537 168.300727,13.9185865 168.300727,13.8830448 C169.052728,15.944497 170.744727,19.0899895 173.376727,23.3195224 L182.810909,38.5671642 L190.655636,38.5671642 L190.655636,0.767940299 L182.452,0.767940299 Z M233.109455,17.0285373 L211.318545,17.0285373 L211.318545,23.7460299 L224.854545,23.7460299 C224.683637,25.985194 223.897454,27.9044776 222.496,29.5038806 C221.094546,31.1032836 218.787272,31.9029851 215.574182,31.9029851 C212.361091,31.9029851 209.711999,30.8278314 207.626909,28.6775224 C205.541818,26.5272199 204.499273,23.5150109 204.499273,19.6408955 C204.499273,15.8023284 205.516182,12.8078911 207.55,10.6575821 C209.583818,8.50727472 212.17309,7.4321194 215.317818,7.4321194 C216.548364,7.4321194 217.744728,7.63648648 218.906909,8.04522388 C220.069042,8.45396128 221.017587,8.90712546 221.752545,9.40471642 C222.487454,9.90230737 223.188182,10.4798717 223.854727,11.137403 C224.521273,11.7949359 224.948544,12.2569851 225.136545,12.5235522 C225.324546,12.7901194 225.469818,12.9944881 225.572364,13.1366567 L230.802182,7.752 L230.238182,6.95229851 C229.896363,6.41916418 229.306726,5.77940299 228.469273,5.03301493 C227.631819,4.28662687 226.649091,3.54023881 225.521091,2.79385075 C224.393091,2.04746269 222.923272,1.40770149 221.111636,0.874567164 C219.299999,0.341432836 217.368727,0.0748656716 215.317818,0.0748656716 C209.91709,0.0748656716 205.379454,1.89640904 201.704909,5.53949254 C198.030364,9.18257603 196.193091,13.9185865 196.193091,19.7475224 C196.193091,25.8607955 198.030363,30.6412344 201.704909,34.0888358 C205.379452,37.5364373 209.95127,39.2602388 215.420364,39.2602388 C218.394182,39.2602388 221.009091,38.7893038 223.265091,37.8474328 C225.521091,36.9055627 227.29,35.6971255 228.571818,34.2221194 C229.853636,32.7471174 230.862001,30.9877741 231.596909,28.9440896 C232.331817,26.9004082 232.801818,24.9278112 233.006909,23.0262985 C233.212,21.1247866 233.246183,19.1255329 233.109455,17.0285373 L233.109455,17.0285373 Z M235.621818,30.5701493 L235.929455,31.4764776 C236.134545,32.0806971 236.536182,32.8093134 237.134364,33.6623284 C237.732545,34.5153433 238.467455,35.3594732 239.339091,36.1947164 C240.210727,37.0299605 241.407091,37.7496918 242.928182,38.3539104 C244.449273,38.9581291 246.115637,39.2602388 247.927273,39.2602388 C251.037818,39.2602388 253.652727,38.3450246 255.772,36.514597 C257.891273,34.6841702 258.950909,31.8319016 258.950909,27.957791 C258.950909,25.6830843 258.463818,23.7638015 257.489636,22.1999403 C256.515455,20.6360791 255.344727,19.4454135 253.977455,18.6279403 C252.610182,17.8104671 251.234364,17.0818507 249.85,16.4420896 C248.465636,15.8023284 247.286364,15.0203986 246.312182,14.0962985 C245.338,13.1721985 244.850909,12.0703881 244.850909,10.7908657 C244.850909,9.61797015 245.167091,8.72941185 245.799455,8.12519403 C246.431818,7.52097621 247.209455,7.21886567 248.132364,7.21886567 C248.816001,7.21886567 249.45691,7.37880597 250.055091,7.69868657 C250.653272,8.01856716 251.131818,8.36510448 251.490727,8.73829851 C251.849636,9.11149254 252.191454,9.55577006 252.516182,10.0711343 C252.84091,10.5860723 253.046001,10.9414963 253.131455,11.137403 C253.216356,11.332885 253.276174,11.4839403 253.310909,11.5905672 L259.156,8.33844776 L258.899636,7.48543284 C258.694545,6.91675513 258.327091,6.23256716 257.797273,5.43286567 C257.267496,4.63316418 256.609496,3.82457603 255.823273,3.00710448 C255.037128,2.18963293 253.943309,1.4965583 252.541818,0.927880597 C251.140379,0.359202895 249.585106,0.0748656716 247.876,0.0748656716 C244.628728,0.0748656716 241.971091,1.05227752 239.903091,3.00710448 C237.83509,4.96189889 236.801091,7.60980048 236.801091,10.950806 C236.801091,13.0122582 237.151454,14.8071448 237.852182,16.3354627 C238.552909,17.8637806 239.416,19.027791 240.441455,19.8274925 C241.466909,20.627194 242.594909,21.3735821 243.825455,22.0666567 C245.056,22.7597313 246.184,23.3461791 247.209455,23.826 C248.234908,24.3058209 249.097999,24.9455821 249.798727,25.7452836 C250.499454,26.5449851 250.849818,27.495741 250.849818,28.5975522 C250.849818,30.9433433 249.73891,32.1162388 247.517091,32.1162388 C246.765091,32.1162388 246.055818,31.9296418 245.389273,31.5564478 C244.722727,31.1832537 244.175818,30.7745171 243.748545,30.3302388 C243.321273,29.8859605 242.928182,29.3794829 242.569273,28.810806 C242.210364,28.2421291 241.988182,27.8422783 241.902727,27.6112537 C241.817272,27.3802291 241.740363,27.1936321 241.672,27.0514627 L235.621818,30.5701493 Z"></path>
                            </g>
                        </g>
                    </g>
                </g>
            </g>
        </g>
    </g>
</svg>