<?xml version="1.0" encoding="UTF-8" standalone="no"?>
<svg width="52px" height="42px" viewBox="0 0 52 42" version="1.1" xmlns="http://www.w3.org/2000/svg" xmlns:xlink="http://www.w3.org/1999/xlink" xmlns:sketch="http://www.bohemiancoding.com/sketch/ns">
    <!-- Generator: Sketch 3.4.2 (15857) - http://www.bohemiancoding.com/sketch -->
    <title>praxisguricons</title>
    <desc>Created with Sketch.</desc>
    <defs>
        <filter x="-50%" y="-50%" width="200%" height="200%" filterUnits="objectboundingbox" id="filter-1">
            <feoffset dx="0" dy="1" in="SourceAlpha" result="shadowoffsetouter1"></feoffset>
            <fegaussianblur stdDeviation="0.5" in="shadowoffsetouter1" result="shadowblurouter1"></fegaussianblur>
            <fecolormatrix values="0 0 0 0 0   0 0 0 0 0   0 0 0 0 0  0 0 0 0.28 0" in="shadowblurouter1" type="matrix" result="shadowmatrixouter1"></fecolormatrix>
            <femerge>
                <femergenode in="shadowmatrixouter1"></femergenode>
                <femergenode in="SourceGraphic"></femergenode>
            </femerge>
        </filter>
    </defs>
    <g id="Page-1" stroke="none" stroke-width="1" fill="none" fill-rule="evenodd" sketch:type="MSPage">
        <g id="Desktop" sketch:type="MSArtboardGroup" transform="translate(-99.000000, -463.000000)">
            <g id="praxis" sketch:type="MSLayerGroup" transform="translate(100.000000, 463.000000)">
                <rect id="BG_Praxis" fill="#FFC107" filter="url(#filter-1)" sketch:type="MSShapeGroup" x="0" y="0" width="49.6977071" height="39.6286584" rx="2"></rect>
                <path d="M13.4696678,30.239576 C13.4696678,30.0670422 13.5258229,29.9160774 13.6381346,29.786677 L20.680047,22.6696935 C20.7698964,22.5834266 20.8709755,22.5402938 20.9832872,22.5402938 C21.0282119,22.5402938 21.106829,22.5726434 21.2191408,22.6373436 L22.8027287,24.0930902 C22.8925781,24.1793571 22.9375022,24.2710143 22.9375022,24.3680646 C22.9375022,24.4651149 22.9150401,24.5459889 22.8701154,24.610689 L15.9629765,31.7600225 C15.80574,31.9109895 15.6316594,31.9864719 15.4407294,31.9864719 C15.2497994,31.9864719 15.0869498,31.9325559 14.9521757,31.8247223 L13.7055213,30.7248249 C13.5482849,30.5954245 13.4696678,30.4336765 13.4696678,30.239576 L13.4696678,30.239576 Z M13.5033612,11.670719 C13.8178341,10.8511835 14.0761473,10.3120235 14.2783085,10.0532228 C14.3681579,9.94538914 14.458006,9.84834034 14.5478554,9.76207344 C14.7949412,9.54640619 15.1318715,9.19056058 15.5586562,8.69452591 C15.9854409,8.19849125 16.2886781,7.88577843 16.4683769,7.75637809 L28.4632133,18.561253 C27.744418,19.1435546 27.3850258,19.8552458 27.3850258,20.6963481 C27.3850258,20.8257484 27.3962568,20.9821049 27.4187191,21.165422 C27.4411815,21.3487392 27.4973365,21.5697948 27.5871859,21.8285955 L27.6208793,22.055045 C27.6433416,22.0981784 27.6545726,22.1628776 27.6545726,22.2491445 C27.6545726,22.5726454 27.5534936,22.8530086 27.3513324,23.0902426 L26.9807054,23.4137418 L26.6100785,23.8019409 C26.2506808,24.1685752 26.0709847,24.58912 26.0709847,25.063588 C26.0709847,25.451789 26.2394498,25.829201 26.5763851,26.1958354 L25.2960374,26.7134342 C25.3409621,26.5193336 25.4195792,26.2821032 25.5318909,26.0017358 L25.8014378,25.3223874 L25.2286507,25.5488369 C24.9591024,25.6566705 24.7344823,25.7321529 24.5547835,25.7752863 C24.6221705,25.6243193 24.7120186,25.3978721 24.8243303,25.0959379 C24.9366421,24.7940038 25.0152592,24.5675566 25.0601839,24.4165895 L24.6558635,24.5459892 L23.8472229,24.8371385 L24.3189299,23.5107916 C24.1616935,23.5754918 23.9483043,23.6509742 23.6787561,23.7372411 L23.0048889,23.9313406 L23.5439826,22.5079439 C23.4092085,22.5510774 23.2070504,22.6265598 22.9375022,22.7343934 C22.6679539,22.842227 22.4545648,22.9069262 22.2973283,22.9284929 L22.5668752,22.2814944 C22.679187,22.001127 22.757804,21.7746798 22.8027287,21.602146 L22.2299416,21.7962456 C21.9603933,21.8825125 21.7470042,21.9579949 21.5897677,22.022695 L22.0614748,20.6963481 L20.8485138,21.0845472 L21.3202208,19.7582003 L20.0735665,20.1787493 L20.5789669,18.8200524 L19.3323126,19.2406015 L19.837713,17.9142545 L18.6584454,18.3024536 C18.8606065,17.7201521 19.0066096,17.2780409 19.096459,16.9761067 L17.8834981,17.3643058 L18.1193516,16.7496572 C18.2316634,16.4477231 18.3215114,16.2212759 18.3888985,16.0703088 C18.0295008,16.1997092 17.5914915,16.3398908 17.0748574,16.4908578 L17.6476445,14.9704114 L16.4346836,15.3909604 L16.940084,14.0646135 L15.6934296,14.4204626 C15.7383543,14.3341957 15.8169714,14.1400981 15.9292831,13.838164 L16.19883,13.1264656 L14.9858691,13.5146647 L15.4912695,12.1883178 L14.2109218,12.6088668 L14.7163222,11.25017 L13.5033612,11.670719 Z M16.1314433,8.53277629 C17.1647115,9.46014544 18.9841348,11.1099751 21.5897677,13.4823148 C24.1954006,15.8546545 26.2169821,17.6770154 27.6545726,18.9494521 L27.9241195,18.6259529 L16.4346836,8.24162696 C16.4122212,8.28476041 16.3672972,8.33867641 16.2999101,8.40337659 C16.2325231,8.46807676 16.176368,8.51120956 16.1314433,8.53277629 L16.1314433,8.53277629 Z M25.5318909,10.1502725 C25.5318909,9.99930547 25.588046,9.86990706 25.7003577,9.76207344 L27.4187191,7.75637809 C27.5085685,7.64854446 27.6152631,7.59462846 27.738806,7.59462846 C27.862349,7.59462846 27.9690436,7.63776126 28.058893,7.72402816 L28.4969067,8.14457719 C28.7439925,8.38181116 28.9012266,8.52199276 28.9686137,8.56512621 C29.1033878,8.67295983 29.1932359,8.89940705 29.2381606,9.24447464 C29.2830853,9.58954223 29.4515504,9.86990544 29.743561,10.0855727 C30.0355716,10.3012399 30.3949638,10.4198551 30.8217485,10.4414219 C31.2485332,10.4629886 31.5180774,10.5169046 31.6303892,10.6031715 L31.7314693,10.6678713 C31.7988563,10.7110048 31.8887044,10.7864872 32.0010162,10.8943208 C32.1133279,11.0021544 32.236869,11.0992032 32.3716431,11.1854701 C32.5064172,11.271737 32.6748824,11.433485 32.8770435,11.670719 C33.0792047,11.907953 33.2813628,12.1128338 33.483524,12.2853676 C34.6066417,13.4499707 35.3815812,14.3449764 35.8083659,14.9704114 C36.2351506,15.5958464 36.5159258,16.1565728 36.6506999,16.6526075 L37.1897937,20.4375487 C37.1897937,20.5885158 37.0887146,20.491467 36.8865534,20.1463994 C36.8191664,20.0601325 36.7180873,19.9091677 36.5833132,19.6935004 C35.5725073,18.0112959 34.7077197,16.8790599 33.9889244,16.2967583 C33.4273656,15.8438571 32.9219703,15.6174099 32.4727232,15.6174099 C32.0234761,15.6174099 31.6079289,15.8007243 31.2260689,16.1673586 C31.0912947,16.2967589 30.7543645,16.5771222 30.215268,17.0084566 C29.6761716,17.4397911 29.3841654,17.6878047 29.3392407,17.7525049 C29.294316,17.8172051 29.2381609,17.8495547 29.1707739,17.8495547 C29.1033868,17.8495547 29.0360008,17.8172051 28.9686137,17.7525049 C28.6990655,17.5368377 28.047667,16.9329784 27.0143988,15.9409091 C26.7897753,15.7468086 26.7336202,15.606627 26.845932,15.5203601 C27.4524155,14.8302249 27.9128868,14.2587153 28.2273598,13.8058141 C28.5418327,13.3529129 28.6990668,12.9269764 28.6990668,12.527992 C28.6990668,12.1290076 28.5530637,11.80012 28.2610531,11.5413193 C28.0813543,11.3472188 27.7781171,11.25017 27.3513324,11.25017 C27.261483,11.25017 27.1491729,11.2609532 27.0143988,11.2825199 C26.8796247,11.3040866 26.8010076,11.3040866 26.7785453,11.2825199 C26.7560829,11.2609532 26.7111589,11.2609532 26.6437718,11.2825199 L25.7003577,10.5061217 C25.588046,10.3982881 25.5318909,10.2796729 25.5318909,10.1502725 L25.5318909,10.1502725 Z M26.9807054,23.9960405 L27.1828656,23.8019409 L27.3513324,23.6078414 C27.8005794,23.1980736 28.0251996,22.7451792 28.0251996,22.2491445 L28.0251996,21.9579952 L27.9241195,21.6344959 L27.8230394,21.1492471 C27.8005771,20.9767133 27.7893461,20.8365316 27.7893461,20.728698 C27.7893461,19.8013289 28.1824314,19.1327704 28.9686137,18.7230027 C29.0809255,18.6583025 29.1595425,18.6259529 29.2044672,18.6259529 L29.2381606,18.6259529 C29.3504723,18.6259529 29.4515514,18.6690857 29.5414008,18.7553526 L32.4727232,21.6668459 C33.348755,22.6589152 34.2809286,23.510788 35.2692721,24.2224899 C35.830831,24.6538244 36.3137643,25.1067188 36.7180866,25.5811868 C36.8528608,25.7321539 36.9314778,25.8939019 36.9539402,26.0664357 L36.9539402,26.3899349 C36.9090155,26.4762018 36.7405503,26.540901 36.4485398,26.5840345 L36.2126862,26.5840345 L35.8420593,26.6163844 C34.9435652,26.7457847 34.3370907,27.13398 34.0226178,27.7809817 C33.842919,28.1044826 33.4610647,28.6759922 32.8770435,29.4955277 C32.2930224,30.3150632 31.9111681,30.9836217 31.7314693,31.5012231 L31.6640825,31.5659229 C31.5293084,31.8247236 31.3383813,31.954122 31.0912954,31.954122 C30.8442095,31.954122 30.6420514,31.8570732 30.4848149,31.6629727 C30.4398902,31.5982725 30.3837352,31.4904405 30.3163481,31.3394734 C30.2489611,31.1885064 30.181575,31.0806744 30.114188,31.0159742 C29.7772527,30.6062064 29.4852465,30.2827104 29.2381606,30.0454764 C29.1033865,29.8945094 28.6878392,29.5817966 27.9915062,29.1073286 C27.654571,28.8485279 27.4524128,28.5250319 27.3850258,28.1368309 C27.3625634,28.0289972 27.3513324,27.9319484 27.3513324,27.8456815 L27.3513324,27.231033 C27.261483,26.6918648 27.0817869,26.2497536 26.8122386,25.904686 C26.7448516,25.8399859 26.683081,25.7375455 26.6269251,25.5973617 C26.5707693,25.457178 26.5314607,25.3008216 26.5089984,25.1282878 C26.486536,25.0851544 26.475305,25.0204552 26.475305,24.9341883 C26.475305,24.6106874 26.6437701,24.2979746 26.9807054,23.9960405 Z M27.6545726,25.1929877 C27.9465832,25.322388 28.1150483,25.3870872 28.159973,25.3870872 C28.2048978,25.3870872 28.2498218,25.376304 28.2947465,25.3547373 C28.3396712,25.3331706 28.3733642,25.2792546 28.3958266,25.1929877 C28.4182889,25.1067208 28.4519819,25.063588 28.4969067,25.063588 C28.2947455,24.8910542 28.1543579,24.8047886 28.0757396,24.8047886 C27.9971214,24.8047886 27.8567338,24.934187 27.6545726,25.1929877 L27.6545726,25.1929877 Z M28.9686137,28.2015307 C29.1258502,28.7191321 29.4178564,29.0965441 29.8446411,29.3337781 C30.0243399,29.3984783 30.170343,29.4308279 30.2826548,29.4308279 C30.3949665,29.4308279 30.5409696,29.3553455 30.7206685,29.2043784 C30.9228296,28.9887111 31.1586808,28.7083479 31.428229,28.3632803 L33.2813639,25.7752863 L33.3150572,25.7105865 C33.5621431,25.4086523 33.6856842,25.0959395 33.6856842,24.7724387 C33.6856842,24.2117038 33.3487539,23.7803758 32.6748834,23.4784417 C32.4951845,23.4137415 32.3604125,23.3813919 32.270563,23.3813919 C32.0908642,23.3813919 31.9111681,23.4568743 31.7314693,23.6078414 C31.4169963,23.8882088 31.2036072,24.114656 31.0912954,24.2871898 L29.4740141,26.6487343 C29.1370788,27.1879024 28.9686137,27.6731464 28.9686137,28.1044809 L28.9686137,28.2015307 Z M29.5414008,21.7638956 C29.8783361,21.9364294 30.0692633,22.022695 30.114188,22.022695 C30.1591127,22.022695 30.2152677,21.9903454 30.2826548,21.9256453 C30.3500418,21.8609451 30.3781193,21.7962459 30.3668882,21.7315457 C30.355657,21.6668455 30.3051175,21.5913631 30.215268,21.5050962 C30.1254186,21.4188293 30.0580326,21.3810881 30.0131079,21.3918715 C29.9681832,21.4026549 29.8109491,21.5266617 29.5414008,21.7638956 L29.5414008,21.7638956 Z" id="Praxis" fill="#EEEEEE" sketch:type="MSShapeGroup"></path>
            </g>
        </g>
    </g>
</svg>