<?xml version="1.0" encoding="UTF-8" standalone="no"?>
<svg width="201px" height="164px" viewBox="0 0 201 164" version="1.1" xmlns="http://www.w3.org/2000/svg" xmlns:xlink="http://www.w3.org/1999/xlink" xmlns:sketch="http://www.bohemiancoding.com/sketch/ns">
    <!-- Generator: Sketch 3.4.2 (15857) - http://www.bohemiancoding.com/sketch -->
    <title>praxis</title>
    <desc>Created with Sketch.</desc>
    <defs>
        <filter x="-50%" y="-50%" width="200%" height="200%" filterUnits="objectboundingbox" id="filter-1">
            <feoffset dx="0" dy="3" in="SourceAlpha" result="shadowoffsetouter1"></feoffset>
            <fegaussianblur stdDeviation="3" in="shadowoffsetouter1" result="shadowblurouter1"></fegaussianblur>
            <fecolormatrix values="0 0 0 0 0   0 0 0 0 0   0 0 0 0 0  0 0 0 0.28 0" in="shadowblurouter1" type="matrix" result="shadowmatrixouter1"></fecolormatrix>
            <feoffset dx="0" dy="1" in="SourceAlpha" result="shadowOffsetInner1"></feoffset>
            <fegaussianblur stdDeviation="1" in="shadowOffsetInner1" result="shadowBlurInner1"></fegaussianblur>
            <feComposite in="shadowBlurInner1" in2="SourceAlpha" operator="arithmetic" k2="-1" k3="1" result="shadowInnerInner1"></feComposite>
            <fecolormatrix values="0 0 0 0 1   0 0 0 0 1   0 0 0 0 1  0 0 0 0.56 0" in="shadowInnerInner1" type="matrix" result="shadowMatrixInner1"></fecolormatrix>
            <femerge>
                <femergenode in="shadowmatrixouter1"></femergenode>
                <femergenode in="SourceGraphic"></femergenode>
                <femergenode in="shadowMatrixInner1"></femergenode>
            </femerge>
        </filter>
    </defs>
    <g id="@FlatGuricht_StuckoMoskwa" stroke="none" stroke-width="1" fill="none" fill-rule="evenodd" sketch:type="MSPage">
        <g id="final-buttons" sketch:type="MSArtboardGroup" transform="translate(-354.000000, -77.000000)">
            <g id="praxis" sketch:type="MSLayerGroup" transform="translate(360.000000, 80.000000)">
                <rect id="BG_Praxis" fill="#FFC107" filter="url(#filter-1)" sketch:type="MSShapeGroup" x="0" y="0" width="188.169679" height="151.321569" rx="2"></rect>
                <path d="M51,115.469467 C51,114.810649 51.212619,114.234192 51.6378633,113.740078 L78.3005498,86.5639597 C78.6407453,86.2345506 79.0234595,86.0698485 79.4487038,86.0698485 C79.6188015,86.0698485 79.9164681,86.1933751 80.3417124,86.4404319 L86.3376276,91.9991834 C86.6778231,92.3285926 86.8479182,92.6785845 86.8479182,93.0491698 C86.8479182,93.4197551 86.7628706,93.7285715 86.5927729,93.9756284 L60.440377,121.275275 C59.845035,121.851741 59.1859161,122.139969 58.4630008,122.139969 C57.7400854,122.139969 57.1234904,121.934092 56.6131972,121.52233 L51.8930086,117.322385 C51.2976666,116.828271 51,116.210638 51,115.469467 L51,115.469467 Z M51.1275727,44.5645041 C52.3182568,41.4351173 53.2963041,39.376341 54.0617439,38.3881136 C54.4019394,37.9763522 54.7421297,37.6057725 55.0823252,37.2763633 C56.0178627,36.4528405 57.2935766,35.0940481 58.9095051,33.1999456 C60.5254336,31.305843 61.673576,30.1117528 62.353967,29.6176391 L107.769835,70.8759278 C105.048271,73.0994395 103.68751,75.8170242 103.68751,79.0287633 C103.68751,79.522877 103.730034,80.1199221 103.815082,80.8199166 C103.900131,81.519911 104.11275,82.3640092 104.452946,83.3522367 L104.580518,84.2169313 C104.665567,84.3816359 104.708091,84.6286891 104.708091,84.9580982 C104.708091,86.1933825 104.325377,87.2639461 103.559937,88.1698213 L102.156638,89.4050994 L100.753338,90.8874331 C99.3925566,92.287422 98.7121759,93.8932674 98.7121759,95.7050177 C98.7121759,97.1873589 99.3500328,98.6285022 100.625766,100.028491 L95.7780046,102.004936 C95.9481024,101.263766 96.2457689,100.357904 96.6710133,99.2873242 L97.6915946,96.6932402 L95.5228593,97.5579349 C94.5022729,97.9696963 93.651797,98.257925 92.971406,98.4226296 C93.2265526,97.8461636 93.566743,96.9814775 93.9919873,95.8285455 C94.4172317,94.6756135 94.7148983,93.8109275 94.884996,93.2344615 L93.354124,93.7285728 L90.2923801,94.8403231 L92.0783974,89.7756828 C91.4830553,90.0227397 90.6751032,90.3109684 89.6545168,90.6403775 L87.1030636,91.3815444 L89.1442262,85.9463207 C88.633933,86.1110253 87.8685046,86.3992539 86.8479182,86.8110154 C85.8273318,87.2227768 85.0193797,87.4698299 84.4240376,87.5521822 L85.4446189,85.081626 C85.8698633,84.0110463 86.1675298,83.1463603 86.3376276,82.487542 L84.1688923,83.2287089 C83.1483059,83.558118 82.3403538,83.8463467 81.7450117,84.0934035 L83.531029,79.0287633 L78.9384131,80.511097 L80.7244304,75.4464568 L76.0042419,77.0523183 L77.9178318,71.8641503 L73.1976433,73.4700118 L75.1112333,68.4053716 L70.6461901,69.8877053 C71.4116299,67.6641936 71.9644392,65.9759971 72.3046347,64.8230651 L67.7120188,66.3053988 L68.6050275,63.9583704 C69.0302718,62.8054384 69.3704622,61.9407524 69.6256088,61.3642864 C68.2648269,61.8584001 66.6063989,62.3936819 64.6502749,62.9701479 L66.8190102,57.1643408 L62.2263943,58.7702024 L64.1399843,53.7055621 L59.4197957,55.064368 C59.5898935,54.7349589 59.88756,53.9937994 60.3128044,52.8408674 L61.3333857,50.1232556 L56.7407698,51.6055893 L58.6543598,46.5409491 L53.8065986,48.1468106 L55.7201885,42.9586426 L51.1275727,44.5645041 Z M61.0782404,32.5823065 C64.9904882,36.1234548 71.8793431,42.4233101 81.7450117,51.4820615 C91.6106803,60.5408129 99.2649635,67.4994767 104.708091,72.3582615 L105.728672,71.1229834 L62.2263943,31.4705562 C62.1413455,31.6352608 61.9712503,31.8411384 61.7161037,32.0881953 C61.4609571,32.3352521 61.2483381,32.4999542 61.0782404,32.5823065 L61.0782404,32.5823065 Z M96.6710133,38.758697 C96.6710133,38.182231 96.8836322,37.6881247 97.3088766,37.2763633 L103.815082,29.6176391 C104.155278,29.2058776 104.559254,29 105.027023,29 C105.494791,29 105.898768,29.1647021 106.238963,29.4941112 L107.897408,31.0999728 C108.832945,32.0058479 109.428278,32.5411297 109.683425,32.7058343 C110.193718,33.1175957 110.533908,33.9822818 110.704006,35.2999183 C110.874104,36.6175549 111.511961,37.6881186 112.617596,38.5116414 C113.723231,39.3351643 115.083993,39.788095 116.699921,39.8704473 C118.31585,39.9527996 119.336421,40.1586772 119.761665,40.4880864 L120.144383,40.735142 C120.39953,40.8998466 120.73972,41.1880753 121.164965,41.5998367 C121.590209,42.0115981 122.057971,42.3821778 122.568264,42.711587 C123.078557,43.0409961 123.716414,43.658629 124.481854,44.5645041 C125.247294,45.4703793 126.012722,46.2527143 126.778162,46.9115325 C131.030605,51.358556 133.964747,54.7761245 135.580675,57.1643408 C137.196604,59.5525571 138.259699,61.6936844 138.769992,63.587787 L140.811155,78.0405408 C140.811155,78.6170068 140.42844,78.2464271 139.663001,76.9287905 C139.407854,76.5993814 139.02514,76.022924 138.514847,75.1994012 C134.687648,68.7759229 131.413315,64.4524928 128.691752,62.2289811 C126.56553,60.4995831 124.651959,59.634897 122.950982,59.634897 C121.250004,59.634897 119.676624,60.334881 118.230793,61.7348698 C117.7205,62.2289835 116.444786,63.2995472 114.403613,64.9465929 C112.362441,66.5936386 111.256822,67.5406757 111.086724,67.7877325 C110.916626,68.0347894 110.704007,68.158316 110.448861,68.158316 C110.193714,68.158316 109.938571,68.0347894 109.683425,67.7877325 C108.662838,66.9642097 106.196458,64.6583803 102.28421,60.8701751 C101.433722,60.1290046 101.221103,59.5937227 101.646347,59.2643136 C103.942667,56.6290405 105.686142,54.4467376 106.876826,52.7173396 C108.06751,50.9879416 108.662844,49.3615084 108.662844,47.8379911 C108.662844,46.3144738 108.110034,45.0586203 107.004399,44.0703929 C106.324008,43.3292223 105.175866,42.9586426 103.559937,42.9586426 C103.219742,42.9586426 102.794504,42.9998181 102.28421,43.0821704 C101.773917,43.1645227 101.476251,43.1645227 101.391202,43.0821704 C101.306153,42.9998181 101.136058,42.9998181 100.880911,43.0821704 L97.3088766,40.117503 C96.8836322,39.7057415 96.6710133,39.2528108 96.6710133,38.758697 L96.6710133,38.758697 Z M102.156638,91.6286 L102.922074,90.8874331 L103.559937,90.1462663 C105.260914,88.5815728 106.11139,86.8522008 106.11139,84.9580982 L106.11139,83.8463479 L105.728672,82.6110698 L105.345954,80.7581526 C105.260905,80.0993344 105.218382,79.5640525 105.218382,79.1522911 C105.218382,75.6111428 106.706715,73.0582603 109.683425,71.4935668 C110.108669,71.24651 110.406336,71.1229834 110.576434,71.1229834 L110.704006,71.1229834 C111.129251,71.1229834 111.511965,71.2876855 111.85216,71.6170947 L122.950982,82.7345976 C126.267888,86.5228027 129.797363,89.7756692 133.539513,92.4932947 C135.665734,94.1403404 137.494258,95.8697124 139.025137,97.6814627 C139.535431,98.2579287 139.833097,98.8755616 139.918146,99.5343799 L139.918146,100.769658 C139.748048,101.099067 139.110191,101.34612 138.004556,101.510825 L137.111547,101.510825 L135.708248,101.634353 C132.306293,102.128466 130.010008,103.610785 128.819324,106.081354 C128.138933,107.316638 126.693124,109.498941 124.481854,112.628328 C122.270583,115.757715 120.824774,118.310597 120.144383,120.287052 L119.889238,120.534108 C119.378945,121.522335 118.65604,122.016441 117.720503,122.016441 C116.784965,122.016441 116.019537,121.645862 115.424195,120.904691 C115.254097,120.657634 115.041478,120.245879 114.786331,119.669413 C114.531185,119.092947 114.276042,118.681192 114.020895,118.434135 C112.745162,116.869441 111.639544,115.634176 110.704006,114.728301 C110.193713,114.151835 108.620333,112.957744 105.983818,111.145994 C104.708085,110.157767 103.942656,108.922501 103.68751,107.44016 C103.602461,107.028398 103.559937,106.657819 103.559937,106.328409 L103.559937,103.981381 C103.219742,101.922574 102.539361,100.234377 101.518774,98.9167408 C101.263628,98.6696839 101.029747,98.2785165 100.817125,97.7432266 C100.604503,97.2079367 100.455669,96.6108916 100.37062,95.9520734 C100.285572,95.7873688 100.243048,95.5403156 100.243048,95.2109065 C100.243048,93.9756222 100.880905,92.781532 102.156638,91.6286 Z M104.708091,96.199129 C105.813726,96.6932427 106.451583,96.9402958 106.621681,96.9402958 C106.791779,96.9402958 106.961874,96.8991203 107.131972,96.816768 C107.302069,96.7344157 107.429641,96.5285381 107.51469,96.199129 C107.599738,95.8697198 107.72731,95.7050177 107.897408,95.7050177 C107.131968,95.0461994 106.60042,94.7167952 106.302749,94.7167952 C106.005078,94.7167952 105.473531,95.2109015 104.708091,96.199129 L104.708091,96.199129 Z M109.683425,107.687215 C110.278767,109.66367 111.384386,111.104814 113.000314,112.010689 C113.680705,112.257746 114.233514,112.381272 114.658759,112.381272 C115.084003,112.381272 115.636812,112.093043 116.317203,111.516577 C117.082643,110.693055 117.975643,109.622491 118.996229,108.304854 L126.012726,98.4226296 L126.140298,98.1755739 C127.075836,97.0226419 127.543598,95.8285517 127.543598,94.5932674 C127.543598,92.452108 126.267884,90.805087 123.716418,89.652155 C123.036027,89.4050982 122.525741,89.2815716 122.185546,89.2815716 C121.505155,89.2815716 120.824774,89.5698003 120.144383,90.1462663 C118.953699,91.216846 118.145747,92.081532 117.720503,92.7403503 L111.597015,101.75788 C110.321282,103.816688 109.683425,105.669586 109.683425,107.316632 L109.683425,107.687215 Z M111.85216,83.105181 C113.127893,83.7639993 113.850798,84.0934035 114.020895,84.0934035 C114.190993,84.0934035 114.403612,83.969877 114.658759,83.7228201 C114.913905,83.4757632 115.020215,83.2287101 114.97769,82.9816532 C114.935166,82.7345964 114.743809,82.4463677 114.403613,82.1169586 C114.063418,81.7875494 113.808275,81.6434351 113.638177,81.6846112 C113.46808,81.7257874 112.872747,82.1993059 111.85216,83.105181 L111.85216,83.105181 Z" id="Praxis" fill="#EEEEEE" sketch:type="MSShapeGroup"></path>
            </g>
        </g>
    </g>
</svg>