<?xml version="1.0" encoding="UTF-8" standalone="no"?>
<svg width="66px" height="47px" viewBox="0 0 66 47" version="1.1" xmlns="http://www.w3.org/2000/svg" xmlns:xlink="http://www.w3.org/1999/xlink" xmlns:sketch="http://www.bohemiancoding.com/sketch/ns">
    <!-- Generator: Sketch 3.4.2 (15857) - http://www.bohemiancoding.com/sketch -->
    <title>theorieguricons</title>
    <desc>Created with Sketch.</desc>
    <defs>
        <filter x="-50%" y="-50%" width="200%" height="200%" filterUnits="objectboundingbox" id="filter-1">
            <feoffset dx="0" dy="1" in="SourceAlpha" result="shadowoffsetouter1"></feoffset>
            <fegaussianblur stdDeviation="0.5" in="shadowoffsetouter1" result="shadowblurouter1"></fegaussianblur>
            <fecolormatrix values="0 0 0 0 0   0 0 0 0 0   0 0 0 0 0  0 0 0 0.28 0" in="shadowblurouter1" type="matrix" result="shadowmatrixouter1"></fecolormatrix>
            <femerge>
                <femergenode in="shadowmatrixouter1"></femergenode>
                <femergenode in="SourceGraphic"></femergenode>
            </femerge>
        </filter>
    </defs>
    <g id="Page-1" stroke="none" stroke-width="1" fill="none" fill-rule="evenodd" sketch:type="MSPage">
        <g id="Desktop" sketch:type="MSArtboardGroup" transform="translate(-31.000000, -458.000000)">
            <g id="theorie" sketch:type="MSLayerGroup" transform="translate(32.000000, 458.000000)">
                <rect id="Bg_Theorie" fill="#FFA000" filter="url(#filter-1)" sketch:type="MSShapeGroup" x="0" y="0" width="63.9387754" height="44.510031"></rect>
                <path d="M23.6296199,34.3500677 L24.6355593,30.6338765 L24.4492742,28.9306222 L27.1690361,22.8298751 L25.5669846,22.8298751 L25.5669846,23.8208594 L24.8591014,23.8208594 L24.8591014,21.2504939 L25.5669846,21.2504939 L25.5669846,22.2414782 L27.4298352,22.2414782 L28.9946298,18.7110966 C28.6220578,18.215602 28.4357746,17.6994695 28.4357746,17.1626836 C28.4357746,16.4400873 28.7089899,15.8207283 29.2554289,15.3045881 C29.8018678,14.7884478 30.5097439,14.4787683 31.3790786,14.3755403 L31.3790786,11 L32.2732469,11 L32.2732469,14.3755403 C33.1177434,14.4787683 33.8256196,14.7884478 34.3968966,15.3045881 C34.9681737,15.8207283 35.2538079,16.4400873 35.2538079,17.1626836 C35.2538079,17.4930134 35.1544569,17.8646288 34.9557518,18.277541 L36.6695744,22.2414782 L38.420654,22.2414782 L38.420654,21.2504939 L39.1657942,21.2504939 L39.1657942,23.8208594 L38.420654,23.8208594 L38.420654,22.8298751 L36.9303735,22.8298751 L39.6501354,28.9306222 L39.4638503,30.6338765 L40.4697897,34.3500677 L38.1971119,31.0674321 L36.5950604,29.7977335 L32.0497048,20.1356365 L27.5043493,29.7977335 L25.9022977,31.0674321 L23.6296199,34.3500677 Z M29.553485,17.1626836 C29.553485,17.6994695 29.7770248,18.1536661 30.2241112,18.5252871 C30.6711976,18.896908 31.2238377,19.0878771 31.8820483,19.0981999 C32.5402588,19.1085227 33.0928989,18.9175536 33.5399853,18.5252871 C33.9870717,18.1330205 34.216821,17.6736626 34.2292401,17.1471995 C34.2416591,16.6207365 34.0119098,16.1717012 33.5399853,15.8000802 C33.0680608,15.4284592 32.5216301,15.2323289 31.9006768,15.2116833 C31.2300472,15.2116833 30.6711976,15.4078136 30.2241112,15.8000802 C29.7770248,16.1923468 29.553485,16.6465434 29.553485,17.1626836 L29.553485,17.1626836 Z M30.7084524,17.1936519 C30.7084524,16.925259 30.8326412,16.6981607 31.0810225,16.5123502 C31.3294038,16.3265397 31.6026192,16.2233132 31.9006768,16.2026676 C32.1987344,16.182022 32.4595308,16.2852485 32.683074,16.5123502 C32.9066172,16.7394519 33.0183871,16.9665502 33.0183871,17.1936519 C33.0183871,17.4207536 32.9066172,17.6478519 32.683074,17.8749536 C32.4595308,18.1020553 32.1987344,18.1949592 31.9006768,18.1536679 C31.6026192,18.1123767 31.3294038,18.0194729 31.0810225,17.8749536 C30.8326412,17.7304343 30.7084524,17.503336 30.7084524,17.1936519 L30.7084524,17.1936519 Z" id="Theorie" fill="#448AFF" sketch:type="MSShapeGroup"></path>
            </g>
        </g>
    </g>
</svg>